<svg xmlns="http://www.w3.org/2000/svg" xmlns:xlink="http://www.w3.org/1999/xlink" width="310.81" height="175" viewBox="0 0 310.81 175">
  <defs>
    <filter id="Union_1" x="0" y="0" width="310.81" height="175" filterUnits="userSpaceOnUse">
      <feOffset dy="4" input="SourceAlpha"/>
      <feGaussianBlur stdDeviation="2" result="blur"/>
      <feFlood flood-opacity="0.161"/>
      <feComposite operator="in" in2="blur"/>
      <feComposite in="SourceGraphic"/>
    </filter>
  </defs>
  <g id="Group_9832" data-name="Group 9832" transform="translate(-211.111 -546.132)">
    <g id="Group_7846" data-name="Group 7846" transform="translate(243.763 686.598)">
      <path id="Path_8811" data-name="Path 8811" d="M13.094-91.863a9.385,9.385,0,0,1-4.272.677,5.672,5.672,0,0,1-2.928-1.171,5.968,5.968,0,0,1-1.766-2.428,10.828,10.828,0,0,1-.755-3.091,17.53,17.53,0,0,1-.06-3.246q.121-1.609.453-3.5v-.056q.181-.536.377-1.087a6.036,6.036,0,0,1,.5-1.059,5.183,5.183,0,0,1,.74-.96,4.3,4.3,0,0,1,1.072-.79,7.991,7.991,0,0,1,2.626-.861,7.406,7.406,0,0,1,2.838.127,7.12,7.12,0,0,1,1.66.917,6.288,6.288,0,0,1,1.389,1.426v.028a11.639,11.639,0,0,1,.966,2.428,15.754,15.754,0,0,1,.528,2.908,19.442,19.442,0,0,1,.03,3.063,12.7,12.7,0,0,1-.513,2.865,8.338,8.338,0,0,1-1.117,2.343A4.1,4.1,0,0,1,13.094-91.863Zm-2.264-4.742a5.161,5.161,0,0,0,.287-1.087q.136-.748.211-1.637a18.061,18.061,0,0,0,.06-1.821,7.889,7.889,0,0,0-.2-1.694,3.176,3.176,0,0,0-.543-1.228,1.092,1.092,0,0,0-.966-.438,1.192,1.192,0,0,0-.921.621,4.485,4.485,0,0,0-.528,1.355,8.653,8.653,0,0,0-.211,1.623,10.058,10.058,0,0,0,.03,1.4q.091.649.166,1.482a3.842,3.842,0,0,0,.468,1.538,1.411,1.411,0,0,0,1.057.536A1.421,1.421,0,0,0,10.829-96.606Zm16.634,4.46a1.059,1.059,0,0,1-.272.508,2.283,2.283,0,0,1-.528.409,3.456,3.456,0,0,1-.664.3,5.2,5.2,0,0,1-.649.169,1.776,1.776,0,0,1-.8-.014,2.964,2.964,0,0,1-.83-.325,2.352,2.352,0,0,1-.649-.536,1.007,1.007,0,0,1-.257-.649q-.03-1.722-.06-3.416t-.091-3.416a1.807,1.807,0,0,1-1.509-.579,1.591,1.591,0,0,1-.3-1.186,2.017,2.017,0,0,1,.589-1.143,1.4,1.4,0,0,1,1.162-.452q0-.621.045-1.411t.166-1.623a9.065,9.065,0,0,1,.377-1.595,4.281,4.281,0,0,1,.709-1.327,3.927,3.927,0,0,1,1.4-1.016,5.569,5.569,0,0,1,1.9-.536,2.756,2.756,0,0,1,1.676.339,1.59,1.59,0,0,1,.694,1.553,2.124,2.124,0,0,1-.272.677,3.148,3.148,0,0,1-.438.536q-.257.254-.528.508t-.543.536a2.891,2.891,0,0,0-.468,1.327,13.92,13.92,0,0,0-.015,1.468,2.657,2.657,0,0,1,1.434.042,1.635,1.635,0,0,1,.83.635,1.675,1.675,0,0,1,.257.974,2.17,2.17,0,0,1-.3,1.044,2.484,2.484,0,0,1-.845.847,2.7,2.7,0,0,1-1.374.381q0,1.694.151,3.486A20.162,20.162,0,0,1,27.464-92.146Zm13.223,0a1.059,1.059,0,0,1-.272.508,2.283,2.283,0,0,1-.528.409,3.456,3.456,0,0,1-.664.3,5.2,5.2,0,0,1-.649.169,1.776,1.776,0,0,1-.8-.014,2.964,2.964,0,0,1-.83-.325,2.351,2.351,0,0,1-.649-.536,1.007,1.007,0,0,1-.257-.649q-.03-1.722-.06-3.416t-.091-3.416a1.807,1.807,0,0,1-1.509-.579,1.591,1.591,0,0,1-.3-1.186,2.017,2.017,0,0,1,.589-1.143,1.4,1.4,0,0,1,1.162-.452q0-.621.045-1.411t.166-1.623a9.065,9.065,0,0,1,.377-1.595,4.281,4.281,0,0,1,.709-1.327,3.927,3.927,0,0,1,1.4-1.016,5.569,5.569,0,0,1,1.9-.536,2.756,2.756,0,0,1,1.676.339,1.59,1.59,0,0,1,.694,1.553,2.124,2.124,0,0,1-.272.677,3.149,3.149,0,0,1-.438.536q-.257.254-.528.508t-.543.536a2.891,2.891,0,0,0-.468,1.327,13.917,13.917,0,0,0-.015,1.468A2.657,2.657,0,0,1,41.97-103a1.635,1.635,0,0,1,.83.635,1.675,1.675,0,0,1,.257.974,2.17,2.17,0,0,1-.3,1.044,2.484,2.484,0,0,1-.845.847,2.7,2.7,0,0,1-1.374.381q0,1.694.151,3.486A20.162,20.162,0,0,1,40.687-92.146ZM50.951-105.78a3.119,3.119,0,0,1-2.068-.452,1.887,1.887,0,0,1-.845-1.228,1.542,1.542,0,0,1,.468-1.313,2.8,2.8,0,0,1,1.872-.734,2.048,2.048,0,0,1,1.6.409,1.755,1.755,0,0,1,.6,1.171,2,2,0,0,1-.362,1.313A2,2,0,0,1,50.951-105.78Zm-.815,1.5a1.713,1.713,0,0,1,1.449.311,2.555,2.555,0,0,1,.74,1.3,8.242,8.242,0,0,1,.242,2q.015,1.157-.045,2.442t-.106,2.6a17.383,17.383,0,0,0,.075,2.442,1.792,1.792,0,0,1-.453,1.327,2.257,2.257,0,0,1-1.479.762,2.086,2.086,0,0,1-1.026-.085,2.4,2.4,0,0,1-.815-.466,2.338,2.338,0,0,1-.528-.677,1.125,1.125,0,0,1-.136-.72,20.637,20.637,0,0,1-.136-2.159q-.015-1.143,0-2.315t.045-2.315q.03-1.143,0-2.188a3.128,3.128,0,0,1,.166-.734,2.618,2.618,0,0,1,.392-.734,2.089,2.089,0,0,1,.664-.565A1.931,1.931,0,0,1,50.136-104.284Zm18.989,10.5a1.8,1.8,0,0,1-.377,1.5,3.09,3.09,0,0,1-1.238.847,6.112,6.112,0,0,1-1.555.367,6.483,6.483,0,0,1-1.328.028,13.355,13.355,0,0,1-3.185-.579,5.859,5.859,0,0,1-2.143-1.2,4.41,4.41,0,0,1-1.208-1.905,8.625,8.625,0,0,1-.377-2.7,5.948,5.948,0,0,1,.574-2.625,6.347,6.347,0,0,1,1.54-2.032,7.13,7.13,0,0,1,2.279-1.327,8.072,8.072,0,0,1,2.793-.48,5.968,5.968,0,0,1,1.3.155,5.058,5.058,0,0,1,1.3.48,3.254,3.254,0,0,1,1.011.833,1.88,1.88,0,0,1,.408,1.214,2.01,2.01,0,0,1-.619,1.468,2.163,2.163,0,0,1-1.4.677,4.665,4.665,0,0,1-1.011-.056q-.528-.085-1.057-.141a9.529,9.529,0,0,0-1.011-.056,1.738,1.738,0,0,0-.845.2,1.291,1.291,0,0,0-.559.649,3,3,0,0,0-.166,1.27,1.708,1.708,0,0,0,.543,1.4,2.333,2.333,0,0,0,1.238.438,7.654,7.654,0,0,0,1.585-.056,8.569,8.569,0,0,1,1.6-.071,2.583,2.583,0,0,1,1.283.4A1.645,1.645,0,0,1,69.125-93.783Zm7.91-12a3.119,3.119,0,0,1-2.068-.452,1.887,1.887,0,0,1-.845-1.228,1.542,1.542,0,0,1,.468-1.313,2.8,2.8,0,0,1,1.872-.734,2.048,2.048,0,0,1,1.6.409,1.755,1.755,0,0,1,.6,1.171,2,2,0,0,1-.362,1.313A2,2,0,0,1,77.035-105.78Zm-.815,1.5a1.713,1.713,0,0,1,1.449.311,2.555,2.555,0,0,1,.74,1.3,8.241,8.241,0,0,1,.242,2q.015,1.157-.045,2.442t-.106,2.6a17.385,17.385,0,0,0,.075,2.442,1.792,1.792,0,0,1-.453,1.327,2.257,2.257,0,0,1-1.479.762,2.086,2.086,0,0,1-1.026-.085,2.4,2.4,0,0,1-.815-.466,2.338,2.338,0,0,1-.528-.677,1.125,1.125,0,0,1-.136-.72A20.631,20.631,0,0,1,74-95.208q-.015-1.143,0-2.315t.045-2.315q.03-1.143,0-2.188a3.127,3.127,0,0,1,.166-.734,2.618,2.618,0,0,1,.392-.734,2.089,2.089,0,0,1,.664-.565A1.93,1.93,0,0,1,76.22-104.284Zm27.412,13.041a1.65,1.65,0,0,1-1.464-.55,3.656,3.656,0,0,1-.709-1.524,9.392,9.392,0,0,1-.226-1.976q-.015-1.059-.015-1.934V-105.1q0-.536.015-1.157a6.31,6.31,0,0,1,.151-1.228,5.052,5.052,0,0,1,.392-1.129,2.61,2.61,0,0,1,.77-.917,2.4,2.4,0,0,1,1.343-.113,2.188,2.188,0,0,1,1.057.565,2.83,2.83,0,0,1,.679,1.087,4.22,4.22,0,0,1,.242,1.454v4.361q0,1.284.015,2.809t.015,3.359q0,.565-.075,1.355a7.884,7.884,0,0,1-.3,1.538,3.708,3.708,0,0,1-.679,1.3A1.565,1.565,0,0,1,103.632-91.242Z" transform="translate(-3.264 110)" fill="#373843"/>
      <g id="Group_7845" data-name="Group 7845" transform="translate(80.209 3.326)">
        <path id="Path_7559" data-name="Path 7559" d="M0,1.688s.817.691,1.211.386c.34-.263.366-1.269.366-1.544A6.4,6.4,0,0,0,1.211,0" transform="matrix(0.996, -0.087, 0.087, 0.996, 9.223, 12.48)" fill="#373843"/>
        <path id="Path_7555" data-name="Path 7555" d="M-19156.771,4777.22s1.313.926,1.271,1.448-1.219.447-1.219.447" transform="translate(19168.506 -4769.331)" fill="#373843"/>
        <path id="Path_7558" data-name="Path 7558" d="M-19819.041,5177.822a3,3,0,0,0-.15,1.145,1.58,1.58,0,0,0,.549,1.111c.389.261,1.057.027,1.459-.248a1.127,1.127,0,0,0,.406-.454" transform="translate(19821.563 -5164.241)" fill="#373843"/>
        <path id="Subtraction_4" data-name="Subtraction 4" d="M5.249,15.3h0a5.78,5.78,0,0,1-.766-.05,5.36,5.36,0,0,1-.716-.145,5.121,5.121,0,0,1-.663-.233A4.983,4.983,0,0,1,1.46,13.722a5.229,5.229,0,0,1-.779-1.061,3.274,3.274,0,0,1-.274-.689,3.74,3.74,0,0,1-.087-.459c-.015-.119-.019-.2-.019-.2h0a.217.217,0,0,1-.107.044.061.061,0,0,1-.049-.022.144.144,0,0,1-.025-.085.987.987,0,0,1,.019-.2c.012-.069.029-.15.05-.239.034-.141.069-.264.076-.287h0a.617.617,0,0,1-.061.064.214.214,0,0,1-.119.064.059.059,0,0,1-.046-.022c-.044-.05-.05-.188-.019-.409.024-.17.074-.415.147-.727.058-.248.133-.544.223-.879.1-.388.2-.744.255-.922a1.686,1.686,0,0,0,.091.234,1.386,1.386,0,0,0,.159.258,1.352,1.352,0,0,0,.2.2,2,2,0,0,0,.226.161.988.988,0,0,0,.312.144l.009,0a.006.006,0,0,0,0,0c0-.02-.072-.086-.173-.177h0a4.59,4.59,0,0,1-.424-.421,2.8,2.8,0,0,1-.3-.441C.671,7.512.618,7.4.6,7.366L.579,7.3h0l0-.013c-.058-.16-.145-.412-.231-.7a8.89,8.89,0,0,1-.221-.9A3.9,3.9,0,0,1,.046,4.8c.007-.136.02-.277.039-.42s.047-.3.08-.452a5.187,5.187,0,0,1,.3-.945A4.25,4.25,0,0,1,1,2.072a3.678,3.678,0,0,1,.362-.4A3.445,3.445,0,0,1,1.8,1.315c.11-.075.234-.151.366-.225s.277-.148.43-.219A8.738,8.738,0,0,1,3.6.477h0A1.078,1.078,0,0,1,3.5.423a.429.429,0,0,1-.071-.05C3.405.354,3.4.338,3.4.324s.018-.029.049-.038A1.317,1.317,0,0,1,3.738.265c.238,0,.514.019.545.021h0A.929.929,0,0,1,4.171.229.376.376,0,0,1,4.1.173.073.073,0,0,1,4.069.112c.005-.028.041-.052.107-.069A1.713,1.713,0,0,1,4.531.005C4.652,0,4.776,0,4.9,0c.241,0,.485.006.725.018.271.014.532.035.775.064A7.084,7.084,0,0,1,7.134.2a3.053,3.053,0,0,1,.6.194,3,3,0,0,1,.593.369,3.552,3.552,0,0,1,.5.489,3.933,3.933,0,0,1,.4.566c.059.1.113.206.162.312A1.812,1.812,0,0,0,9.057,2.1a1.676,1.676,0,0,0-.4.047,1.384,1.384,0,0,0-.348.135.939.939,0,0,0-.43.632,1.746,1.746,0,0,0-.045.4,2.237,2.237,0,0,0,.043.43,2.372,2.372,0,0,0,.126.425,2.1,2.1,0,0,0,.2.388,2.31,2.31,0,0,0,.333.39,2.425,2.425,0,0,0,.4.306,2.048,2.048,0,0,0,.432.2,1.39,1.39,0,0,0,.423.072A.942.942,0,0,0,10.04,5.5a.747.747,0,0,0,.212-.091,1.057,1.057,0,0,0,.176-.142c.024.062.048.126.071.189a7.48,7.48,0,0,1,.251.858c.039.168.072.34.1.511s.054.373.072.566c.044.472.069.954.074,1.431,0,.408,0,.822-.028,1.231-.04.7-.113,1.269-.18,1.728a1,1,0,0,1-.1.349.154.154,0,0,1-.128.091.16.16,0,0,1-.08-.024.343.343,0,0,1-.068-.053.562.562,0,0,1-.065-.077h0c0,.073,0,.152,0,.223s-.005.134-.011.186a.609.609,0,0,1-.031.15.1.1,0,0,1-.092.076.15.15,0,0,1-.072-.021.233.233,0,0,1-.033-.022h0c-.006.019-.038.121-.082.229a1.789,1.789,0,0,1-.084.182.477.477,0,0,1-.095.132.12.12,0,0,1-.079.032.132.132,0,0,1-.068-.021.26.26,0,0,1-.055-.045.417.417,0,0,1-.051-.065h0a3.867,3.867,0,0,1-.246.3c-.095.107-.2.214-.3.318-.134.13-.275.255-.419.371a5.629,5.629,0,0,1-1.173.732,5.06,5.06,0,0,1-.748.276c-.137.039-.276.071-.413.1s-.291.048-.438.062c-.2.02-.406.03-.607.03ZM2.317,9.041h0a.938.938,0,0,0-.055.113v0h0v0c-.059.13-.157.348-.3.6a4.13,4.13,0,0,1-.25.394h0a.778.778,0,0,0-.154.287.323.323,0,0,0,.038.162,1.009,1.009,0,0,0,.149.232,1.181,1.181,0,0,0,.149.149,1.127,1.127,0,0,0,.191.129,1.06,1.06,0,0,0,.505.125h0c.03,0,.061,0,.093,0a1.023,1.023,0,0,0,.521-.209,2.018,2.018,0,0,0,.405-.409A2.873,2.873,0,0,0,3.87,10.2a.9.9,0,0,0,.093-.224.007.007,0,0,0,0,0h0a.64.64,0,0,0-.12.131v0h0a5.1,5.1,0,0,1-.45.493,2.233,2.233,0,0,1-.3.24,1.1,1.1,0,0,1-.324.149.764.764,0,0,1-.187.024.746.746,0,0,1-.268-.051.9.9,0,0,1-.22-.124,1.04,1.04,0,0,1-.164-.155.831.831,0,0,1-.1-.144c-.026-.048-.036-.085-.027-.1s.064-.113.139-.258c.063-.123.158-.309.247-.5a1.625,1.625,0,0,0,.129-.429.566.566,0,0,0,.007-.211Zm1.9-6.325a1.736,1.736,0,0,0-.362.039,1.889,1.889,0,0,0-.344.109,2.03,2.03,0,0,0-.317.171,2.137,2.137,0,0,0-.523.487,2.045,2.045,0,0,0-.189.3,1.84,1.84,0,0,0-.13.321,1.637,1.637,0,0,0-.063.335,2.1,2.1,0,0,0,.057.7,1.75,1.75,0,0,0,.3.616,1.83,1.83,0,0,0,.549.48,2.286,2.286,0,0,0,.373.173,2.886,2.886,0,0,0,.442.119A2.136,2.136,0,0,0,4.4,6.6a1.555,1.555,0,0,0,.669-.142A1.451,1.451,0,0,0,5.56,6.08a1.821,1.821,0,0,0,.312-.54,2.233,2.233,0,0,0,.091-.307,2.4,2.4,0,0,0,.047-.32,2.259,2.259,0,0,0-.361-1.4,1.96,1.96,0,0,0-.23-.285,1.773,1.773,0,0,0-.281-.233,1.643,1.643,0,0,0-.707-.262,1.691,1.691,0,0,0-.211-.013ZM7.33,4.155a.658.658,0,0,0-.17.022.4.4,0,0,0-.153.08.321.321,0,0,0-.088.118.167.167,0,0,0,0,.149.2.2,0,0,0,.111.079.556.556,0,0,0,.179.027A.7.7,0,0,0,7.424,4.6a.523.523,0,0,0,.164-.087.276.276,0,0,0,.091-.116.126.126,0,0,0-.01-.114.253.253,0,0,0-.132-.092A.632.632,0,0,0,7.33,4.155Z" transform="translate(0.834 0)" fill="#373843"/>
        <path id="Path_7547" data-name="Path 7547" d="M-19965.17,4501.895c-.209-.2-1.744-.276-1.637,1.074s1.533,1.074,1.814,1.06" transform="translate(19966.813 -4497.909)" fill="#373843"/>
        <g id="Group_6948" data-name="Group 6948" transform="translate(8.554 1.987)">
          <path id="Path_7556" data-name="Path 7556" d="M-19378.588,4372.287a1.978,1.978,0,0,1,1.674.947,1.959,1.959,0,0,1-.416,2.576.945.945,0,0,1-.514.139,2.274,2.274,0,0,1-1.689-1.02,2.348,2.348,0,0,1-.344-1.738,1.056,1.056,0,0,1,.486-.707A1.64,1.64,0,0,1-19378.588,4372.287Zm.744,3.429a.716.716,0,0,0,.389-.1,1.739,1.739,0,0,0,.344-2.256,1.744,1.744,0,0,0-1.477-.837,1.415,1.415,0,0,0-.687.167.829.829,0,0,0-.373.558,2.1,2.1,0,0,0,.309,1.553A2.031,2.031,0,0,0-19377.844,4375.715Z" transform="translate(19379.924 -4372.287)" fill="#373843"/>
        </g>
      </g>
    </g>
    <g id="Group_14409" data-name="Group 14409" transform="translate(-142.529 -86.949)">
      <g id="Group_14310" data-name="Group 14310" transform="translate(359.64 635.081)">
        <g id="Group_14309" data-name="Group 14309" transform="translate(0 0)">
          <g transform="matrix(1, 0, 0, 1, -6, -2)" filter="url(#Union_1)">
            <path id="Union_1-2" data-name="Union 1" d="M164.092,161.2c-12.614-3.027-20.292-13.978-18.784-26.66a25.625,25.625,0,0,1,7.408-15.343,40.422,40.422,0,0,1-8.685-8.463,39.865,39.865,0,0,1-5.259,5.834c-8.411,7.636-19.333,10.81-32.466,9.433-16.938-1.775-29.869-12.342-34.592-28.265q-1.011-3.46-1.7-7.117a27.546,27.546,0,0,1-4.874,1.393q-1.474.312-2.9.6c.486,2.877.859,5.268,1.1,7.27,1.98,13.858-7.622,26.66-21.892,28.915L11.113,108.872c-.039-.189-.084-.422-.125-.658-1.4-7.469-2.793-15.561-4.131-23.928l-.786-5L5.6,76.238l-.48-3.179C3.4,61.52,1.722,49.175.151,36.367A26.22,26.22,0,0,1,20.71,7.83c2.226-.53,4.5-1.043,6.692-1.513q1.652-.354,3.275-.685a12.4,12.4,0,0,1,6.757-3.3,49.72,49.72,0,0,1,6.474-.376A12.838,12.838,0,0,1,48.716.206c.185-.03.593-.084.779-.1,4.974-.5,13.273.975,16.612,1.635A26.34,26.34,0,0,1,86.9,22.7a25.024,25.024,0,0,1-.3,11.007,24.854,24.854,0,0,1,7.717-1.329,11.847,11.847,0,0,1,6.555-1.228,12,12,0,0,1,4.952,1.67c.172.1.342.211.507.323a22.654,22.654,0,0,1,2.386,1.861,11.481,11.481,0,0,1,6.3,3.98,11.6,11.6,0,0,1,5.611-2.179,17.833,17.833,0,0,1,5.187-2.372A13.535,13.535,0,0,1,130.772,34a11.961,11.961,0,0,1,6.261,2.57,23.708,23.708,0,0,1,15.726,11.152,47.91,47.91,0,0,1,10.309-6.816,58.216,58.216,0,0,1,18.794-5.585,12,12,0,0,1,8.455-3.425,13.251,13.251,0,0,1,1.73.114,24.778,24.778,0,0,1,5.948,1.63,12.007,12.007,0,0,1,4.258-.781,14.43,14.43,0,0,1,7.122,2.054,23.833,23.833,0,0,1,7.7,7.427,25.96,25.96,0,0,1,6.255-8.783c4.09-3.709,10.457-8.192,17.567-8.486a18.057,18.057,0,0,1,2.356.043,12.93,12.93,0,0,1,4.027,1.01,28.253,28.253,0,0,1,5.734-.132,12.6,12.6,0,0,1,7.4,3.082c5.693.588,10.783,1.173,15.425,1.774a26.471,26.471,0,0,1,6.893,1.707l14.847,28.957a25.585,25.585,0,0,1-5.39,10.3l-7.159,8.576a22.437,22.437,0,0,1,9.085,7.97,25.62,25.62,0,0,1,4.515,17.75,27.129,27.129,0,0,1-7.566,16.189c-4.837,5.23-11.452,7.8-19.082,7.394-11.159-.669-22.8-1.4-32.788-2.275q-3.085-.269-5.959-.557a29.321,29.321,0,0,1-6.188-1.354C223.7,148.338,205.211,163,179.614,163A69.532,69.532,0,0,1,164.092,161.2Zm2.589-11.234a57.992,57.992,0,0,0,12.931,1.505c18.285,0,33.776-9.488,36.115-28.465q.285-2.375.533-4.717a26.332,26.332,0,0,1-4.144-6.671c-.052-.118-.1-.238-.149-.358a24.223,24.223,0,0,1,4.046-25.453l1.293-1.537a99.009,99.009,0,0,0-1.954-16.555,43.123,43.123,0,0,0-2.86-9.36c-1.032-2.318-4.562-11.032-8.78-13.4-4.01-2.25.184,2.83-1.767,2.831a1.709,1.709,0,0,1-.355-.043c-1.386-.293-8.024-3.972-11-4.3-2.254-.327,2.186,2.976.055,2.978h-.055a47.352,47.352,0,0,0-22.411,4.82,35.092,35.092,0,0,0-12.22,9.732c.074,15.482-1.779,28.108-5.618,38.055,6.184,12.83,21.53,19.9,39.108,15.618-.124,8.986-4.754,11.232-16.39,9.235a16.8,16.8,0,0,0-2.832-.247C155,123.631,150.975,146.2,166.681,149.967Zm67.709-34.577q2.8.281,5.811.543c9.318.812,20.125,1.512,32.405,2.249a12.059,12.059,0,0,0,10.011-3.753,15.694,15.694,0,0,0,4.519-9.537,14.322,14.322,0,0,0-2.654-10.164c-2.041-3.171-5.293-4.951-9.625-5.33l-11.651-.88,20.115-24.1c3.5-4.184,4.313-8.74,2.155-13.69a12.652,12.652,0,0,0-11.124-8.454c-6.786-.878-14.18-1.676-22.266-2.448-2.25-.215,2.444-2.131,0-2.351a24.082,24.082,0,0,0-6.815.663,24.206,24.206,0,0,1-3.9.713c-1.909-.191,4.161-2.44,0-2.268s-8.861,4.218-10.271,5.5A15.816,15.816,0,0,0,226.489,56.2a12.937,12.937,0,0,0,11.834,11.237l7.567.8L229.028,88.27a216.52,216.52,0,0,1-.712,25.252A15.554,15.554,0,0,0,234.391,115.39ZM39.242,13.719c-1.971.312,2.358,1.581.274,1.956-3.157.567-6.372,1.2-9.685,1.911-2.113.453-4.3.949-6.5,1.472-7.611,1.765-12.514,8.163-11.708,15.906q2.387,19.429,4.932,36.392c.154,1.033.31,2.058.476,3.149.147.96.3,1.984.463,3.017.256,1.649.513,3.28.779,4.948,1.336,8.364,2.709,16.312,4.1,23.754,1.466,8.343,9.717,12.382,17,11.231.094-.013.187-.027.282-.043,7.191-1.136,13.468-7.447,12.228-16.132-.473-3.862-1.567-9.874-2.991-17.944,4.125-.651,8.777-1.527,14.1-2.647A14.942,14.942,0,0,0,68.649,78.4a98.936,98.936,0,0,1,1.85-23.14c-2.95-2.816-7.372-4.417-13.25-3.605-3.574.565-9.557,1.932-12.72,2.431-.145-1.8-.6-4.684-1.212-8.524,9.486-1.5,16.612-2.764,21.221-3.914,4.333-1.106,7.372-3.274,9.23-6.66A14.857,14.857,0,0,0,75.52,24.728,14.636,14.636,0,0,0,63.866,13.045c-1.5-.3-9.8-1.82-13.118-1.483-2.869.311,2.3,1.947-.524,2.392l-.088.014c-.79.112-2.374-.325-4.945-.453-.422-.021-.884-.03-1.359-.03A42.515,42.515,0,0,0,39.242,13.719ZM82.8,94.468c3.255,10.975,11.994,18.737,24.719,20.071q21.28,2.231,30.3-15.744a45.032,45.032,0,0,1,.085-26.539,51.146,51.146,0,0,1,6.316-14.627c-1.195-7.283-8.139-10.75-14.568-10.075-1.342.14.987-1.977-.085-2.091a2.291,2.291,0,0,0-.775.109c-2.661.71-5.151,4.062-5.834,4.589-1.147.887-.5-1.84-1.017-1.894-.16-.017-.43.222-.9.9-1.986,2.887-2.464,8.414-2.551,10.046l-.044,3.907c-.278,11.949-.6,25.484-7.668,25.109-3.044-.2-4.683-4.4-4.626-10.752a124.558,124.558,0,0,1,1.878-18.994,17.856,17.856,0,0,0-1.01-10.43c-.57-1.359-.882-1.83-1.076-1.851s-.269.434-.363.889c-.13.62-.3,1.241-.9.657-.7-.678-2.453-3.461-4.822-5.056-.5-.3-.386.294-.32.889.057.507.076,1.013-.354.969a.851.851,0,0,1-.135-.028c-6.25-1.868-13.921.427-16.122,8.156a26.332,26.332,0,0,1,3.171,8.864A26.636,26.636,0,0,1,80.58,83.011,65.913,65.913,0,0,0,82.8,94.468Zm93.521-7.78c-2.378-2-2.753-4.368-1.127-6.989,2-3.494,6.131-5.367,12.512-5.491.875,4.868,1.375,9.486,1.75,13.73a27.4,27.4,0,0,1-6.158.8A11.018,11.018,0,0,1,176.317,86.688Z" transform="translate(6 2)" fill="#fff"/>
          </g>
          <g id="Group_14302" data-name="Group 14302" transform="translate(8.083 18.35) rotate(-9)">
            <path id="Path_9293" data-name="Path 9293" d="M44.466,70.394c18.1-.557,20.33-29.241-1.114-29.659-3.62,0-9.747.418-12.95.418.139-1.81.139-4.734.139-8.633,9.608,0,16.849-.139,21.583-.557,4.456-.418,7.8-2.089,10.165-5.152a14.932,14.932,0,0,0,3.342-9.886,14.662,14.662,0,0,0-9.683-13.4C54.515,3,46.549.193,43.218.006c-2.912-.142,2.063,2.337-.981,2.287-.8-.013-2.3-.693-4.815-1.222A42.967,42.967,0,0,0,31.51.342c-2,0,2.083,1.935-.037,1.98-3.208.068-6.484.192-9.87.378-2.159.118-4.4.265-6.657.439C7.149,3.7,1.3,9.266.883,17.063Q.193,36.682.046,53.883C.037,54.93.029,55.971.022,57.076c-.006.974-.011,2.013-.015,3.061C0,61.811,0,63.468,0,65.161c.008,8.494.119,16.581.325,24.17.139,8.494,7.658,13.785,15.038,13.785,7.38.139,14.76-5.152,14.9-14.064.139-3.9,0-10.026-.139-18.241C34.3,70.812,39.036,70.672,44.466,70.394Z" transform="translate(0 0)" fill="#373842"/>
          </g>
          <g id="Group_14303" data-name="Group 14303" transform="matrix(0.995, 0.105, -0.105, 0.995, 83.238, 40.501)">
            <path id="Path_9293-2" data-name="Path 9293" d="M26.532,15.243a17.951,17.951,0,0,0-2.1-10.3C22,.5,23.683,6.161,22.07,4.888c-.764-.6-2.8-3.2-5.328-4.539-1.026-.479.6,2.138-.613,1.91C9.461,1,1.733,4.394.808,13.048c-2.073,15.483,0,29.991,4.389,40.72C9.586,64.375,19.1,71.2,31.9,71.2q37.672,0,30.966-58.4C61.918,4.032,53.839.6,46.9,2.076,45.374,2.4,48.409-.8,45.836.19s-4.7,4.59-5.324,5.188C39.14,6.693,40.174,1.5,38.5,4.591s-1.57,8.649-1.484,10.286l.366,3.9c.975,11.948,2.073,25.48-5,25.846-3.048.122-5.12-3.9-5.73-10.241A125.078,125.078,0,0,1,26.532,15.243Z" transform="translate(0 0)" fill="#373842"/>
          </g>
          <g id="Group_14304" data-name="Group 14304" transform="translate(147.417 43.078)">
            <path id="Path_9293-3" data-name="Path 9293" d="M64.467-303.241a219.446,219.446,0,0,0,1.627-37.676,102.5,102.5,0,0,0-2-17.774,43.335,43.335,0,0,0-2.862-9.387c-1.034-2.324-4.565-11.063-8.784-13.436s.643,3.388-2.122,2.8c-1.386-.294-8.027-3.984-11-4.315-2.273-.331,2.264,3.042,0,2.985a47.268,47.268,0,0,0-22.42,4.834C7.014-370.332.63-362.2-2.249-351.056c-7.761,26.286,13.769,45.938,40.43,39.429-.125,9.012-4.757,11.265-16.4,9.263C4.26-305.369-1.248-280.21,15.4-276.2,38.807-270.822,61.588-279.834,64.467-303.241ZM38.181-338.414c-5.883,1.377-10.264,1-13.143-1.252-2.378-2-2.754-4.381-1.127-7.01,2-3.5,6.133-5.382,12.517-5.508C37.3-347.3,37.806-342.67,38.181-338.414Z" transform="translate(3.852 383.056)" fill="#373842"/>
          </g>
          <g id="Group_14305" data-name="Group 14305" transform="matrix(0.996, 0.087, -0.087, 0.996, 227.326, 35.187)">
            <path id="Path_9293-4" data-name="Path 9293" d="M40.379,50.045,58.322,24.219c3.126-4.486,3.534-9.107.951-13.865A12.665,12.665,0,0,0,47.447,2.878c-6.841-.285-14.28-.437-22.407-.5-2.261-.018,2.25-2.342-.205-2.348C20.7,0,15.554,2.334,14.281,2.334c-1.92-.024,3.933-2.8-.2-2.266S5.62,5.056,4.326,6.456A15.881,15.881,0,0,0,.96,20.956,12.959,12.959,0,0,0,13.737,31.151l7.612.136L2.591,58.065a12.8,12.8,0,0,0-.952,14c2.583,4.757,6.66,7.2,12.369,7.34,10.6.136,23.38-.136,38.332-.544a12.054,12.054,0,0,0,9.651-4.622,15.756,15.756,0,0,0,3.67-9.923,14.394,14.394,0,0,0-3.534-9.923c-2.311-2.99-5.709-4.486-10.059-4.486Z" transform="translate(0 0)" fill="#373842"/>
          </g>
        </g>
        <g id="Group_14308" data-name="Group 14308" transform="translate(8.083 8.082)">
          <g id="Group_14302-2" data-name="Group 14302" transform="translate(0 10.269) rotate(-9)">
            <path id="Path_9293-5" data-name="Path 9293" d="M44.466,70.394c18.1-.557,20.33-29.241-1.114-29.659-3.62,0-9.747.418-12.95.418.139-1.81.139-4.734.139-8.633,9.608,0,16.849-.139,21.583-.557,4.456-.418,7.8-2.089,10.165-5.152a14.932,14.932,0,0,0,3.342-9.886,14.662,14.662,0,0,0-9.683-13.4C54.515,3,46.549.193,43.218.006c-2.912-.142,2.063,2.337-.981,2.287-.8-.013-2.3-.693-4.815-1.222A42.967,42.967,0,0,0,31.51.342c-2,0,2.083,1.935-.037,1.98-3.208.068-6.484.192-9.87.378-2.159.118-4.4.265-6.657.439C7.149,3.7,1.3,9.266.883,17.063Q.193,36.682.046,53.883C.037,54.93.029,55.971.022,57.076c-.006.974-.011,2.013-.015,3.061C0,61.811,0,63.468,0,65.161c.008,8.494.119,16.581.325,24.17.139,8.494,7.658,13.785,15.038,13.785,7.38.139,14.76-5.152,14.9-14.064.139-3.9,0-10.026-.139-18.241C34.3,70.812,39.036,70.672,44.466,70.394Z" transform="translate(0 0)" fill="#373842"/>
          </g>
          <g id="Group_14303-2" data-name="Group 14303" transform="matrix(0.995, 0.105, -0.105, 0.995, 75.157, 32.411)">
            <path id="Path_9293-6" data-name="Path 9293" d="M26.532,15.243a17.951,17.951,0,0,0-2.1-10.3C22,.5,23.683,6.161,22.07,4.888c-.764-.6-2.8-3.2-5.328-4.539-1.026-.479.6,2.138-.613,1.91C9.461,1,1.733,4.394.808,13.048c-2.073,15.483,0,29.991,4.389,40.72C9.586,64.375,19.1,71.2,31.9,71.2q37.672,0,30.966-58.4C61.918,4.032,53.839.6,46.9,2.076,45.374,2.4,48.409-.8,45.836.19s-4.7,4.59-5.324,5.188C39.14,6.693,40.174,1.5,38.5,4.591s-1.57,8.649-1.484,10.286l.366,3.9c.975,11.948,2.073,25.48-5,25.846-3.048.122-5.12-3.9-5.73-10.241A125.078,125.078,0,0,1,26.532,15.243Z" transform="translate(0 0)" fill="#373842"/>
          </g>
          <g id="Group_14304-2" data-name="Group 14304" transform="translate(139.333 34.996)">
            <path id="Path_9293-7" data-name="Path 9293" d="M64.467-303.241a219.446,219.446,0,0,0,1.627-37.676,102.5,102.5,0,0,0-2-17.774,43.335,43.335,0,0,0-2.862-9.387c-1.034-2.324-4.565-11.063-8.784-13.436s.643,3.388-2.122,2.8c-1.386-.294-8.027-3.984-11-4.315-2.273-.331,2.264,3.042,0,2.985a47.268,47.268,0,0,0-22.42,4.834C7.014-370.332.63-362.2-2.249-351.056c-7.761,26.286,13.769,45.938,40.43,39.429-.125,9.012-4.757,11.265-16.4,9.263C4.26-305.369-1.248-280.21,15.4-276.2,38.807-270.822,61.588-279.834,64.467-303.241ZM38.181-338.414c-5.883,1.377-10.264,1-13.143-1.252-2.378-2-2.754-4.381-1.127-7.01,2-3.5,6.133-5.382,12.517-5.508C37.3-347.3,37.806-342.67,38.181-338.414Z" transform="translate(3.852 383.056)" fill="#373842"/>
          </g>
          <g id="Group_14305-2" data-name="Group 14305" transform="matrix(0.996, 0.087, -0.087, 0.996, 219.243, 27.1)">
            <path id="Path_9293-8" data-name="Path 9293" d="M40.379,50.045,58.322,24.219c3.126-4.486,3.534-9.107.951-13.865A12.665,12.665,0,0,0,47.447,2.878c-6.841-.285-14.28-.437-22.407-.5-2.261-.018,2.25-2.342-.205-2.348C20.7,0,15.554,2.334,14.281,2.334c-1.92-.024,3.933-2.8-.2-2.266S5.62,5.056,4.326,6.456A15.881,15.881,0,0,0,.96,20.956,12.959,12.959,0,0,0,13.737,31.151l7.612.136L2.591,58.065a12.8,12.8,0,0,0-.952,14c2.583,4.757,6.66,7.2,12.369,7.34,10.6.136,23.38-.136,38.332-.544a12.054,12.054,0,0,0,9.651-4.622,15.756,15.756,0,0,0,3.67-9.923,14.394,14.394,0,0,0-3.534-9.923c-2.311-2.99-5.709-4.486-10.059-4.486Z" transform="translate(0 0)" fill="#373842"/>
          </g>
        </g>
      </g>
      <path id="Path_24321" data-name="Path 24321" d="M.358,0,17.693,27.646S7.254,26.1,2.921,19.19.358,0,.358,0Z" transform="matrix(0.996, 0.087, -0.087, 0.996, 642.014, 667.58)" fill="#e0dfdf"/>
      <path id="Path_24322" data-name="Path 24322" d="M0,0,26.86,24.487s.493-9.446-8.561-17.139S0,0,0,0Z" transform="translate(370.759 743.904) rotate(-9)" fill="#e0dfdf"/>
    </g>
  </g>
</svg>
