<svg xmlns="http://www.w3.org/2000/svg" xmlns:xlink="http://www.w3.org/1999/xlink" width="108" height="108" viewBox="0 0 108 108">
  <defs>
    <clipPath id="clip-path">
      <circle id="Ellipse_657" data-name="Ellipse 657" cx="50" cy="50" r="50" transform="translate(0 0)" fill="#fff" opacity="0.707"/>
    </clipPath>
    <clipPath id="clip-path-2">
      <path id="Path_24299" data-name="Path 24299" d="M19.635,8.821A11.472,11.472,0,0,0,16.223,0a49.575,49.575,0,0,0-7.9.691A36.347,36.347,0,0,0,1.417,2.782,12.812,12.812,0,0,0,0,8.61c-.036,1.647,1.884,4.148,2.731,5.569,0,0,2.949-2.341,8.972-2.86s6.7,1.024,6.7,1.024A20.587,20.587,0,0,0,19.635,8.821Z" transform="matrix(0.999, -0.035, 0.035, 0.999, 0, 0.686)" fill="#fff" stroke="#060606" stroke-width="8"/>
    </clipPath>
    <clipPath id="clip-path-3">
      <path id="Path_24298" data-name="Path 24298" d="M17.2,0c2.905,2,1.656,7.932,2.032,11.487a18.783,18.783,0,0,0-7.926,1.092A27.972,27.972,0,0,0,3.779,17.6C1.841,15.321-.227,11.885.02,8.782A9.872,9.872,0,0,1,.513,6.416,16.778,16.778,0,0,1,6.642,2.634,65.6,65.6,0,0,1,17.2,0Z" transform="translate(0 0)" fill="#fff" stroke="#1d1d1d" stroke-linejoin="round" stroke-width="8"/>
    </clipPath>
    <clipPath id="clip-path-4">
      <path id="Path_24206" data-name="Path 24206" d="M23.4,10.512A13.671,13.671,0,0,0,19.334,0,59.071,59.071,0,0,0,9.923.823,43.32,43.32,0,0,0,1.69,3.315,15.268,15.268,0,0,0,0,10.26a10.376,10.376,0,0,0,1.525,5.553,25.273,25.273,0,0,1,12.3-4.654C21,10.54,22.889,13.6,22.889,13.6A12.583,12.583,0,0,0,23.4,10.512Z" transform="matrix(0.999, -0.035, 0.035, 0.999, 0, 0.817)" fill="#fff" stroke="#060606" stroke-width="8"/>
    </clipPath>
    <clipPath id="clip-path-5">
      <path id="Path_8764" data-name="Path 8764" d="M20.53,0a14.953,14.953,0,0,1,6.018,10.744A18.844,18.844,0,0,0,15.93,12.026C10.044,14.439,3,20.4,3,20.4A13.4,13.4,0,0,1,.053,10.465,11.784,11.784,0,0,1,.64,7.646a19.994,19.994,0,0,1,7.3-4.508A78.172,78.172,0,0,1,20.53,0Z" transform="translate(0 0)" fill="#fff" stroke="#1d1d1d" stroke-linejoin="round" stroke-width="8"/>
    </clipPath>
  </defs>
  <g id="Group_14566" data-name="Group 14566" transform="translate(-739 -3225)">
    <g id="Ellipse_658" data-name="Ellipse 658" transform="translate(743 3229)" fill="#6a9dca" stroke="#fff" stroke-width="4">
      <circle cx="50" cy="50" r="50" stroke="none"/>
      <circle cx="50" cy="50" r="52" fill="none"/>
    </g>
    <g id="Mask_Group_54" data-name="Mask Group 54" transform="translate(743 3229)" clip-path="url(#clip-path)">
      <g id="Group_14340" data-name="Group 14340" transform="translate(2.544 13.409)">
        <ellipse id="Ellipse_589" data-name="Ellipse 589" cx="38.095" cy="3.171" rx="38.095" ry="3.171" transform="translate(9.517 130.471)" fill="#060606" opacity="0.8"/>
        <g id="Group_14299" data-name="Group 14299" transform="translate(0 0)">
          <path id="Path_9568" data-name="Path 9568" d="M19.631,8.266C17.712,4.878,13.771-1.658,8.347.389.936,3.185,0,15.374,0,15.374" transform="translate(63.802 134.504) rotate(-170)" fill="#c59c81"/>
          <path id="Path_9568_-_Outline" data-name="Path 9568 - Outline" d="M.729,16.833l-.057,0A.728.728,0,0,1,0,16.049C.042,15.533,1.063,3.365,8.817.439c6.206-2.342,10.542,5.316,12.174,8.2a.728.728,0,0,1-1.267.717C17.232,4.953,13.8.115,9.331,1.8c-6.9,2.6-7.869,14.243-7.878,14.36A.728.728,0,0,1,.729,16.833Z" transform="translate(64.392 135.35) rotate(-170)" fill="#060606"/>
          <path id="Path_9331" data-name="Path 9331" d="M.883,8.008A16.542,16.542,0,0,0,3.1,10.64a8.611,8.611,0,0,0,2.385,1.508l-.766-3.4a12.445,12.445,0,0,0,3.02.468,9.1,9.1,0,0,0,2.738-.468L8.193,7.13A14.691,14.691,0,0,0,9.85,3.942a3.617,3.617,0,0,0,0-2.328l-1.656.9S6.77.244,4.721.019,0,1.614,0,1.614" transform="translate(14.936 111.335) rotate(160)" fill="#c59c81"/>
          <path id="Path_9331_-_Outline" data-name="Path 9331 - Outline" d="M6.216,13.6a.727.727,0,0,1-.26-.048,9.326,9.326,0,0,1-2.611-1.647A17.125,17.125,0,0,1,1.006,9.14a.728.728,0,0,1,1.21-.809,15.9,15.9,0,0,0,2.1,2.5,7.556,7.556,0,0,0,.836.649L4.739,9.64a.728.728,0,0,1,.916-.858,11.78,11.78,0,0,0,2.814.439,7.12,7.12,0,0,0,1.008-.076L8.5,8.45a.728.728,0,0,1-.179-1.005A14.043,14.043,0,0,0,9.88,4.46a3.519,3.519,0,0,0,.154-1l-.766.415a.729.729,0,0,1-.962-.252C8.293,3.607,7.036,1.653,5.37,1.47,3.915,1.311,1.821,2.479,1.137,2.943a.728.728,0,0,1-.819-1.2C.436,1.659,3.24-.228,5.528.023A5.8,5.8,0,0,1,9.133,2.3l1.1-.595a.728.728,0,0,1,1.014.349,4.29,4.29,0,0,1,.03,2.828A13.1,13.1,0,0,1,9.911,7.667l1.718,1.219a.728.728,0,0,1-.174,1.278,9.807,9.807,0,0,1-2.985.512,11.164,11.164,0,0,1-2.054-.221l.51,2.26a.728.728,0,0,1-.71.888Z" transform="translate(15.868 111.77) rotate(160)" fill="#060606"/>
          <path id="Path_9341" data-name="Path 9341" d="M9.963,20.553c1.027-1.267,6.871-5.928,5.174-16.2C14.619,1.217,12.528-.287,10.274.045S6.759,3.409,4.722,6.534A79.67,79.67,0,0,1,0,12.96" transform="translate(95.881 69.254) rotate(91)" fill="#c59c81"/>
          <path id="Path_9341_-_Outline" data-name="Path 9341 - Outline" d="M10.69,22.011a.728.728,0,0,1-.565-1.186c.122-.151.306-.346.537-.589,1.623-1.71,5.936-6.253,4.485-15.037-.421-2.549-2.006-4-4.038-3.7C9.68,1.706,8.63,3.45,7.3,5.657c-.389.646-.8,1.323-1.241,2.005-2.218,3.4-4.746,6.462-4.771,6.493a.728.728,0,0,1-1.121-.929c.025-.03,2.5-3.029,4.672-6.359.435-.667.833-1.329,1.214-1.961C7.521,2.47,8.788.366,10.9.056c2.847-.419,5.133,1.553,5.687,4.907,1.569,9.5-3.105,14.422-4.865,16.276-.2.208-.357.374-.461.5A.726.726,0,0,1,10.69,22.011Z" transform="translate(96.624 68.539) rotate(91)" fill="#060606"/>
          <path id="Path_24185" data-name="Path 24185" d="M-6173.029-14192.091a8.04,8.04,0,0,0,3.654,2.767,61.5,61.5,0,0,1,6.762,2.937c1.728.911-.843-1.892-.843-1.892l-5.356-3.261-5.435-4.239Z" transform="translate(6257.774 14265.267)" fill="#fff" opacity="0.48"/>
          <path id="Path_24186" data-name="Path 24186" d="M10.69,22.011a.728.728,0,0,1-.565-1.186c.122-.151.306-.346.537-.589,1.623-1.71,5.936-6.253,4.485-15.037-.421-2.549-2.006-4-4.038-3.7C9.68,1.706,8.63,3.45,7.3,5.657c-.389.646-.8,1.323-1.241,2.005-2.218,3.4-4.746,6.462-4.771,6.493a.728.728,0,0,1-1.121-.929c.025-.03,2.5-3.029,4.672-6.359.435-.667.833-1.329,1.214-1.961C7.521,2.47,8.788.366,10.9.056c2.847-.419,5.133,1.553,5.687,4.907,1.569,9.5-3.105,14.422-4.865,16.276-.2.208-.357.374-.461.5A.726.726,0,0,1,10.69,22.011Z" transform="translate(96.624 68.539) rotate(91)" fill="#060606"/>
          <path id="Path_9327" data-name="Path 9327" d="M3376.242-10950.912a16.927,16.927,0,0,0,5.3-9.214c1.023-5.694-.459-11.729-.312-13.566s1.819-23.851-21.621-29.542c-2.23-.376-3.663-1.554-6.127-2.637a18.342,18.342,0,0,0-4.955-1.154c-.716-.062.19,1.6.322,2.325,0,0,.119-.216-.756-.219a11.825,11.825,0,0,1-2.462-.952,10.879,10.879,0,0,0-2.954-.542s.625,1.454.315,1.579c-.645.479-2.328.572-4.492.687-20.653,1.678-30.886,10.768-30.989,29.061s6.7,24.175,6.7,24.175-13.862,33.735-5.846,52.406,39.758,16.109,39.758,16.109,23.455.238,32.242-16.436c.44-.836.808.954,1.182,0a12.331,12.331,0,0,0,.609-2.509c.114-.915.019-1.832.119-2.16.432-1.422,1.4.44,1.676-1.038a18.725,18.725,0,0,0,.1-3.236c-.042-1.378-.271-2.975-.208-3.562C3385.942-10930.76,3376.242-10950.912,3376.242-10950.912Z" transform="translate(-3297.39 11007.756)" fill="#c59c81"/>
          <path id="Path_9327_-_Outline" data-name="Path 9327 - Outline" d="M3342.067-11014.04a.553.553,0,0,1,.1,0,18.948,18.948,0,0,1,5.186,1.215c.871.385,1.629.785,2.3,1.137a11.826,11.826,0,0,0,3.658,1.447c23.017,5.588,22.552,26.237,22.226,30.32a19.15,19.15,0,0,0,.216,2.717,37.859,37.859,0,0,1,.087,10.92,17.518,17.518,0,0,1-5.128,9.268c1.465,3.249,9.353,21.76,7.434,39.471a12.686,12.686,0,0,0,.083,1.541c.052.607.11,1.286.129,1.918a19.162,19.162,0,0,1-.116,3.4c-.2,1.046-.815,1.2-1.167,1.2a1.673,1.673,0,0,1-.525-.1.034.034,0,0,1,0,.009,5.829,5.829,0,0,0-.023.633,12.1,12.1,0,0,1-.071,1.407,13.027,13.027,0,0,1-.653,2.685,1,1,0,0,1-.927.75.911.911,0,0,1-.552-.19c-8.97,16.15-31.6,16.337-32.568,16.337-.057,0-1.526.118-3.921.118-8.841,0-30.1-1.623-36.559-16.666-3.387-7.887-3.428-19.213-.124-33.656a140.454,140.454,0,0,1,5.784-18.859c-1.477-1.566-6.659-8.217-6.569-24.355.1-18.319,10.458-28.062,31.658-29.784a18.9,18.9,0,0,0,3.861-.419,6.864,6.864,0,0,0-.294-.832.728.728,0,0,1,.071-.7.739.739,0,0,1,.633-.312,11.173,11.173,0,0,1,3.213.6l.228.1c.537.237,1.166.518,1.579.673a1.766,1.766,0,0,1-.023-1.6A.937.937,0,0,1,3342.067-11014.04Zm34.752,103.019a19.894,19.894,0,0,0,.081-3.018c-.018-.606-.074-1.259-.125-1.841a11.639,11.639,0,0,1-.08-1.82c2.057-19-7.432-38.982-7.529-39.182a.731.731,0,0,1,.193-.878,16.321,16.321,0,0,0,5.044-8.779,36.606,36.606,0,0,0-.1-10.494,18.5,18.5,0,0,1-.221-3c.31-3.877.75-23.479-21.068-28.778a13.086,13.086,0,0,1-4.046-1.584c-.678-.36-1.379-.731-2.2-1.093a16.851,16.851,0,0,0-4.077-1.024c.052.155.11.316.155.439a8.642,8.642,0,0,1,.274.844s0,.022.008.039,0,.006,0,.011l.013.063h0a.8.8,0,0,1-.076.482.729.729,0,0,1-.754.367.719.719,0,0,1-.393-.2c-.059-.006-.14-.009-.248-.009a8.474,8.474,0,0,1-2.53-.917l-.226-.1a6.6,6.6,0,0,0-1.6-.376,1.422,1.422,0,0,1,0,.955,1.008,1.008,0,0,1-.307.376l0,0c-.823.61-2.528.7-4.886.829-20.567,1.671-30.2,10.675-30.3,28.339s6.38,23.561,6.446,23.618a.733.733,0,0,1,.2.826c-.137.333-13.653,33.671-5.851,51.845,6.117,14.248,26.67,15.784,35.222,15.784,2.331,0,3.794-.115,3.809-.117h.112c.943,0,23.184-.183,31.544-16.047a1.007,1.007,0,0,1,.9-.618.9.9,0,0,1,.437.111,11.619,11.619,0,0,0,.376-1.754,10.69,10.69,0,0,0,.059-1.239,3.892,3.892,0,0,1,.086-1.04c.288-.948.9-1.092,1.233-1.092A1.6,1.6,0,0,1,3376.819-10911.021Z" transform="translate(-3290.971 11014.042)" fill="#060606"/>
          <path id="Path_24183" data-name="Path 24183" d="M-6484.6-14850.436a40.888,40.888,0,0,1,5.526,2.266,39.876,39.876,0,0,1,5.454,3.539l-.385-1.326s7.129,2.537,11.56,6.131c3.779,3.063,4.656,4.389,6.229,8.326.262.656,2.388,2.146,2.717,3a23.589,23.589,0,0,1,1.662,10.4s-.506,3.508-.636,7.176a28.592,28.592,0,0,1-2.075,9.775,21.306,21.306,0,0,1-5.9,7.094h1.214s5.865,12.545,7.4,21.324,2.282,26.469-5.87,35.723l5.87-5.668,1.046-5.27,1.617-.613v-6.221l-.416-10.885-1.33-11.25-2.579-9.336-3.514-8.986,3.514-4.418,2.137-5.594v-7.266l-1.509-11.037-1.247-8.043-4.7-7.676-8.941-6.23-8.643-2.674-4.949-2.156Z" transform="translate(6535.855 14851.85)" fill="#fff" opacity="0.48"/>
          <path id="Path_24184" data-name="Path 24184" d="M3342.067-11014.04a.553.553,0,0,1,.1,0,18.948,18.948,0,0,1,5.186,1.215c.871.385,1.629.785,2.3,1.137a11.826,11.826,0,0,0,3.658,1.447c23.017,5.588,22.552,26.237,22.226,30.32a19.15,19.15,0,0,0,.216,2.717,37.859,37.859,0,0,1,.087,10.92,17.518,17.518,0,0,1-5.128,9.268c1.465,3.249,9.353,21.76,7.434,39.471a12.686,12.686,0,0,0,.083,1.541c.052.607.11,1.286.129,1.918a19.162,19.162,0,0,1-.116,3.4c-.2,1.046-.815,1.2-1.167,1.2a1.673,1.673,0,0,1-.525-.1.034.034,0,0,1,0,.009,5.829,5.829,0,0,0-.023.633,12.1,12.1,0,0,1-.071,1.407,13.027,13.027,0,0,1-.653,2.685,1,1,0,0,1-.927.75.911.911,0,0,1-.552-.19c-8.97,16.15-31.6,16.337-32.568,16.337-.057,0-1.526.118-3.921.118-8.841,0-30.1-1.623-36.559-16.666-3.387-7.887-3.428-19.213-.124-33.656a140.454,140.454,0,0,1,5.784-18.859c-1.477-1.566-6.659-8.217-6.569-24.355.1-18.319,10.458-28.062,31.658-29.784a18.9,18.9,0,0,0,3.861-.419,6.864,6.864,0,0,0-.294-.832.728.728,0,0,1,.071-.7.739.739,0,0,1,.633-.312,11.173,11.173,0,0,1,3.213.6l.228.1c.537.237,1.166.518,1.579.673a1.766,1.766,0,0,1-.023-1.6A.937.937,0,0,1,3342.067-11014.04Zm34.752,103.019a19.894,19.894,0,0,0,.081-3.018c-.018-.606-.074-1.259-.125-1.841a11.639,11.639,0,0,1-.08-1.82c2.057-19-7.432-38.982-7.529-39.182a.731.731,0,0,1,.193-.878,16.321,16.321,0,0,0,5.044-8.779,36.606,36.606,0,0,0-.1-10.494,18.5,18.5,0,0,1-.221-3c.31-3.877.75-23.479-21.068-28.778a13.086,13.086,0,0,1-4.046-1.584c-.678-.36-1.379-.731-2.2-1.093a16.851,16.851,0,0,0-4.077-1.024c.052.155.11.316.155.439a8.642,8.642,0,0,1,.274.844s0,.022.008.039,0,.006,0,.011l.013.063h0a.8.8,0,0,1-.076.482.729.729,0,0,1-.754.367.719.719,0,0,1-.393-.2c-.059-.006-.14-.009-.248-.009a8.474,8.474,0,0,1-2.53-.917l-.226-.1a6.6,6.6,0,0,0-1.6-.376,1.422,1.422,0,0,1,0,.955,1.008,1.008,0,0,1-.307.376l0,0c-.823.61-2.528.7-4.886.829-20.567,1.671-30.2,10.675-30.3,28.339s6.38,23.561,6.446,23.618a.733.733,0,0,1,.2.826c-.137.333-13.653,33.671-5.851,51.845,6.117,14.248,26.67,15.784,35.222,15.784,2.331,0,3.794-.115,3.809-.117h.112c.943,0,23.184-.183,31.544-16.047a1.007,1.007,0,0,1,.9-.618.9.9,0,0,1,.437.111,11.619,11.619,0,0,0,.376-1.754,10.69,10.69,0,0,0,.059-1.239,3.892,3.892,0,0,1,.086-1.04c.288-.948.9-1.092,1.233-1.092A1.6,1.6,0,0,1,3376.819-10911.021Z" transform="translate(-3290.971 11014.042)" fill="#060606"/>
          <path id="Path_9332" data-name="Path 9332" d="M.95,14.6a.611.611,0,0,1-.216-.04c-.518-.2-.891-2.2-.668-2.252s.76,1.123.885,1.345a6.861,6.861,0,0,0,.54-2.588A10.553,10.553,0,0,0,1.12,8.116a.416.416,0,0,1,.755-.332A5.307,5.307,0,0,0,2.938,9.1a7.7,7.7,0,0,0,.234-3.677C2.837,3.045,1.731.1,1.941,0S3.644,2.81,4,5.307c.212,1.5.139,3.473-.41,4.339A.668.668,0,0,1,3,9.975a1.231,1.231,0,0,1-.745-.363,8.927,8.927,0,0,1,.065,1.5c-.014.283-.162,2.787-1.015,3.38A.623.623,0,0,1,.95,14.6Z" transform="translate(63.684 72.409) rotate(-13)" fill="#060606"/>
          <path id="Path_9342" data-name="Path 9342" d="M0,5.467A11.389,11.389,0,0,1,1.481,2.488,7.448,7.448,0,0,1,4.354.007c.157.113-1.186,1.516-2.1,2.917A11.971,11.971,0,0,0,.919,5.807Z" transform="matrix(-0.875, -0.485, 0.485, -0.875, 77.87, 60.528)" fill="#060606"/>
          <path id="Path_9342_-_Outline" data-name="Path 9342 - Outline" d="M1.075,6.119a.156.156,0,0,1-.054-.01L.1,5.769a.156.156,0,0,1-.1-.191A10.176,10.176,0,0,1,.376,4.6,11.038,11.038,0,0,1,1.51,2.553,9.94,9.94,0,0,1,3.217.778,7.856,7.856,0,0,1,3.972.225C4.328,0,4.439,0,4.481,0A.2.2,0,0,1,4.6.037a.186.186,0,0,1,.075.127c.014.1-.043.219-.225.469-.131.181-.316.413-.53.681-.423.53-.949,1.19-1.38,1.851a11.542,11.542,0,0,0-1,1.94c-.214.532-.319.9-.32.9a.156.156,0,0,1-.15.113Zm-.725-.59.624.231c.052-.16.145-.431.281-.771A11.859,11.859,0,0,1,2.281,3c.439-.673.97-1.34,1.4-1.875.2-.246.365-.458.49-.627L4.2.452,4.11.507a7.806,7.806,0,0,0-.721.534A9.61,9.61,0,0,0,1.764,2.735a10.719,10.719,0,0,0-1.1,1.979C.51,5.075.405,5.367.351,5.529Z" transform="matrix(-0.875, -0.485, 0.485, -0.875, 77.931, 60.74)" fill="#060606"/>
          <path id="Path_9344" data-name="Path 9344" d="M0,.148A8.754,8.754,0,0,0,1.292,2.523,6.414,6.414,0,0,0,3.8,4.5c.137-.09-1.035-1.208-1.832-2.325S.554,0,.554,0Z" transform="translate(15.09 54.75) rotate(-10)" fill="#060606"/>
          <path id="Path_9344_-_Outline" data-name="Path 9344 - Outline" d="M.71,0A.156.156,0,0,1,.845.077c.006.011.623,1.065,1.406,2.162.375.526.833,1.051,1.2,1.473.567.65.687.8.668.945a.181.181,0,0,1-.079.127.2.2,0,0,1-.112.032c-.037,0-.135,0-.449-.181a6.884,6.884,0,0,1-.661-.442A8.336,8.336,0,0,1,1.326,2.775,8.635,8.635,0,0,1,.332,1.14,7.715,7.715,0,0,1,.008.353a.156.156,0,0,1,.108-.2L.67.005A.156.156,0,0,1,.71,0ZM3.572,4.328c-.1-.117-.219-.255-.354-.41-.373-.427-.837-.959-1.221-1.5C1.348,1.511.812.631.636.337L.36.411c.051.134.136.346.256.6a8.316,8.316,0,0,0,.954,1.57,8,8,0,0,0,1.41,1.343A7,7,0,0,0,3.572,4.328Z" transform="translate(14.91 54.623) rotate(-10)" fill="#060606"/>
          <path id="Path_9446" data-name="Path 9446" d="M0,4.615A9.272,9.272,0,0,1,1.369,2.1,6.793,6.793,0,0,1,4.025.006c.145.1-1.1,1.28-1.94,2.463s-1.5,2.3-1.5,2.3Z" transform="matrix(-0.07, 0.998, -0.998, -0.07, 62.693, 3.136)" fill="#060606"/>
          <path id="Path_9446_-_Outline" data-name="Path 9446 - Outline" d="M.743,5.084A.156.156,0,0,1,.7,5.079L.116,4.922a.156.156,0,0,1-.108-.2A8.161,8.161,0,0,1,.351,3.89,9.137,9.137,0,0,1,1.4,2.16a8.82,8.82,0,0,1,1.58-1.5,7.282,7.282,0,0,1,.7-.468C4.012,0,4.115,0,4.153,0a.2.2,0,0,1,.113.032.18.18,0,0,1,.08.128c.02.147-.107.308-.705.994-.39.447-.876,1-1.274,1.561C1.537,3.879.884,5,.878,5.007A.156.156,0,0,1,.743,5.084ZM.36,4.664l.309.083c.182-.3.752-1.243,1.444-2.213.406-.569.9-1.133,1.293-1.585.159-.183.3-.343.409-.476l0,0a7.2,7.2,0,0,0-.666.45,8.488,8.488,0,0,0-1.5,1.427A8.821,8.821,0,0,0,.633,4.022C.5,4.3.413,4.524.36,4.664Z" transform="matrix(-0.07, 0.998, -0.998, -0.07, 62.859, 2.992)" fill="#060606"/>
          <g id="Group_8058" data-name="Group 8058" transform="translate(67.592 41.711) rotate(-175)">
            <path id="Path_24189" data-name="Path 24189" d="M3.507,3.767A7.631,7.631,0,0,1,.8,2.083,2.146,2.146,0,0,1,.62,0L.047.716A2.422,2.422,0,0,0,.62,2.847,6.242,6.242,0,0,0,3.507,3.767Z" transform="matrix(1, -0.017, 0.017, 1, 0.653, 3.309)" fill="#fff" opacity="0.4"/>
            <path id="Path_9299" data-name="Path 9299" d="M6.23,7.938h0c-2.836,0-5.159-.949-5.917-2.417A2.7,2.7,0,0,1,.15,3.388c.355-.95,1.3-1.745,2.975-2.5A9.377,9.377,0,0,1,4.637.351,10.534,10.534,0,0,1,5.915.1,12.293,12.293,0,0,1,7.5,0c2.612,0,4.716.806,5.361,2.054a2.863,2.863,0,0,1-.082,2.572A6.005,6.005,0,0,1,8.577,7.7,11.354,11.354,0,0,1,6.23,7.938ZM7.5.832a11.459,11.459,0,0,0-1.475.1,9.687,9.687,0,0,0-1.175.229,8.554,8.554,0,0,0-1.379.488C2.028,2.295,1.2,2.96.93,3.679a1.865,1.865,0,0,0,.13,1.478c.59,1.141,2.719,1.95,5.17,1.95A10.52,10.52,0,0,0,8.4,6.885a5.13,5.13,0,0,0,3.62-2.615,2.059,2.059,0,0,0,.094-1.834C11.624,1.477,9.766.832,7.5.832Z" transform="matrix(1, -0.017, 0.017, 1, 0, 0.229)" fill="#060606"/>
            <path id="Path_9300" data-name="Path 9300" d="M5.941,1.1C5.467.25,3.611-.226,2.083.107S-.319,1.815.109,2.666s2.348,1.153,3.827.757S6.414,1.952,5.941,1.1Z" transform="translate(9.546 7.11) rotate(177)" fill="#060606"/>
            <path id="Path_9300_-_Outline" data-name="Path 9300 - Outline" d="M3.53,0C4.754,0,6.216.407,6.721,1.315a1.366,1.366,0,0,1,.047,1.236A3.415,3.415,0,0,1,4.46,4.24a5.769,5.769,0,0,1-1.472.186c-1.088,0-2.4-.3-2.834-1.158A1.689,1.689,0,0,1,.2,1.763,3.2,3.2,0,0,1,2.412.116,5.273,5.273,0,0,1,3.53,0ZM2.988,3.595a4.926,4.926,0,0,0,1.256-.158A2.68,2.68,0,0,0,6,2.227a.549.549,0,0,0-.008-.507A3.1,3.1,0,0,0,3.53.832a4.44,4.44,0,0,0-.941.1A2.344,2.344,0,0,0,.955,2.121.886.886,0,0,0,.9,2.895C1.1,3.3,1.981,3.595,2.988,3.595Z" transform="translate(9.984 7.503) rotate(177)" fill="#060606"/>
            <path id="Path_9301" data-name="Path 9301" d="M4.427,1.1a3.677,3.677,0,0,1-2.733.345C-.084,1.1,0,0,0,0A3.654,3.654,0,0,0,1.812,1.048,7.615,7.615,0,0,0,4.427,1.1Z" transform="translate(3.55 5.59)" fill="#fff"/>
            <path id="Path_24188" data-name="Path 24188" d="M1.208,3.775a5.533,5.533,0,0,0,1.03-2.143A2.151,2.151,0,0,0,1.614,0L3.266.335,4.2,1.958,4.059,3.735l-2.3,1.84L0,6.132Z" transform="matrix(1, -0.017, 0.017, 1, 8.475, 1.091)" fill="#060606" opacity="0.12"/>
          </g>
          <path id="Path_9569" data-name="Path 9569" d="M21.039,8.468C18.923,4.757,14.011-1.785,8.027.457,2.345,2.586.684,9.513.2,13.564A24.967,24.967,0,0,0,0,16.516" transform="matrix(-0.921, -0.391, 0.391, -0.921, 42.291, 138.24)" fill="#c59c81"/>
          <path id="Path_9569_-_Outline" data-name="Path 9569 - Outline" d="M.951,18.1c-.4,0-1.126-2.125-.913-3.9.5-4.143,2.24-11.432,8.3-13.7,6.995-2.621,12.408,5.715,13.9,8.332a.728.728,0,0,1-1.265.721C19.623,7.192,14.764-.35,8.847,1.867c-5.337,2-6.9,8.7-7.363,12.512C1.283,16.047.954,18.1.951,18.1Z" transform="matrix(-0.921, -0.391, 0.391, -0.921, 42.526, 139.13)" fill="#060606"/>
          <path id="Path_9570" data-name="Path 9570" d="M0,.2a10.91,10.91,0,0,0,1.611,2.96A7.993,7.993,0,0,0,4.735,5.626c.17-.113-1.29-1.506-2.283-2.9S.5,0,.5,0Z" transform="translate(24.075 121.576) rotate(-42)" fill="#060606"/>
          <path id="Path_9570_-_Outline" data-name="Path 9570 - Outline" d="M.651,0A.156.156,0,0,1,.778.065c.01.013.976,1.353,1.958,2.729.468.657,1.041,1.312,1.5,1.839.7.8.845.986.823,1.148a.185.185,0,0,1-.082.132.21.21,0,0,1-.118.033,1.2,1.2,0,0,1-.541-.22,8.542,8.542,0,0,1-.82-.549A10.35,10.35,0,0,1,1.644,3.415,10.723,10.723,0,0,1,.41,1.384a9.573,9.573,0,0,1-.4-.977A.156.156,0,0,1,.1.214l.5-.2A.156.156,0,0,1,.651,0ZM4.574,5.51l-.043-.053C4.4,5.29,4.213,5.08,4,4.838c-.464-.532-1.042-1.194-1.519-1.863C1.655,1.816.839.683.6.347l-.244.1c.059.161.173.451.342.81A10.4,10.4,0,0,0,1.889,3.222,10.022,10.022,0,0,0,3.668,4.913a8.4,8.4,0,0,0,.787.53Z" transform="translate(23.854 121.564) rotate(-42)" fill="#060606"/>
          <path id="Path_24181" data-name="Path 24181" d="M0,2.1A6.793,6.793,0,0,1,2.656.006C2.8.1.912,2.658.183,3.9Z" transform="matrix(0.574, 0.819, -0.819, 0.574, 46.427, 1.658)" fill="#060606"/>
          <path id="Path_24181_-_Outline" data-name="Path 24181 - Outline" d="M.339,4.207a.156.156,0,0,1-.155-.14L0,2.272A.156.156,0,0,1,.033,2.16a8.82,8.82,0,0,1,1.58-1.5,7.283,7.283,0,0,1,.7-.468C2.644,0,2.746,0,2.784,0A.2.2,0,0,1,2.9.032a.173.173,0,0,1,.074.112c.014.073-.012.157-.1.321C2.812.573,2.725.716,2.606.9c-.22.344-.52.785-.837,1.252-.487.717-.991,1.459-1.3,1.976A.156.156,0,0,1,.339,4.207ZM.318,2.3l.13,1.273c.3-.473.686-1.042,1.063-1.6.3-.439.58-.854.794-1.186.1-.15.173-.272.231-.37L2.443.476a7.2,7.2,0,0,0-.666.45A8.586,8.586,0,0,0,.318,2.3Z" transform="matrix(0.574, 0.819, -0.819, 0.574, 46.465, 1.441)" fill="#060606"/>
          <path id="Path_24182" data-name="Path 24182" d="M0,2.1C.477,1.492.657.822,1.221.414A6.753,6.753,0,0,0,2.656,0C2.8.1,1.763,1.335.734,2.44Z" transform="translate(51.828 1.524) rotate(65)" fill="#060606"/>
          <path id="Path_24182_-_Outline" data-name="Path 24182 - Outline" d="M.89,2.752a.156.156,0,0,1-.066-.015L.09,2.395a.156.156,0,0,1-.057-.238,5.586,5.586,0,0,0,.444-.69A3.006,3.006,0,0,1,1.285.443a.156.156,0,0,1,.086-.03A3.311,3.311,0,0,0,2.481.1.921.921,0,0,1,2.8,0a.181.181,0,0,1,.1.029A.186.186,0,0,1,2.98.165c.009.078-.018.179-.181.42-.1.152-.253.349-.446.585C2,1.6,1.521,2.147,1,2.7A.156.156,0,0,1,.89,2.752ZM.4,2.193l.458.213c.459-.5.888-.983,1.214-1.379C2.3.741,2.446.549,2.533.421a3.5,3.5,0,0,1-1.1.3,2.887,2.887,0,0,0-.684.9C.64,1.81.53,2,.4,2.193Z" transform="translate(51.904 1.316) rotate(65)" fill="#060606"/>
          <g id="Group_14298" data-name="Group 14298" transform="translate(5.584 23.516)">
            <path id="Path_24180" data-name="Path 24180" d="M50.739,222.031v14.443l-2.142.394-3.476-.394-3.248-2.938-.987-3.329.364-4.056,1.223-3.211,2.648-1.383,2.933-.716Z" transform="translate(-39.293 -219.758)" fill="#c59c81"/>
            <path id="Path_9307_-_Outline" data-name="Path 9307 - Outline" d="M2.75,0C1.784,0-.018.981,0,1.385s2.3.028,3.542.109A6.66,6.66,0,0,1,7.92,3.242,8.073,8.073,0,0,1,10.4,8.432a6.85,6.85,0,0,1-3.355,6.734A6.753,6.753,0,0,1,3.858,16c-1.267.028-2.624-.509-2.857-.215-.144.181.8.868,2.318,1.356a5.118,5.118,0,0,0,2.19.141,7.469,7.469,0,0,0,2.065-.789c1.787-1.017,4.37-3.291,4.051-8.173a9.612,9.612,0,0,0-2.918-6.2A8.2,8.2,0,0,0,2.75,0Z" transform="matrix(-0.998, -0.07, 0.07, -0.998, 11.623, 18.11)" fill="#060606"/>
            <path id="Path_9308" data-name="Path 9308" d="M.136,0A7.786,7.786,0,0,0,1.268,5.576C2.792,7.539,6.309,8.292,6.352,8.066S3.169,6.778,1.8,5.011C.447,3.274.343.006.146,0Z" transform="translate(9.623 13.902) rotate(-167)" fill="#060606"/>
            <path id="Path_9347" data-name="Path 9347" d="M5.831,7.438s.975-4.07-.482-5.922S0,.029,0,.029.107,3.466,1.564,5.318A6.884,6.884,0,0,0,5.831,7.438Z" transform="translate(9.506 13.533) rotate(-166)" fill="#060606" opacity="0.4"/>
          </g>
          <path id="Path_9445_-_Outline" data-name="Path 9445 - Outline" d="M14.049,0a6.367,6.367,0,0,0-.9.065C10.6.43,9.051,2.928,7.259,5.82c-.468.755-.957,1.545-1.491,2.341C3.1,12.137-.32,16.175.024,16.469S4.313,13.08,7.035,9.023c.545-.813.954-1.669,1.431-2.439,1.641-2.648,3.127-4.875,4.919-5.131a4.616,4.616,0,0,1,.653-.047c2.225,0,4.008,1.753,4.485,4.559a20.927,20.927,0,0,1-1.615,13.169c-1.293,2.5-5.1,5.7-4.757,5.993s4.239-2.231,5.544-4.438c1.909-3.23,3.5-8.047,2.345-14.814C19.424,2.259,17.07,0,14.049,0Z" transform="matrix(-0.883, 0.469, -0.469, -0.883, 43.777, 84.811)" fill="#060606"/>
          <path id="Path_24187" data-name="Path 24187" d="M-6928.625-14814.724l5.6-1.055s-7.741,2.474-9.176,12.033,3,12.722,3,12.722a22.687,22.687,0,0,0,0,7.117,16.008,16.008,0,0,0,2.134,5.545c.134.395-3.12,5.091-2.752,9.475s3.533,10.147,3.533,10.147-5.637,4.911-5.327,15.868c.243,8.59,3.588,11.871,7.242,11.683.431.228-.338,1.309-.338,1.309s-4.828,3.6-.636,17.824,16.752,16.168,16.752,16.168v.206h4.437l12.456-1.931-10.021,1.931a7.559,7.559,0,0,0-2.435,3.295,5.478,5.478,0,0,0,.763,3.608l-2.592-1.089-2.85-5.814s-7.741-.944-10.432,2.175-.675,7.118-.675,7.118h-2.458a10.785,10.785,0,0,1-4.918-3.943,21.391,21.391,0,0,1-2.5-8.211s6.55.125-2.754-1.14l-5.892-2.947-5.415-6.062-2.575.715-3.519-.715h-1.6l-.282-4.418-2.036-1.081,4.774-2.088-1.161-2.6,2.562.407v-11.772l2.619-15.968,5.426-17.709-1.938-2.687-3.489-8.741-.832-5.941-2.868-3.16-.758-3.865.758-3.99,3.333-3.325,1.877-6.733,5.339-6.812Z" transform="translate(6956.348 14820.797)" fill="#060606" opacity="0.09"/>
          <g id="Group_14300" data-name="Group 14300" transform="translate(71.815 18.586)">
            <path id="Path_9447" data-name="Path 9447" d="M0,.048s6.3-.7,9.939,3.293,1.739,7.093,1.739,7.093" transform="matrix(0.999, -0.035, 0.035, 0.999, 0.373, 0.7)" fill="#c59c81"/>
            <path id="Path_24190" data-name="Path 24190" d="M-19448.959-23295.525s3.068,2.018,3.873,3.725a7.965,7.965,0,0,1,.4,4.053l1.158,1.064.449-2.42-.543-2.131-1.469-2.008-2.3-1.812Z" transform="translate(19455.814 23297.371)" fill="#fff" opacity="0.48"/>
            <path id="Path_9447_-_Outline" data-name="Path 9447 - Outline" d="M12.041,11.111a.416.416,0,0,1-.354-.633c.069-.115,1.673-2.9-1.692-6.6A10.39,10.39,0,0,0,3.806.858C1.92.566.026.766,0,.538s2.793-.7,4.164-.481a14.174,14.174,0,0,1,1.47.324,10.383,10.383,0,0,1,4.976,2.94c3.8,4.18,1.87,7.453,1.786,7.591A.416.416,0,0,1,12.041,11.111Z" transform="matrix(0.999, -0.035, 0.035, 0.999, 0, 0.452)" fill="#060606"/>
          </g>
        </g>
        <g id="Group_14300-2" data-name="Group 14300" transform="translate(26.283 18.658)">
          <path id="Path_9448" data-name="Path 9448" d="M2.2,16.386c-1.039,0-2.22-.313-2.195-.541s9.577.562,13.635-4.825S16.592.067,16.812,0,18.63,5.773,14.3,11.521C11.076,15.8,5.182,16.386,2.2,16.386Z" transform="translate(17.449 16.765) rotate(180)" fill="#060606"/>
          <path id="Path_8955" data-name="Path 8955" d="M3.468,0C2.118,0-.062.637,0,.866S1.5.308,4.612.738s7,3.016,9.117,7.089a.4.4,0,0,0,.56.173.44.44,0,0,0,.166-.584C12.177,3.037,7.845.4,4.743.068A11.8,11.8,0,0,0,3.468,0Z" transform="translate(51.804 26.194) rotate(-156)" fill="#060606"/>
          <path id="Path_8955-2" data-name="Path 8955" d="M3.309,8.224C2.021,8.224-.059,7.58,0,7.349s1.429.564,4.4.129,6.474-3.133,8.5-7.25a.376.376,0,0,1,.534-.175.46.46,0,0,1,.159.59c-2.174,4.426-6.1,7.172-9.064,7.513A10.637,10.637,0,0,1,3.309,8.224Z" transform="matrix(0.883, -0.469, 0.469, 0.883, 14.647, 22.1)" fill="#060606"/>
          <path id="Path_9449" data-name="Path 9449" d="M23.4,10.256a14.262,14.262,0,0,0-2.818-9.18A23.759,23.759,0,0,0,11.467.111,34.679,34.679,0,0,0,1.633,3.166,15.347,15.347,0,0,0,0,10a10.339,10.339,0,0,0,1.242,5,31.332,31.332,0,0,1,10.805-4.064c5.481-.719,10.946,2,11.119,1.187A11.373,11.373,0,0,0,23.4,10.256Z" transform="matrix(0.999, -0.035, 0.035, 0.999, 2.85, 6.823)" fill="#fff"/>
          <path id="Path_9449_-_Outline" data-name="Path 9449 - Outline" d="M1.5,16.011l-.209-.4A10.8,10.8,0,0,1,0,10.412,15.787,15.787,0,0,1,1.681,3.387l.063-.118.12-.059a34.67,34.67,0,0,1,9.974-3.1A19.542,19.542,0,0,1,13.968,0a24.5,24.5,0,0,1,7.163,1.1l.117.04.076.1a14.716,14.716,0,0,1,2.907,9.454,11.737,11.737,0,0,1-.24,1.939c-.031.146-.165.485-.744.485h0a10.693,10.693,0,0,1-2.073-.413,27.865,27.865,0,0,0-6.767-1.051,14.568,14.568,0,0,0-1.889.119,31.1,31.1,0,0,0-10.638,4ZM2.353,3.9A15.053,15.053,0,0,0,.834,10.43a9.833,9.833,0,0,0,1,4.4,30.924,30.924,0,0,1,10.58-3.888,15.427,15.427,0,0,1,2-.126,28.572,28.572,0,0,1,6.971,1.076,12.283,12.283,0,0,0,1.834.387,10.99,10.99,0,0,0,.187-1.625,13.9,13.9,0,0,0-2.652-8.806A24.347,24.347,0,0,0,13.968.832a18.683,18.683,0,0,0-2.04.109A34.1,34.1,0,0,0,2.353,3.9Z" transform="matrix(0.999, -0.035, 0.035, 0.999, 2.42, 6.422)" fill="#060606"/>
          <path id="Path_9450" data-name="Path 9450" d="M0,8.771a14.263,14.263,0,0,0,.43,3.412c.015.061.039.152.063.243A26.985,26.985,0,0,0,7.213,17.2c3.4,1.491,6.282,1.865,6.872,1.19,1.774-2.03,2.767-5.257,2.993-8.618a9.452,9.452,0,0,0-.239-2.8A24.8,24.8,0,0,1,9.369,4.83,17.785,17.785,0,0,1,3.8,0,12.168,12.168,0,0,0,0,8.771Z" transform="translate(61.357 20.319) rotate(164)" fill="#fff"/>
          <path id="Path_9450_-_Outline" data-name="Path 9450 - Outline" d="M4.284,0l.271.376a17.5,17.5,0,0,0,5.419,4.7,24.519,24.519,0,0,0,7.325,2.1l.294.032.067.288a9.93,9.93,0,0,1,.249,2.921c-.247,3.665-1.375,6.9-3.1,8.864a1.946,1.946,0,0,1-1.517.466A16.3,16.3,0,0,1,7.462,18.2,27.069,27.069,0,0,1,.617,13.341l-.08-.079L.442,12.9A14.6,14.6,0,0,1,0,9.391,12.621,12.621,0,0,1,3.94.309ZM16.911,7.967A24.63,24.63,0,0,1,9.6,5.819,17.847,17.847,0,0,1,4.168,1.238,11.824,11.824,0,0,0,.832,9.388,13.774,13.774,0,0,0,1.249,12.7l.033.126A26.37,26.37,0,0,0,7.8,17.437a15.722,15.722,0,0,0,5.5,1.478c.578,0,.832-.114.891-.181,1.6-1.834,2.657-4.886,2.892-8.373A8.868,8.868,0,0,0,16.911,7.967Z" transform="translate(61.927 20.799) rotate(164)" fill="#060606"/>
          <g id="Mask_Group_52" data-name="Mask Group 52" transform="translate(45.418 3.345) rotate(22)" clip-path="url(#clip-path-2)">
            <g id="Mask_Group_51" data-name="Mask Group 51" transform="translate(3.121 -3.105) rotate(14)" clip-path="url(#clip-path-3)">
              <g id="Group_14338" data-name="Group 14338" transform="matrix(0.788, 0.616, -0.616, 0.788, 8.098, 0.322)">
                <path id="Path_24294" data-name="Path 24294" d="M6.149,0a6.881,6.881,0,0,1,6.9,4.731c1.06,3.489-1.157,7.967-5.093,8.69S.488,11.948.036,8.031,3.512,0,6.149,0Z" transform="translate(0 0)" fill="#6a9dca"/>
                <path id="Path_24295" data-name="Path 24295" d="M5.547,0a6.968,6.968,0,0,1,6.688,4.125c.074.181-.762,5.34-5.312,6.361S-.445,5.671.058,4.565C1.215,2.022,3.7,0,5.547,0Z" transform="translate(0.602 0)" fill="#060606"/>
                <path id="Path_24296" data-name="Path 24296" d="M2.132,0A2.555,2.555,0,0,1,4.365,2.353,2.335,2.335,0,0,1,2.132,4.478,2.241,2.241,0,0,1,0,2.353,2.462,2.462,0,0,1,2.132,0Z" transform="translate(3.473 1.856) rotate(-14)" fill="#fff"/>
                <path id="Path_24297" data-name="Path 24297" d="M.5,0a.7.7,0,0,1,.622.607c0,.27-.145.636-.451.636A.813.813,0,0,1,0,.572.548.548,0,0,1,.5,0Z" transform="translate(2.327 4.51)" fill="#fff"/>
              </g>
            </g>
          </g>
          <path id="Path_9579" data-name="Path 9579" d="M8.216,0a5.444,5.444,0,0,1,.556.031c3.97.446,9.555,5.605,9.137,11.82-.348,5.176-2.668,11.221-8.06,11.221-.147,0-.3,0-.449-.014C4.24,22.73.023,17.243,0,10.825A12.05,12.05,0,0,1,3.352,2.289,7.031,7.031,0,0,1,8.216,0ZM9.849,22.239c4.818,0,6.906-5.626,7.23-10.445C17.46,6.135,12.246,1.258,8.679.858A4.151,4.151,0,0,0,8.216.832,6.216,6.216,0,0,0,3.941,2.876,11.369,11.369,0,0,0,.832,10.822c.022,5.989,3.889,11.105,8.621,11.4C9.586,22.235,9.719,22.239,9.849,22.239Z" transform="translate(62.322 22.177) rotate(164)" fill="#060606"/>
          <path id="Path_24190-2" data-name="Path 24190" d="M11.576,25.116h0a11.5,11.5,0,0,1-8.042-3.658A11.7,11.7,0,0,1,0,13.187C.084,9.466,1.415.734,11.98.031c.308-.02.607-.031.9-.031a10.433,10.433,0,0,1,7.727,3.19,14.38,14.38,0,0,1,3.622,10.275c-.248,5.986-4.984,10.747-11.518,11.579A9.029,9.029,0,0,1,11.576,25.116ZM12.882.832c-.277,0-.559.009-.847.029C2.156,1.519.911,9.713.834,13.205a10.871,10.871,0,0,0,3.294,7.671,10.67,10.67,0,0,0,7.447,3.408h0a8.141,8.141,0,0,0,1.032-.065C18.731,23.439,23.169,19,23.4,13.431a13.523,13.523,0,0,0-3.391-9.665A9.5,9.5,0,0,0,12.882.832Z" transform="matrix(0.999, -0.035, 0.035, 0.999, 2.323, 3.648)" fill="#060606"/>
          <path id="Path_24292" data-name="Path 24292" d="M8.216,0a5.444,5.444,0,0,1,.556.031c3.97.446,9.555,5.605,9.137,11.82-.348,5.176-2.668,11.221-8.06,11.221-.147,0-.3,0-.449-.014C4.24,22.73.023,17.243,0,10.825A12.05,12.05,0,0,1,3.352,2.289,7.031,7.031,0,0,1,8.216,0ZM9.849,22.239c4.818,0,6.906-5.626,7.23-10.445C17.46,6.135,12.246,1.258,8.679.858A4.151,4.151,0,0,0,8.216.832,6.216,6.216,0,0,0,3.941,2.876,11.369,11.369,0,0,0,.832,10.822c.022,5.989,3.889,11.105,8.621,11.4C9.586,22.235,9.719,22.239,9.849,22.239Z" transform="translate(62.322 22.177) rotate(164)" fill="#060606"/>
          <g id="Mask_Group_46" data-name="Mask Group 46" transform="translate(5.919 3.974) rotate(7)" clip-path="url(#clip-path-4)">
            <g id="Mask_Group_44" data-name="Mask Group 44" transform="translate(3.693 -3.707) rotate(14)" clip-path="url(#clip-path-5)">
              <g id="Group_7774" data-name="Group 7774" transform="matrix(0.788, 0.616, -0.616, 0.788, 9.679, 0.383)">
                <path id="Path_8760" data-name="Path 8760" d="M7.328,0c3.143,0,6.961,1.48,8.225,5.637s-1.378,9.495-6.069,10.355S.581,14.238.043,9.57,4.185,0,7.328,0Z" transform="translate(0 0)" fill="#6a9dca"/>
                <path id="Path_8761" data-name="Path 8761" d="M6.61,0a8.3,8.3,0,0,1,7.97,4.916c.089.216-.908,6.364-6.331,7.58S-.531,6.758.069,5.44C1.448,2.409,4.407,0,6.61,0Z" transform="translate(0.718 0)" fill="#060606"/>
                <path id="Path_8762" data-name="Path 8762" d="M2.541,0A3.044,3.044,0,0,1,5.2,2.8,2.783,2.783,0,0,1,2.541,5.336,2.671,2.671,0,0,1,0,2.8,2.934,2.934,0,0,1,2.541,0Z" transform="translate(4.139 2.212) rotate(-14)" fill="#fff"/>
                <path id="Path_8763" data-name="Path 8763" d="M.6,0a.829.829,0,0,1,.742.724c0,.321-.173.757-.538.757a.968.968,0,0,1-.8-.8A.653.653,0,0,1,.6,0Z" transform="translate(2.773 5.375)" fill="#fff"/>
              </g>
            </g>
          </g>
          <path id="Path_24293" data-name="Path 24293" d="M1.5,16.011l-.209-.4A10.8,10.8,0,0,1,0,10.412,15.787,15.787,0,0,1,1.681,3.387l.063-.118.12-.059a34.67,34.67,0,0,1,9.974-3.1A19.542,19.542,0,0,1,13.968,0a24.5,24.5,0,0,1,7.163,1.1l.117.04.076.1a14.716,14.716,0,0,1,2.907,9.454,11.737,11.737,0,0,1-.24,1.939c-.031.146-.165.485-.744.485h0a10.693,10.693,0,0,1-2.073-.413,27.865,27.865,0,0,0-6.767-1.051,14.568,14.568,0,0,0-1.889.119,31.1,31.1,0,0,0-10.638,4ZM2.353,3.9A15.053,15.053,0,0,0,.834,10.43a9.833,9.833,0,0,0,1,4.4,30.924,30.924,0,0,1,10.58-3.888,15.427,15.427,0,0,1,2-.126,28.572,28.572,0,0,1,6.971,1.076,12.283,12.283,0,0,0,1.834.387,10.99,10.99,0,0,0,.187-1.625,13.9,13.9,0,0,0-2.652-8.806A24.347,24.347,0,0,0,13.968.832a18.683,18.683,0,0,0-2.04.109A34.1,34.1,0,0,0,2.353,3.9Z" transform="matrix(0.999, -0.035, 0.035, 0.999, 2.42, 6.422)" fill="#060606"/>
          <g id="Group_7207" data-name="Group 7207" transform="translate(2.464 15.519) rotate(10)">
            <path id="Path_8184" data-name="Path 8184" d="M2.891,0S-.893,4.208.2,6.749s3.8,2.294,4.656,0S2.891,0,2.891,0Z" transform="translate(0.415 5.209)" fill="#84d1ed"/>
            <path id="Path_8184_-_Outline" data-name="Path 8184 - Outline" d="M3.3,0h.035a.415.415,0,0,1,.317.192c.119.189,2.916,4.657,2,7.117A2.942,2.942,0,0,1,2.956,9.4,3.054,3.054,0,0,1,.228,7.329C-.953,4.575,2.833.318,3,.138A.416.416,0,0,1,3.3,0ZM2.956,8.564A2.134,2.134,0,0,0,4.876,7.02c.569-1.526-.79-4.424-1.631-5.893C2.125,2.508.272,5.323.992,7A2.228,2.228,0,0,0,2.956,8.564Z" transform="translate(0.002 4.793)" fill="#4cbee8"/>
            <path id="Path_8185" data-name="Path 8185" d="M2.237,0a11.407,11.407,0,0,1-.25,4.144A2.152,2.152,0,0,1,0,5.462s2.285,1.923,3.216-.578S2.237,0,2.237,0Z" transform="translate(1.766 7.46)" fill="#fff"/>
            <path id="Path_8186" data-name="Path 8186" d="M9.72,0a.44.44,0,0,1,.456.308S9.807.5,9.568.647C9.009.991,7.234,2.083,7.1,2.175c-.512.371-1.493,1.1-2.255,1.751a6.641,6.641,0,0,0-.911.917c-.145.237-.14.365-.128.391.828,1.408,2.617,4.819,1.852,6.87a2.942,2.942,0,0,1-2.7,2.085A3.054,3.054,0,0,1,.23,12.122c-.984-2.293,1.446-5.6,2.439-6.8a1.1,1.1,0,0,1,.287-1.189,5.34,5.34,0,0,0,.454-.691A4.031,4.031,0,0,1,4.83,1.855a4.026,4.026,0,0,1,1.184-.478A13.189,13.189,0,0,0,7.893.829,14.929,14.929,0,0,1,9.72,0ZM2.958,13.357a2.134,2.134,0,0,0,1.92-1.544c.5-1.35-.489-3.882-1.631-5.888C1.762,7.751.349,10.29.994,11.795A2.228,2.228,0,0,0,2.958,13.357Z" transform="translate(0 0)" fill="#4cbee8"/>
          </g>
          <path id="Path_24300" data-name="Path 24300" d="M4.284,0l.271.376a17.5,17.5,0,0,0,5.419,4.7,24.519,24.519,0,0,0,7.325,2.1l.294.032.067.288a9.93,9.93,0,0,1,.249,2.921c-.247,3.665-1.375,6.9-3.1,8.864a1.946,1.946,0,0,1-1.517.466A16.3,16.3,0,0,1,7.462,18.2,27.069,27.069,0,0,1,.617,13.341l-.08-.079L.442,12.9A14.6,14.6,0,0,1,0,9.391,12.621,12.621,0,0,1,3.94.309ZM16.911,7.967A24.63,24.63,0,0,1,9.6,5.819,17.847,17.847,0,0,1,4.168,1.238,11.824,11.824,0,0,0,.832,9.388,13.774,13.774,0,0,0,1.249,12.7l.033.126A26.37,26.37,0,0,0,7.8,17.437a15.722,15.722,0,0,0,5.5,1.478c.578,0,.832-.114.891-.181,1.6-1.834,2.657-4.886,2.892-8.373A8.868,8.868,0,0,0,16.911,7.967Z" transform="translate(61.927 20.799) rotate(164)" fill="#060606"/>
        </g>
        <g id="Group_7042" data-name="Group 7042" transform="translate(60.464 38.066) rotate(28)">
          <path id="Path_8788" data-name="Path 8788" d="M.045,2.151a4.094,4.094,0,0,0,.772,3.1c1.1,1.263,2.455,2.295,3.644,1.9,1.208-.406,1.557-2.435,1.115-4.031A8.269,8.269,0,0,0,3.405,0,7.984,7.984,0,0,1,1.87,1.357,7.25,7.25,0,0,1,.045,2.151Z" transform="translate(0.426 0.416)" fill="#060606"/>
          <path id="Path_8788_-_Outline" data-name="Path 8788 - Outline" d="M3.822,0A.416.416,0,0,1,4.1.106a8.588,8.588,0,0,1,2.293,3.31c.5,1.8.061,4.052-1.383,4.536a2.106,2.106,0,0,1-.672.109C3.3,8.061,2.147,7.346.92,5.936A4.486,4.486,0,0,1,.053,2.494a.416.416,0,0,1,.3-.329,6.888,6.888,0,0,0,1.705-.742A7.566,7.566,0,0,0,3.5.147.416.416,0,0,1,3.794,0Zm.515,7.23a1.274,1.274,0,0,0,.408-.066c.954-.32,1.234-2.126.846-3.526A7.085,7.085,0,0,0,3.839,1.011,7.868,7.868,0,0,1,2.51,2.123a7.459,7.459,0,0,1-1.666.764,3.531,3.531,0,0,0,.7,2.5C2.58,6.576,3.57,7.23,4.337,7.23Z" transform="translate(0.009 0)" fill="#060606"/>
          <path id="Path_7622" data-name="Path 7622" d="M1.427,2.186a3.182,3.182,0,0,1-.577-.053A2.783,2.783,0,0,1,0,1.842l.212-.358h0a2.435,2.435,0,0,0,.731.244,2.745,2.745,0,0,0,.781.027,2.889,2.889,0,0,0,.951-.279A2.715,2.715,0,0,0,3.818.565a.675.675,0,0,0,.11-.331A.208.208,0,0,1,4.108,0l.026,0A.208.208,0,0,1,4.34.182a1.007,1.007,0,0,1-.163.591,2.073,2.073,0,0,1-.446.52,4.058,4.058,0,0,1-.875.556,3.3,3.3,0,0,1-1.1.319A3.175,3.175,0,0,1,1.427,2.186Z" transform="translate(2.888 7.086)" fill="#060606"/>
          <path id="Path_7565" data-name="Path 7565" d="M0,1.2S.708,3.45,2.465,2.852,3.159,0,3.159,0A5.962,5.962,0,0,1,1.765.782,10.089,10.089,0,0,1,0,1.2Z" transform="matrix(0.978, -0.208, 0.208, 0.978, 0.493, 1.366)" fill="#fff"/>
          <path id="Path_7565_-_Outline" data-name="Path 7565 - Outline" d="M3.576,0a.417.417,0,0,1,.377.238,3.41,3.41,0,0,1,.2,2.418A1.789,1.789,0,0,1,3.015,3.662a2.2,2.2,0,0,1-.709.123C.681,3.785.046,1.822.019,1.738A.416.416,0,0,1,.359,1.2,9.73,9.73,0,0,0,2.037.807,5.585,5.585,0,0,0,3.32.088.417.417,0,0,1,3.576,0ZM2.306,2.953a1.377,1.377,0,0,0,.441-.079.979.979,0,0,0,.635-.541,2.06,2.06,0,0,0-.016-1.27,5.817,5.817,0,0,1-1.042.524,8.792,8.792,0,0,1-1.317.347A1.63,1.63,0,0,0,2.306,2.953Z" transform="matrix(0.978, -0.208, 0.208, 0.978, 0, 1.045)" fill="#060606"/>
          <path id="Path_7566" data-name="Path 7566" d="M0,.343A1.929,1.929,0,0,1,1.828.129a2.213,2.213,0,0,1,1.3,1.7,1.782,1.782,0,0,1-1.641.279A4.693,4.693,0,0,1,0,.343Z" transform="matrix(0.883, -0.469, 0.469, 0.883, 2.132, 6.318)" fill="#d8514a"/>
          <path id="Path_7662" data-name="Path 7662" d="M3.822,0A.416.416,0,0,1,4.1.106a8.588,8.588,0,0,1,2.293,3.31c.5,1.8.061,4.052-1.383,4.536a2.106,2.106,0,0,1-.672.109C3.3,8.061,2.147,7.346.92,5.936A4.486,4.486,0,0,1,.053,2.494a.416.416,0,0,1,.3-.329,6.888,6.888,0,0,0,1.705-.742A7.566,7.566,0,0,0,3.5.147.416.416,0,0,1,3.794,0Zm.515,7.23a1.274,1.274,0,0,0,.408-.066c.954-.32,1.234-2.126.846-3.526A7.085,7.085,0,0,0,3.839,1.011,7.868,7.868,0,0,1,2.51,2.123a7.459,7.459,0,0,1-1.666.764,3.531,3.531,0,0,0,.7,2.5C2.58,6.576,3.57,7.23,4.337,7.23Z" transform="translate(0.009 0)" fill="#060606"/>
        </g>
      </g>
    </g>
  </g>
</svg>
