<svg xmlns="http://www.w3.org/2000/svg" width="40.01" height="48.113" viewBox="0 0 40.01 48.113">
  <g id="Group_13961" data-name="Group 13961" transform="translate(-935.992 -5438.047)">
    <g id="Group_13960" data-name="Group 13960" transform="translate(940 5442.047)">
      <path id="Path_7559" data-name="Path 7559" d="M0,4.241s2.053,1.737,3.044.971c.855-.662.919-3.188.921-3.881A16.1,16.1,0,0,0,3.044,0" transform="matrix(0.996, -0.087, 0.087, 0.996, 22.62, 31.279)" fill="#060606" stroke="#fff" stroke-linecap="round" stroke-width="8"/>
      <path id="Path_7555" data-name="Path 7555" d="M-19156.768,4777.219s3.295,2.327,3.191,3.639-3.064,1.125-3.064,1.125" transform="translate(19185.574 -4757.44)" fill="#060606" stroke="#fff" stroke-linecap="round" stroke-width="8"/>
      <path id="Path_7558" data-name="Path 7558" d="M-19818.811,5177.822a7.615,7.615,0,0,0-.377,2.878,3.955,3.955,0,0,0,1.373,2.79c.98.657,2.654.07,3.67-.623a2.872,2.872,0,0,0,1.023-1.141" transform="translate(19824.992 -5143.776)" fill="#060606" stroke="#fff" stroke-linecap="round" stroke-width="8"/>
      <path id="Subtraction_4" data-name="Subtraction 4" d="M12.866,38.357h0a13.886,13.886,0,0,1-1.877-.126,12.92,12.92,0,0,1-1.755-.364,12.372,12.372,0,0,1-1.625-.584A12.142,12.142,0,0,1,6.119,36.5,12.338,12.338,0,0,1,3.58,34.409,13.112,13.112,0,0,1,1.67,31.75,8.337,8.337,0,0,1,1,30.022a9.553,9.553,0,0,1-.214-1.151c-.037-.3-.048-.495-.048-.5a.523.523,0,0,1-.262.11.146.146,0,0,1-.121-.056.368.368,0,0,1-.06-.214,2.527,2.527,0,0,1,.046-.491c.029-.175.071-.376.123-.6.082-.348.162-.637.185-.717v0h0a1.535,1.535,0,0,1-.149.161.519.519,0,0,1-.292.161.144.144,0,0,1-.113-.054c-.107-.126-.123-.471-.047-1.026.059-.427.181-1.041.361-1.824.142-.616.325-1.357.546-2.2.256-.981.5-1.869.624-2.312a4.265,4.265,0,0,0,.222.587,3.5,3.5,0,0,0,.389.648,3.35,3.35,0,0,0,.495.509,4.94,4.94,0,0,0,.553.4A2.4,2.4,0,0,0,4,21.812a.039.039,0,0,0,.022,0,.015.015,0,0,0,.006-.011c0-.05-.176-.216-.425-.446h0a11.435,11.435,0,0,1-1.045-1.061,7.046,7.046,0,0,1-.728-1.106c-.182-.334-.308-.61-.354-.713l-.071-.2c-.142-.4-.356-1.038-.566-1.766A22.794,22.794,0,0,1,.3,14.237a10.023,10.023,0,0,1-.187-2.213c.017-.342.049-.7.1-1.053.049-.374.115-.756.2-1.133A13.216,13.216,0,0,1,1.15,7.468,10.714,10.714,0,0,1,2.448,5.2a9.133,9.133,0,0,1,.888-1.013A8.439,8.439,0,0,1,4.4,3.3c.268-.188.57-.377.9-.564s.679-.37,1.055-.55A21.1,21.1,0,0,1,8.831,1.2h0a2.65,2.65,0,0,1-.256-.134A1.08,1.08,0,0,1,8.4.936C8.348.888,8.323.846,8.325.812s.043-.073.12-.095A3.159,3.159,0,0,1,9.164.664c.573,0,1.259.048,1.336.053h0a2.256,2.256,0,0,1-.276-.142.934.934,0,0,1-.183-.14A.185.185,0,0,1,9.973.282c.013-.071.1-.13.261-.173a4.1,4.1,0,0,1,.873-.1C11.4,0,11.7,0,12.012,0c.593,0,1.191.015,1.778.046.668.035,1.307.089,1.9.16a16.936,16.936,0,0,1,1.8.306A7.371,7.371,0,0,1,18.957,1a7.319,7.319,0,0,1,1.454.927A8.787,8.787,0,0,1,21.642,3.15a9.816,9.816,0,0,1,.976,1.42c.144.255.278.518.4.782a4.345,4.345,0,0,0-.814-.078,4.019,4.019,0,0,0-.977.118,3.347,3.347,0,0,0-.852.338,2.356,2.356,0,0,0-1.053,1.586,4.478,4.478,0,0,0-.109,1.011,5.564,5.564,0,0,0,1.731,4.094,5.962,5.962,0,0,0,.986.768,4.131,4.131,0,0,0,2.1.682,1.989,1.989,0,0,0,1.1-.3,2.6,2.6,0,0,0,.431-.356c.06.157.119.317.175.474a19.049,19.049,0,0,1,.616,2.151c.094.421.176.852.244,1.28.073.462.132.94.176,1.419.107,1.183.168,2.39.182,3.589.011,1.025-.012,2.063-.069,3.086-.1,1.763-.278,3.179-.44,4.333a2.548,2.548,0,0,1-.245.876.377.377,0,0,1-.313.229.385.385,0,0,1-.2-.061.847.847,0,0,1-.167-.134,1.416,1.416,0,0,1-.16-.194h0v0c.007.184.009.383.006.56s-.012.336-.026.466a1.537,1.537,0,0,1-.076.377c-.049.126-.125.19-.226.19a.361.361,0,0,1-.175-.053.548.548,0,0,1-.08-.054h0c0,.011-.085.281-.2.575a4.55,4.55,0,0,1-.205.455,1.212,1.212,0,0,1-.232.33.289.289,0,0,1-.193.081.319.319,0,0,1-.166-.052.648.648,0,0,1-.135-.113,1.04,1.04,0,0,1-.124-.164,9.645,9.645,0,0,1-.6.765c-.232.269-.482.537-.743.8-.326.324-.672.637-1.028.93a13.755,13.755,0,0,1-2.876,1.836,12.237,12.237,0,0,1-1.834.692c-.334.1-.675.178-1.012.243-.354.069-.715.121-1.075.157C13.858,38.332,13.357,38.357,12.866,38.357ZM5.792,22.711h0a3.081,3.081,0,0,0-.623.729A7.273,7.273,0,0,0,4.3,25.015a5.186,5.186,0,0,0-.286,1.007,1.779,1.779,0,0,0,.114,1.012,1.9,1.9,0,0,0,.571.7,4.291,4.291,0,0,0,1.161.617,2.92,2.92,0,0,0,.869.137,2.178,2.178,0,0,0,.791-.138,1.437,1.437,0,0,0,.608-.432,15.04,15.04,0,0,0,1.442-1.988,1.48,1.48,0,0,0,.2-.729.01.01,0,0,0-.008-.006h0a.921.921,0,0,0-.175.229A6.781,6.781,0,0,1,9.171,26c-.117.141-.237.289-.364.445v0h0l0,0a10.861,10.861,0,0,1-1.065,1.2,1.585,1.585,0,0,1-1.071.363,2.346,2.346,0,0,1-.649-.093,3.321,3.321,0,0,1-1.031-.558,1.244,1.244,0,0,1-.416-.632,2.646,2.646,0,0,1,.213-1.443v0c.029-.088.059-.179.088-.271a13.685,13.685,0,0,1,.676-1.64v0a2.1,2.1,0,0,0,.256-.654.016.016,0,0,0-.014-.008ZM10.34,6.81a4.17,4.17,0,0,0-.888.1,4.552,4.552,0,0,0-.842.274,4.957,4.957,0,0,0-.777.428,5.267,5.267,0,0,0-.693.558,5.34,5.34,0,0,0-.588.664,5.132,5.132,0,0,0-.464.746,4.667,4.667,0,0,0-.319.8,4.2,4.2,0,0,0-.155.839,5.391,5.391,0,0,0,.14,1.756,4.431,4.431,0,0,0,.726,1.545,4.52,4.52,0,0,0,1.345,1.2,5.552,5.552,0,0,0,.916.433,6.926,6.926,0,0,0,1.083.3,5.114,5.114,0,0,0,.966.1,3.743,3.743,0,0,0,1.64-.357,3.57,3.57,0,0,0,1.2-.948,4.59,4.59,0,0,0,.765-1.353,5.629,5.629,0,0,0,.222-.77,6.126,6.126,0,0,0,.116-.8A5.765,5.765,0,0,0,13.845,8.8a4.877,4.877,0,0,0-.564-.714,4.347,4.347,0,0,0-.689-.585,3.967,3.967,0,0,0-1.734-.658,4.045,4.045,0,0,0-.518-.033Zm7.628,3.61a1.575,1.575,0,0,0-.417.055.965.965,0,0,0-.374.2.8.8,0,0,0-.216.3.428.428,0,0,0,0,.373.48.48,0,0,0,.271.2,1.341,1.341,0,0,0,.438.067,1.691,1.691,0,0,0,.527-.082,1.27,1.27,0,0,0,.4-.217.693.693,0,0,0,.222-.291.321.321,0,0,0-.023-.285.619.619,0,0,0-.324-.23A1.514,1.514,0,0,0,17.968,10.42Z" transform="translate(2.096 0)" fill="#060606" stroke="#fff" stroke-linejoin="round" stroke-width="8"/>
      <path id="Path_7547" data-name="Path 7547" d="M-19962.691,4502.061c-.52-.495-4.377-.693-4.109,2.7s3.854,2.7,4.559,2.663" transform="translate(19966.814 -4492.072)" fill="#060606" stroke="#fff" stroke-linecap="round" stroke-width="8"/>
      <g id="Group_6948" data-name="Group 6948" transform="translate(20.818 4.993)">
        <path id="Path_7556" data-name="Path 7556" d="M-19376.566,4372.288a4.967,4.967,0,0,1,4.205,2.379,4.923,4.923,0,0,1-1.047,6.474,2.359,2.359,0,0,1-1.287.348,5.7,5.7,0,0,1-4.244-2.563,5.866,5.866,0,0,1-.865-4.367,2.636,2.636,0,0,1,1.221-1.776A4.127,4.127,0,0,1-19376.566,4372.288Zm1.871,8.616a1.788,1.788,0,0,0,.973-.257,4.366,4.366,0,0,0,.865-5.668,4.388,4.388,0,0,0-3.709-2.1,3.6,3.6,0,0,0-1.732.42,2.129,2.129,0,0,0-.939,1.4,5.273,5.273,0,0,0,.785,3.9A5.079,5.079,0,0,0-19374.7,4380.9Z" transform="translate(19379.926 -4372.288)" fill="#060606" stroke="#fff" stroke-width="8"/>
      </g>
    </g>
    <g id="Group_13959" data-name="Group 13959" transform="translate(940 5442.047)">
      <path id="Path_23733" data-name="Path 23733" d="M-19747.6,4422.314c2.678.339,4.166,3.059,3.971,5.489s-1.838,4.746-5.031,4.143-4.51-2.816-4.314-5.247A5.011,5.011,0,0,1-19747.6,4422.314Z" transform="translate(19760.594 -4415.474)" fill="#fff"/>
      <path id="Path_23734" data-name="Path 23734" d="M-19747.6,4422.314c2.678.339,4.166,3.059,3.971,5.489s-1.838,4.746-5.031,4.143-4.51-2.816-4.314-5.247A5.011,5.011,0,0,1-19747.6,4422.314Z" transform="translate(19773.771 -4417.86)" fill="#fff"/>
      <g id="Group_6956" data-name="Group 6956" transform="translate(0 0)">
        <path id="Path_7559-2" data-name="Path 7559" d="M0,4.241s2.053,1.737,3.044.971c.855-.662.919-3.188.921-3.881A16.1,16.1,0,0,0,3.044,0" transform="matrix(0.996, -0.087, 0.087, 0.996, 22.62, 31.279)" fill="#33343e"/>
        <path id="Path_7555-2" data-name="Path 7555" d="M-19156.768,4777.219s3.295,2.327,3.191,3.639-3.064,1.125-3.064,1.125" transform="translate(19185.574 -4757.44)" fill="#33343e"/>
        <path id="Path_7558-2" data-name="Path 7558" d="M-19818.811,5177.822a7.615,7.615,0,0,0-.377,2.878,3.955,3.955,0,0,0,1.373,2.79c.98.657,2.654.07,3.67-.623a2.872,2.872,0,0,0,1.023-1.141" transform="translate(19824.992 -5143.776)" fill="#33343e"/>
        <path id="Subtraction_4-2" data-name="Subtraction 4" d="M12.866,38.357h0a13.886,13.886,0,0,1-1.877-.126,12.92,12.92,0,0,1-1.755-.364,12.372,12.372,0,0,1-1.625-.584A12.142,12.142,0,0,1,6.119,36.5,12.338,12.338,0,0,1,3.58,34.409,13.112,13.112,0,0,1,1.67,31.75,8.337,8.337,0,0,1,1,30.022a9.553,9.553,0,0,1-.214-1.151c-.037-.3-.048-.495-.048-.5a.523.523,0,0,1-.262.11.146.146,0,0,1-.121-.056.368.368,0,0,1-.06-.214,2.527,2.527,0,0,1,.046-.491c.029-.175.071-.376.123-.6.082-.348.162-.637.185-.717v0h0a1.535,1.535,0,0,1-.149.161.519.519,0,0,1-.292.161.144.144,0,0,1-.113-.054c-.107-.126-.123-.471-.047-1.026.059-.427.181-1.041.361-1.824.142-.616.325-1.357.546-2.2.256-.981.5-1.869.624-2.312a4.265,4.265,0,0,0,.222.587,3.5,3.5,0,0,0,.389.648,3.35,3.35,0,0,0,.495.509,4.94,4.94,0,0,0,.553.4A2.4,2.4,0,0,0,4,21.812a.039.039,0,0,0,.022,0,.015.015,0,0,0,.006-.011c0-.05-.176-.216-.425-.446h0a11.435,11.435,0,0,1-1.045-1.061,7.046,7.046,0,0,1-.728-1.106c-.182-.334-.308-.61-.354-.713l-.071-.2c-.142-.4-.356-1.038-.566-1.766A22.794,22.794,0,0,1,.3,14.237a10.023,10.023,0,0,1-.187-2.213c.017-.342.049-.7.1-1.053.049-.374.115-.756.2-1.133A13.216,13.216,0,0,1,1.15,7.468,10.714,10.714,0,0,1,2.448,5.2a9.133,9.133,0,0,1,.888-1.013A8.439,8.439,0,0,1,4.4,3.3c.268-.188.57-.377.9-.564s.679-.37,1.055-.55A21.1,21.1,0,0,1,8.831,1.2h0a2.65,2.65,0,0,1-.256-.134A1.08,1.08,0,0,1,8.4.936C8.348.888,8.323.846,8.325.812s.043-.073.12-.095A3.159,3.159,0,0,1,9.164.664c.573,0,1.259.048,1.336.053h0a2.256,2.256,0,0,1-.276-.142.934.934,0,0,1-.183-.14A.185.185,0,0,1,9.973.282c.013-.071.1-.13.261-.173a4.1,4.1,0,0,1,.873-.1C11.4,0,11.7,0,12.012,0c.593,0,1.191.015,1.778.046.668.035,1.307.089,1.9.16a16.936,16.936,0,0,1,1.8.306A7.371,7.371,0,0,1,18.957,1a7.319,7.319,0,0,1,1.454.927A8.787,8.787,0,0,1,21.642,3.15a9.816,9.816,0,0,1,.976,1.42c.144.255.278.518.4.782a4.345,4.345,0,0,0-.814-.078,4.019,4.019,0,0,0-.977.118,3.347,3.347,0,0,0-.852.338,2.356,2.356,0,0,0-1.053,1.586,4.478,4.478,0,0,0-.109,1.011,5.564,5.564,0,0,0,1.731,4.094,5.962,5.962,0,0,0,.986.768,4.131,4.131,0,0,0,2.1.682,1.989,1.989,0,0,0,1.1-.3,2.6,2.6,0,0,0,.431-.356c.06.157.119.317.175.474a19.049,19.049,0,0,1,.616,2.151c.094.421.176.852.244,1.28.073.462.132.94.176,1.419.107,1.183.168,2.39.182,3.589.011,1.025-.012,2.063-.069,3.086-.1,1.763-.278,3.179-.44,4.333a2.548,2.548,0,0,1-.245.876.377.377,0,0,1-.313.229.385.385,0,0,1-.2-.061.847.847,0,0,1-.167-.134,1.416,1.416,0,0,1-.16-.194h0v0c.007.184.009.383.006.56s-.012.336-.026.466a1.537,1.537,0,0,1-.076.377c-.049.126-.125.19-.226.19a.361.361,0,0,1-.175-.053.548.548,0,0,1-.08-.054h0c0,.011-.085.281-.2.575a4.55,4.55,0,0,1-.205.455,1.212,1.212,0,0,1-.232.33.289.289,0,0,1-.193.081.319.319,0,0,1-.166-.052.648.648,0,0,1-.135-.113,1.04,1.04,0,0,1-.124-.164,9.645,9.645,0,0,1-.6.765c-.232.269-.482.537-.743.8-.326.324-.672.637-1.028.93a13.755,13.755,0,0,1-2.876,1.836,12.237,12.237,0,0,1-1.834.692c-.334.1-.675.178-1.012.243-.354.069-.715.121-1.075.157C13.858,38.332,13.357,38.357,12.866,38.357ZM5.792,22.711h0a3.081,3.081,0,0,0-.623.729A7.273,7.273,0,0,0,4.3,25.015a5.186,5.186,0,0,0-.286,1.007,1.779,1.779,0,0,0,.114,1.012,1.9,1.9,0,0,0,.571.7,4.291,4.291,0,0,0,1.161.617,2.92,2.92,0,0,0,.869.137,2.178,2.178,0,0,0,.791-.138,1.437,1.437,0,0,0,.608-.432,15.04,15.04,0,0,0,1.442-1.988,1.48,1.48,0,0,0,.2-.729.01.01,0,0,0-.008-.006h0a.921.921,0,0,0-.175.229A6.781,6.781,0,0,1,9.171,26c-.117.141-.237.289-.364.445v0h0l0,0a10.861,10.861,0,0,1-1.065,1.2,1.585,1.585,0,0,1-1.071.363,2.346,2.346,0,0,1-.649-.093,3.321,3.321,0,0,1-1.031-.558,1.244,1.244,0,0,1-.416-.632,2.646,2.646,0,0,1,.213-1.443v0c.029-.088.059-.179.088-.271a13.685,13.685,0,0,1,.676-1.64v0a2.1,2.1,0,0,0,.256-.654.016.016,0,0,0-.014-.008ZM10.34,6.81a4.17,4.17,0,0,0-.888.1,4.552,4.552,0,0,0-.842.274,4.957,4.957,0,0,0-.777.428,5.267,5.267,0,0,0-.693.558,5.34,5.34,0,0,0-.588.664,5.132,5.132,0,0,0-.464.746,4.667,4.667,0,0,0-.319.8,4.2,4.2,0,0,0-.155.839,5.391,5.391,0,0,0,.14,1.756,4.431,4.431,0,0,0,.726,1.545,4.52,4.52,0,0,0,1.345,1.2,5.552,5.552,0,0,0,.916.433,6.926,6.926,0,0,0,1.083.3,5.114,5.114,0,0,0,.966.1,3.743,3.743,0,0,0,1.64-.357,3.57,3.57,0,0,0,1.2-.948,4.59,4.59,0,0,0,.765-1.353,5.629,5.629,0,0,0,.222-.77,6.126,6.126,0,0,0,.116-.8A5.765,5.765,0,0,0,13.845,8.8a4.877,4.877,0,0,0-.564-.714,4.347,4.347,0,0,0-.689-.585,3.967,3.967,0,0,0-1.734-.658,4.045,4.045,0,0,0-.518-.033Zm7.628,3.61a1.575,1.575,0,0,0-.417.055.965.965,0,0,0-.374.2.8.8,0,0,0-.216.3.428.428,0,0,0,0,.373.48.48,0,0,0,.271.2,1.341,1.341,0,0,0,.438.067,1.691,1.691,0,0,0,.527-.082,1.27,1.27,0,0,0,.4-.217.693.693,0,0,0,.222-.291.321.321,0,0,0-.023-.285.619.619,0,0,0-.324-.23A1.514,1.514,0,0,0,17.968,10.42Z" transform="translate(2.096 0)" fill="#33343e"/>
        <path id="Path_7547-2" data-name="Path 7547" d="M-19962.691,4502.061c-.52-.495-4.377-.693-4.109,2.7s3.854,2.7,4.559,2.663" transform="translate(19966.814 -4492.072)" fill="#33343e"/>
        <g id="Group_6948-2" data-name="Group 6948" transform="translate(20.818 4.993)">
          <path id="Path_7556-2" data-name="Path 7556" d="M-19376.566,4372.288a4.967,4.967,0,0,1,4.205,2.379,4.923,4.923,0,0,1-1.047,6.474,2.359,2.359,0,0,1-1.287.348,5.7,5.7,0,0,1-4.244-2.563,5.866,5.866,0,0,1-.865-4.367,2.636,2.636,0,0,1,1.221-1.776A4.127,4.127,0,0,1-19376.566,4372.288Zm1.871,8.616a1.788,1.788,0,0,0,.973-.257,4.366,4.366,0,0,0,.865-5.668,4.388,4.388,0,0,0-3.709-2.1,3.6,3.6,0,0,0-1.732.42,2.129,2.129,0,0,0-.939,1.4,5.273,5.273,0,0,0,.785,3.9A5.079,5.079,0,0,0-19374.7,4380.9Z" transform="translate(19379.926 -4372.288)" fill="#33343e"/>
        </g>
      </g>
    </g>
  </g>
</svg>
