<svg xmlns="http://www.w3.org/2000/svg" xmlns:xlink="http://www.w3.org/1999/xlink" width="111.603" height="66.333" viewBox="0 0 111.603 66.333">
  <defs>
    <filter id="Union_1" x="0" y="0" width="111.603" height="66.333" filterUnits="userSpaceOnUse">
      <feOffset dy="4" input="SourceAlpha"/>
      <feGaussianBlur stdDeviation="2" result="blur"/>
      <feFlood flood-opacity="0.161"/>
      <feComposite operator="in" in2="blur"/>
      <feComposite in="SourceGraphic"/>
    </filter>
  </defs>
  <g id="Group_14652" data-name="Group 14652" transform="translate(-211.111 -546.132)">
    <g id="Group_7846" data-name="Group 7846" transform="translate(226.003 594.28)">
      <path id="Path_8811" data-name="Path 8811" d="M6.544-103.949a3.131,3.131,0,0,1-1.425.226,1.893,1.893,0,0,1-.977-.391,1.991,1.991,0,0,1-.589-.81,3.613,3.613,0,0,1-.252-1.031,5.849,5.849,0,0,1-.02-1.083q.04-.537.151-1.168v-.019q.06-.179.126-.363a2.014,2.014,0,0,1,.166-.353,1.729,1.729,0,0,1,.247-.32,1.434,1.434,0,0,1,.358-.264,2.666,2.666,0,0,1,.876-.287,2.471,2.471,0,0,1,.947.042,2.376,2.376,0,0,1,.554.306,2.1,2.1,0,0,1,.463.476v.009a3.883,3.883,0,0,1,.322.81,5.256,5.256,0,0,1,.176.97,6.487,6.487,0,0,1,.01,1.022,4.236,4.236,0,0,1-.171.956,2.782,2.782,0,0,1-.373.782A1.368,1.368,0,0,1,6.544-103.949Zm-.755-1.582a1.722,1.722,0,0,0,.1-.363q.045-.25.071-.546a6.026,6.026,0,0,0,.02-.607,2.632,2.632,0,0,0-.065-.565,1.06,1.06,0,0,0-.181-.41.364.364,0,0,0-.322-.146.4.4,0,0,0-.307.207,1.5,1.5,0,0,0-.176.452,2.887,2.887,0,0,0-.071.542,3.356,3.356,0,0,0,.01.466q.03.217.055.494a1.282,1.282,0,0,0,.156.513.471.471,0,0,0,.353.179A.474.474,0,0,0,5.788-105.531Zm5.55,1.488a.353.353,0,0,1-.091.17.761.761,0,0,1-.176.137,1.152,1.152,0,0,1-.222.1,1.736,1.736,0,0,1-.217.057.593.593,0,0,1-.267,0,.989.989,0,0,1-.277-.108.785.785,0,0,1-.217-.179.336.336,0,0,1-.086-.217q-.01-.575-.02-1.14t-.03-1.14a.6.6,0,0,1-.5-.193.531.531,0,0,1-.1-.4.673.673,0,0,1,.2-.381.467.467,0,0,1,.388-.151q0-.207.015-.471t.055-.542a3.024,3.024,0,0,1,.126-.532,1.428,1.428,0,0,1,.237-.443,1.31,1.31,0,0,1,.468-.339,1.858,1.858,0,0,1,.635-.179.92.92,0,0,1,.559.113.531.531,0,0,1,.232.518.709.709,0,0,1-.091.226,1.051,1.051,0,0,1-.146.179q-.086.085-.176.17t-.181.179a.965.965,0,0,0-.156.443,4.644,4.644,0,0,0-.005.49.886.886,0,0,1,.478.014.545.545,0,0,1,.277.212.559.559,0,0,1,.086.325.724.724,0,0,1-.1.348.829.829,0,0,1-.282.283.9.9,0,0,1-.458.127q0,.565.05,1.163A6.727,6.727,0,0,1,11.338-104.043Zm4.412,0a.353.353,0,0,1-.091.17.761.761,0,0,1-.176.137,1.152,1.152,0,0,1-.222.1,1.737,1.737,0,0,1-.217.057.593.593,0,0,1-.267,0,.989.989,0,0,1-.277-.108.785.785,0,0,1-.217-.179.336.336,0,0,1-.086-.217q-.01-.575-.02-1.14t-.03-1.14a.6.6,0,0,1-.5-.193.531.531,0,0,1-.1-.4.673.673,0,0,1,.2-.381.467.467,0,0,1,.388-.151q0-.207.015-.471t.055-.542a3.024,3.024,0,0,1,.126-.532,1.428,1.428,0,0,1,.237-.443,1.31,1.31,0,0,1,.468-.339,1.858,1.858,0,0,1,.635-.179.92.92,0,0,1,.559.113.531.531,0,0,1,.232.518.709.709,0,0,1-.091.226,1.051,1.051,0,0,1-.146.179q-.086.085-.176.17t-.181.179a.965.965,0,0,0-.156.443,4.643,4.643,0,0,0-.005.49.886.886,0,0,1,.478.014.545.545,0,0,1,.277.212.559.559,0,0,1,.086.325.724.724,0,0,1-.1.348.829.829,0,0,1-.282.283.9.9,0,0,1-.458.127q0,.565.05,1.163A6.727,6.727,0,0,1,15.75-104.043Zm3.425-4.549a1.041,1.041,0,0,1-.69-.151.63.63,0,0,1-.282-.41.514.514,0,0,1,.156-.438.932.932,0,0,1,.624-.245.683.683,0,0,1,.534.137.586.586,0,0,1,.2.391.668.668,0,0,1-.121.438A.666.666,0,0,1,19.175-108.592Zm-.272.5a.572.572,0,0,1,.483.1.853.853,0,0,1,.247.433,2.75,2.75,0,0,1,.081.669q.005.386-.015.815t-.035.866a5.8,5.8,0,0,0,.025.815.6.6,0,0,1-.151.443.753.753,0,0,1-.494.254.7.7,0,0,1-.342-.028.8.8,0,0,1-.272-.155.78.78,0,0,1-.176-.226.375.375,0,0,1-.045-.24,6.886,6.886,0,0,1-.045-.72q-.005-.381,0-.772t.015-.772q.01-.381,0-.73a1.044,1.044,0,0,1,.055-.245.874.874,0,0,1,.131-.245.7.7,0,0,1,.222-.188A.644.644,0,0,1,18.9-108.093Zm6.336,3.5a.6.6,0,0,1-.126.5,1.031,1.031,0,0,1-.413.283,2.039,2.039,0,0,1-.519.122,2.163,2.163,0,0,1-.443.009,4.456,4.456,0,0,1-1.063-.193,1.955,1.955,0,0,1-.715-.4,1.472,1.472,0,0,1-.4-.636,2.878,2.878,0,0,1-.126-.9,1.984,1.984,0,0,1,.191-.876,2.118,2.118,0,0,1,.514-.678,2.379,2.379,0,0,1,.76-.443,2.693,2.693,0,0,1,.932-.16,1.991,1.991,0,0,1,.433.052,1.687,1.687,0,0,1,.433.16,1.086,1.086,0,0,1,.337.278.627.627,0,0,1,.136.4.671.671,0,0,1-.206.49.722.722,0,0,1-.468.226,1.557,1.557,0,0,1-.337-.019q-.176-.028-.353-.047a3.179,3.179,0,0,0-.337-.019.58.58,0,0,0-.282.066.431.431,0,0,0-.186.217,1,1,0,0,0-.055.424.57.57,0,0,0,.181.466.779.779,0,0,0,.413.146,2.554,2.554,0,0,0,.529-.019,2.859,2.859,0,0,1,.534-.024.862.862,0,0,1,.428.132A.549.549,0,0,1,25.238-104.589Zm2.639-4a1.041,1.041,0,0,1-.69-.151.63.63,0,0,1-.282-.41.514.514,0,0,1,.156-.438.932.932,0,0,1,.624-.245.683.683,0,0,1,.534.137.586.586,0,0,1,.2.391.668.668,0,0,1-.121.438A.666.666,0,0,1,27.877-108.592Zm-.272.5a.572.572,0,0,1,.483.1.853.853,0,0,1,.247.433,2.75,2.75,0,0,1,.081.669q.005.386-.015.815t-.035.866a5.8,5.8,0,0,0,.025.815.6.6,0,0,1-.151.443.753.753,0,0,1-.494.254.7.7,0,0,1-.342-.028.8.8,0,0,1-.272-.155.78.78,0,0,1-.176-.226.375.375,0,0,1-.045-.24,6.883,6.883,0,0,1-.045-.72q-.005-.381,0-.772t.015-.772q.01-.381,0-.73a1.043,1.043,0,0,1,.055-.245.874.874,0,0,1,.131-.245.7.7,0,0,1,.222-.188A.644.644,0,0,1,27.605-108.093Zm9.146,4.351a.55.55,0,0,1-.489-.184,1.22,1.22,0,0,1-.237-.509,3.134,3.134,0,0,1-.076-.659q-.005-.353-.005-.645v-2.628q0-.179.005-.386a2.105,2.105,0,0,1,.05-.41,1.686,1.686,0,0,1,.131-.377.871.871,0,0,1,.257-.306.8.8,0,0,1,.448-.038.73.73,0,0,1,.353.188.944.944,0,0,1,.227.363,1.408,1.408,0,0,1,.081.485v1.455q0,.429.005.937t.005,1.121q0,.188-.025.452a2.631,2.631,0,0,1-.1.513,1.237,1.237,0,0,1-.227.433A.522.522,0,0,1,36.751-103.742Z" transform="translate(-3.264 110)" fill="#fff"/>
      <g id="Group_7845" data-name="Group 7845" transform="translate(26.761 1.11)">
        <path id="Path_7559" data-name="Path 7559" d="M0,.563S.273.794.4.692C.518.6.526.269.526.177A2.137,2.137,0,0,0,.4,0" transform="matrix(0.996, -0.087, 0.087, 0.996, 3.077, 4.164)" fill="#fff"/>
        <path id="Path_7555" data-name="Path 7555" d="M-19156.773,4777.22s.439.309.426.483-.406.149-.406.149" transform="translate(19160.689 -4774.587)" fill="#fff"/>
        <path id="Path_7558" data-name="Path 7558" d="M-19819.148,5177.822a.977.977,0,0,0-.047.382.515.515,0,0,0,.182.371c.129.087.354.009.486-.083a.378.378,0,0,0,.137-.152" transform="translate(19819.988 -5173.291)" fill="#fff"/>
        <path id="Subtraction_4" data-name="Subtraction 4" d="M1.751,5.1h0A1.929,1.929,0,0,1,1.5,5.087a1.788,1.788,0,0,1-.239-.048,1.708,1.708,0,0,1-.221-.078,1.663,1.663,0,0,1-.548-.382,1.745,1.745,0,0,1-.26-.354,1.093,1.093,0,0,1-.091-.23,1.248,1.248,0,0,1-.029-.153C.1,3.8.1,3.776.1,3.776h0a.072.072,0,0,1-.036.015.02.02,0,0,1-.016-.007A.048.048,0,0,1,.04,3.754a.329.329,0,0,1,.006-.065c0-.023.01-.05.017-.08.011-.047.023-.088.025-.1h0a.206.206,0,0,1-.02.021.071.071,0,0,1-.04.021.02.02,0,0,1-.015-.007C0,3.532,0,3.486.006,3.412c.008-.057.025-.138.049-.243.02-.083.045-.181.074-.293.034-.129.068-.248.085-.308a.563.563,0,0,0,.03.078A.463.463,0,0,0,.3,2.733.451.451,0,0,0,.365,2.8a.667.667,0,0,0,.075.054.33.33,0,0,0,.1.048h0v0c0-.007-.024-.029-.058-.059h0A1.532,1.532,0,0,1,.349,2.7a.933.933,0,0,1-.1-.147C.224,2.506.206,2.468.2,2.457L.193,2.435h0l0,0C.172,2.377.143,2.293.115,2.2a2.966,2.966,0,0,1-.074-.3A1.3,1.3,0,0,1,.015,1.6c0-.045.007-.093.013-.14s.016-.1.027-.151a1.731,1.731,0,0,1,.1-.315,1.418,1.418,0,0,1,.177-.3A1.227,1.227,0,0,1,.454.557,1.149,1.149,0,0,1,.6.439C.636.414.677.388.721.364S.814.314.865.291A2.915,2.915,0,0,1,1.2.159h0A.36.36,0,0,1,1.167.141.143.143,0,0,1,1.143.125c-.007-.006-.01-.012-.01-.017S1.139.1,1.149.1a.44.44,0,0,1,.1-.007c.079,0,.172.006.182.007h0A.31.31,0,0,1,1.392.076.125.125,0,0,1,1.367.058a.024.024,0,0,1-.009-.02c0-.009.014-.017.036-.023A.572.572,0,0,1,1.512,0l.123,0c.08,0,.162,0,.242.006s.177.012.259.021A2.363,2.363,0,0,1,2.38.068a1.019,1.019,0,0,1,.2.065,1,1,0,0,1,.2.123,1.185,1.185,0,0,1,.168.163,1.312,1.312,0,0,1,.133.189c.02.034.038.069.054.1A.6.6,0,0,0,3.022.7a.559.559,0,0,0-.133.016.462.462,0,0,0-.116.045A.313.313,0,0,0,2.63.974a.583.583,0,0,0-.015.134.747.747,0,0,0,.014.144.791.791,0,0,0,.042.142.7.7,0,0,0,.068.129.771.771,0,0,0,.111.13.809.809,0,0,0,.134.1.683.683,0,0,0,.144.067.464.464,0,0,0,.141.024.314.314,0,0,0,.08-.01.249.249,0,0,0,.071-.03.353.353,0,0,0,.059-.047l.024.063a2.5,2.5,0,0,1,.084.286c.013.056.024.113.033.17s.018.125.024.189c.015.158.023.318.025.478,0,.136,0,.274-.009.411-.013.235-.038.423-.06.576a.333.333,0,0,1-.033.117.051.051,0,0,1-.043.03A.053.053,0,0,1,3.5,4.07a.115.115,0,0,1-.023-.018.188.188,0,0,1-.022-.026h0c0,.024,0,.051,0,.074s0,.045,0,.062a.2.2,0,0,1-.01.05.033.033,0,0,1-.031.025.05.05,0,0,1-.024-.007l-.011-.007h0c0,.006-.013.04-.027.076a.6.6,0,0,1-.028.061.159.159,0,0,1-.032.044.04.04,0,0,1-.026.011.044.044,0,0,1-.023-.007.087.087,0,0,1-.018-.015A.139.139,0,0,1,3.2,4.373h0a1.29,1.29,0,0,1-.082.1c-.032.036-.066.071-.1.106s-.092.085-.14.124a1.878,1.878,0,0,1-.392.244,1.688,1.688,0,0,1-.25.092c-.046.013-.092.024-.138.032s-.1.016-.146.021c-.067.007-.135.01-.2.01ZM.773,3.016h0a.313.313,0,0,0-.018.038h0c-.02.043-.052.116-.1.2a1.378,1.378,0,0,1-.083.131h0a.26.26,0,0,0-.052.1.108.108,0,0,0,.013.054.337.337,0,0,0,.05.077.394.394,0,0,0,.05.05.376.376,0,0,0,.064.043.354.354,0,0,0,.169.042H.894a.341.341,0,0,0,.174-.07A.673.673,0,0,0,1.2,3.543.958.958,0,0,0,1.291,3.4a.3.3,0,0,0,.031-.075v0h0a.214.214,0,0,0-.04.044h0a1.7,1.7,0,0,1-.15.164.745.745,0,0,1-.1.08.366.366,0,0,1-.108.05.255.255,0,0,1-.062.008A.249.249,0,0,1,.77,3.658.3.3,0,0,1,.7,3.617a.347.347,0,0,1-.055-.052.277.277,0,0,1-.033-.048C.6,3.5.6,3.489.6,3.484S.621,3.447.646,3.4.7,3.3.729,3.23a.542.542,0,0,0,.043-.143.189.189,0,0,0,0-.07ZM1.407.906a.579.579,0,0,0-.121.013.63.63,0,0,0-.115.036.677.677,0,0,0-.106.057.713.713,0,0,0-.174.162.682.682,0,0,0-.063.1.614.614,0,0,0-.043.107.546.546,0,0,0-.021.112.7.7,0,0,0,.019.234.584.584,0,0,0,.1.206.61.61,0,0,0,.183.16.763.763,0,0,0,.125.058.963.963,0,0,0,.147.04.713.713,0,0,0,.131.013.519.519,0,0,0,.223-.048.484.484,0,0,0,.163-.126.608.608,0,0,0,.1-.18.745.745,0,0,0,.03-.1A.8.8,0,0,0,2,1.639a.754.754,0,0,0-.121-.469.654.654,0,0,0-.077-.095A.592.592,0,0,0,1.714,1,.548.548,0,0,0,1.478.911a.564.564,0,0,0-.071,0Zm1.038.48a.219.219,0,0,0-.057.007.132.132,0,0,0-.051.027.107.107,0,0,0-.029.039.056.056,0,0,0,0,.05.065.065,0,0,0,.037.026.186.186,0,0,0,.06.009.234.234,0,0,0,.072-.011A.175.175,0,0,0,2.532,1.5a.092.092,0,0,0,.03-.039.042.042,0,0,0,0-.038A.084.084,0,0,0,2.515,1.4.211.211,0,0,0,2.446,1.386Z" transform="translate(0.278 0)" fill="#fff"/>
        <path id="Path_7547" data-name="Path 7547" d="M-19966.266,4501.821c-.07-.066-.582-.093-.547.358s.514.358.605.353" transform="translate(19966.814 -4500.491)" fill="#fff"/>
        <g id="Group_6948" data-name="Group 6948" transform="translate(2.854 0.663)">
          <path id="Path_7556" data-name="Path 7556" d="M-19379.479,4372.287a.656.656,0,0,1,.559.316.65.65,0,0,1-.139.859.31.31,0,0,1-.172.047.756.756,0,0,1-.562-.341.776.776,0,0,1-.115-.58.354.354,0,0,1,.162-.235A.543.543,0,0,1-19379.479,4372.287Zm.248,1.144a.246.246,0,0,0,.131-.034.583.583,0,0,0,.115-.753.584.584,0,0,0-.494-.279.471.471,0,0,0-.229.056.281.281,0,0,0-.125.187.706.706,0,0,0,.1.518A.683.683,0,0,0-19379.23,4373.431Z" transform="translate(19379.924 -4372.287)" fill="#fff"/>
        </g>
      </g>
    </g>
    <g id="Group_14409" data-name="Group 14409" transform="translate(217.111 548.132)">
      <g id="Group_14310" data-name="Group 14310" transform="translate(0 0)">
        <g id="Group_14309" data-name="Group 14309" transform="translate(0 0)">
          <g transform="matrix(1, 0, 0, 1, -6, -2)" filter="url(#Union_1)">
            <path id="Union_1-2" data-name="Union 1" d="M54.7,53.734a7.978,7.978,0,0,1-6.261-8.887,8.542,8.542,0,0,1,2.469-5.114,13.474,13.474,0,0,1-2.895-2.821,13.288,13.288,0,0,1-1.753,1.945c-2.8,2.545-6.444,3.6-10.822,3.144A13.034,13.034,0,0,1,23.9,32.579q-.337-1.153-.565-2.372a9.182,9.182,0,0,1-1.625.464q-.491.1-.965.2c.162.959.286,1.756.368,2.423a8.569,8.569,0,0,1-7.3,9.638L3.7,36.291c-.013-.063-.028-.141-.042-.219-.466-2.49-.931-5.187-1.377-7.976l-.262-1.667-.156-1.016-.16-1.06C1.132,20.507.574,16.392.05,12.122A8.74,8.74,0,0,1,6.9,2.61c.742-.177,1.5-.348,2.231-.5q.551-.118,1.092-.228a4.132,4.132,0,0,1,2.252-1.1A16.573,16.573,0,0,1,14.636.653a4.279,4.279,0,0,1,1.6-.584c.062-.01.2-.028.26-.034a23.464,23.464,0,0,1,5.537.545,8.78,8.78,0,0,1,6.929,6.988,8.341,8.341,0,0,1-.1,3.669,8.285,8.285,0,0,1,2.572-.443,3.949,3.949,0,0,1,2.185-.409,4,4,0,0,1,1.651.557c.057.035.114.07.169.108a7.551,7.551,0,0,1,.8.62A3.827,3.827,0,0,1,38.336,13a3.865,3.865,0,0,1,1.87-.726,5.944,5.944,0,0,1,1.729-.791,4.511,4.511,0,0,1,1.655-.145,3.987,3.987,0,0,1,2.087.857,7.9,7.9,0,0,1,5.242,3.717,15.97,15.97,0,0,1,3.436-2.272,19.405,19.405,0,0,1,6.264-1.862,4,4,0,0,1,2.818-1.142,4.417,4.417,0,0,1,.577.038A8.26,8.26,0,0,1,66,11.213a4,4,0,0,1,1.419-.26,4.81,4.81,0,0,1,2.374.685,7.944,7.944,0,0,1,2.567,2.476,8.653,8.653,0,0,1,2.085-2.928A9.889,9.889,0,0,1,80.3,8.357a6.019,6.019,0,0,1,.785.014,4.31,4.31,0,0,1,1.342.337,9.418,9.418,0,0,1,1.911-.044A4.2,4.2,0,0,1,86.8,9.691c1.9.2,3.594.391,5.142.591a8.824,8.824,0,0,1,2.3.569L99.193,20.5a8.528,8.528,0,0,1-1.8,3.434L95.01,26.8a7.479,7.479,0,0,1,3.028,2.657,8.54,8.54,0,0,1,1.5,5.917,9.043,9.043,0,0,1-2.522,5.4,7.812,7.812,0,0,1-6.36,2.465c-3.72-.223-7.6-.468-10.929-.758q-1.028-.09-1.986-.186a9.774,9.774,0,0,1-2.063-.451c-1.114,7.611-7.279,12.5-15.811,12.5A23.177,23.177,0,0,1,54.7,53.734Zm.863-3.745a19.331,19.331,0,0,0,4.31.5c6.095,0,11.259-3.163,12.038-9.488q.1-.792.178-1.572A8.777,8.777,0,0,1,70.7,37.207c-.017-.039-.034-.079-.05-.119A8.074,8.074,0,0,1,72,28.6l.431-.512a33,33,0,0,0-.651-5.518,14.374,14.374,0,0,0-.953-3.12c-.344-.773-1.521-3.677-2.927-4.466-1.336-.75.061.943-.589.944a.57.57,0,0,1-.118-.014c-.462-.1-2.675-1.324-3.665-1.434-.751-.109.729.992.018.993h-.018a15.784,15.784,0,0,0-7.47,1.607,11.7,11.7,0,0,0-4.073,3.244,35.11,35.11,0,0,1-1.873,12.685c2.061,4.277,7.176,6.633,13.036,5.206-.041,3-1.585,3.744-5.463,3.078a5.6,5.6,0,0,0-.944-.082C51.666,41.21,50.325,48.732,55.56,49.989ZM78.13,38.463q.934.094,1.937.181c3.106.271,6.708.5,10.8.75a4.02,4.02,0,0,0,3.337-1.251,5.231,5.231,0,0,0,1.506-3.179,4.774,4.774,0,0,0-.885-3.388A4,4,0,0,0,91.619,29.8l-3.884-.293,6.7-8.032a4.093,4.093,0,0,0,.718-4.563,4.217,4.217,0,0,0-3.708-2.818c-2.262-.293-4.727-.559-7.422-.816-.75-.072.815-.71,0-.784a8.027,8.027,0,0,0-2.272.221,8.069,8.069,0,0,1-1.3.238c-.636-.064,1.387-.813,0-.756S77.5,13.6,77.034,14.029a5.272,5.272,0,0,0-1.538,4.7,4.312,4.312,0,0,0,3.945,3.746l2.522.266-5.621,6.68a72.174,72.174,0,0,1-.237,8.417A5.185,5.185,0,0,0,78.13,38.463ZM13.081,4.573c-.657.1.786.527.091.652-1.052.189-2.124.4-3.228.637-.7.151-1.434.316-2.168.491a4.844,4.844,0,0,0-3.9,5.3q.8,6.476,1.644,12.131c.051.344.1.686.159,1.05.049.32.1.661.154,1.006.085.55.171,1.093.26,1.649.445,2.788.9,5.437,1.367,7.918a4.84,4.84,0,0,0,5.667,3.744l.094-.014a4.738,4.738,0,0,0,4.076-5.377c-.158-1.287-.522-3.291-1-5.981,1.375-.217,2.926-.509,4.7-.882a4.981,4.981,0,0,0,1.888-.764A32.979,32.979,0,0,1,23.5,18.42a5.128,5.128,0,0,0-4.417-1.2c-1.191.188-3.186.644-4.24.81-.048-.6-.2-1.561-.4-2.841,3.162-.5,5.537-.921,7.074-1.3a4.564,4.564,0,0,0,3.077-2.22,4.952,4.952,0,0,0,.584-3.419,4.879,4.879,0,0,0-3.885-3.894,23.1,23.1,0,0,0-4.373-.494c-.956.1.765.649-.175.8l-.029,0c-.263.037-.791-.108-1.648-.151-.141-.007-.295-.01-.453-.01A14.171,14.171,0,0,0,13.081,4.573ZM27.6,31.489a9.208,9.208,0,0,0,8.24,6.69q7.093.744,10.1-5.248a15.011,15.011,0,0,1,.028-8.846,17.049,17.049,0,0,1,2.105-4.876,4.256,4.256,0,0,0-4.856-3.358c-.447.047.329-.659-.028-.7a.764.764,0,0,0-.258.036c-.887.237-1.717,1.354-1.945,1.53-.382.3-.167-.613-.339-.631-.053-.006-.143.074-.3.3a7.775,7.775,0,0,0-.85,3.349l-.015,1.3c-.093,3.983-.2,8.495-2.556,8.37-1.015-.066-1.561-1.467-1.542-3.584a41.52,41.52,0,0,1,.626-6.331,5.952,5.952,0,0,0-.337-3.477c-.19-.453-.294-.61-.359-.617s-.09.145-.121.3c-.043.207-.1.414-.3.219a9.073,9.073,0,0,0-1.607-1.686c-.168-.1-.129.1-.107.3.019.169.025.338-.118.323a.284.284,0,0,1-.045-.009,4.138,4.138,0,0,0-5.374,2.719A8.777,8.777,0,0,1,28.7,20.516,8.879,8.879,0,0,1,26.86,27.67,21.971,21.971,0,0,0,27.6,31.489ZM58.772,28.9a1.627,1.627,0,0,1-.376-2.33c.667-1.165,2.044-1.789,4.171-1.83.292,1.623.458,3.162.583,4.577a9.134,9.134,0,0,1-2.053.267A3.673,3.673,0,0,1,58.772,28.9Z" transform="translate(6 2)" fill="#fff"/>
          </g>
          <g id="Group_14302" data-name="Group 14302" transform="translate(2.697 6.122) rotate(-9)">
            <path id="Path_9293" data-name="Path 9293" d="M14.836,23.486c6.04-.186,6.783-9.756-.372-9.9-1.208,0-3.252.139-4.321.139.046-.6.046-1.58.046-2.88,3.206,0,5.621-.046,7.2-.186a4.57,4.57,0,0,0,3.391-1.719,4.982,4.982,0,0,0,1.115-3.3,4.892,4.892,0,0,0-3.231-4.469A23.082,23.082,0,0,0,14.419,0c-.971-.047.688.78-.327.763-.266,0-.766-.231-1.607-.408A14.336,14.336,0,0,0,10.513.114c-.666,0,.695.646-.012.661C9.431.8,8.338.839,7.208.9c-.72.039-1.468.089-2.221.146A4.86,4.86,0,0,0,.295,5.693Q.064,12.239.015,17.978c0,.349-.006.7-.008,1.065,0,.325,0,.672-.005,1.021,0,.558,0,1.111,0,1.676,0,2.834.04,5.532.109,8.064a4.847,4.847,0,0,0,5.017,4.6A4.761,4.761,0,0,0,10.1,29.712c.046-1.3,0-3.345-.046-6.086C11.444,23.626,13.024,23.579,14.836,23.486Z" transform="translate(0 0)" fill="#373842"/>
          </g>
          <g id="Group_14303" data-name="Group 14303" transform="matrix(0.995, 0.105, -0.105, 0.995, 27.741, 13.489)">
            <path id="Path_9293-2" data-name="Path 9293" d="M8.852,5.086a5.989,5.989,0,0,0-.7-3.436C7.34.167,7.9,2.056,7.364,1.631A9.118,9.118,0,0,0,5.586.116c-.342-.16.2.713-.2.637A4.133,4.133,0,0,0,.27,4.354,27.2,27.2,0,0,0,1.734,17.939a9.226,9.226,0,0,0,8.908,5.817q12.569,0,10.332-19.484C20.659,1.345,17.963.2,15.647.693c-.509.108.5-.958-.355-.629s-1.568,1.531-1.776,1.731c-.458.439-.113-1.292-.671-.262a7.816,7.816,0,0,0-.5,3.432l.122,1.3c.325,3.986.691,8.5-1.668,8.623-1.017.041-1.708-1.3-1.912-3.417A41.732,41.732,0,0,1,8.852,5.086Z" transform="translate(0 0)" fill="#373842"/>
          </g>
          <g id="Group_14304" data-name="Group 14304" transform="translate(49.125 14.322)">
            <path id="Path_9293-3" data-name="Path 9293" d="M18.942-356.427A73.217,73.217,0,0,0,19.485-369a34.2,34.2,0,0,0-.668-5.93,14.459,14.459,0,0,0-.955-3.132c-.345-.775-1.523-3.691-2.931-4.483s.214,1.13-.708.933c-.463-.1-2.678-1.329-3.67-1.44-.758-.11.755,1.015,0,1a15.771,15.771,0,0,0-7.48,1.613,11.852,11.852,0,0,0-6.39,8.06c-2.589,8.77,4.594,15.327,13.489,13.155-.042,3.007-1.587,3.759-5.471,3.09-5.847-1-7.684,7.392-2.13,8.728C10.381-345.61,17.981-348.617,18.942-356.427Zm-8.77-11.735c-1.963.459-3.425.334-4.385-.418a1.636,1.636,0,0,1-.376-2.339c.668-1.169,2.046-1.8,4.176-1.838C9.879-371.127,10.047-369.582,10.172-368.162Z" transform="translate(3.852 383.056)" fill="#373842"/>
          </g>
          <g id="Group_14305" data-name="Group 14305" transform="matrix(0.996, 0.087, -0.087, 0.996, 75.753, 11.717)">
            <path id="Path_9293-4" data-name="Path 9293" d="M13.472,16.7,19.459,8.08a4.116,4.116,0,0,0,.317-4.626A4.226,4.226,0,0,0,15.83.96C13.548.865,11.066.814,8.355.792,7.6.786,9.105.011,8.286.009a19.534,19.534,0,0,0-3.521.77C4.124.771,6.077-.155,4.7.023S1.875,1.687,1.443,2.154A5.3,5.3,0,0,0,.32,6.992a4.324,4.324,0,0,0,4.263,3.4l2.54.045L.864,19.373a4.269,4.269,0,0,0-.317,4.671,4.478,4.478,0,0,0,4.127,2.449c3.537.045,7.8-.045,12.789-.181a4.022,4.022,0,0,0,3.22-1.542,5.257,5.257,0,0,0,1.224-3.311,4.8,4.8,0,0,0-1.179-3.311,4,4,0,0,0-3.356-1.5Z" transform="translate(0 0)" fill="#373842"/>
          </g>
        </g>
        <g id="Group_14308" data-name="Group 14308" transform="translate(2.697 2.696)">
          <g id="Group_14302-2" data-name="Group 14302" transform="translate(0 3.426) rotate(-9)">
            <path id="Path_9293-5" data-name="Path 9293" d="M14.836,23.486c6.04-.186,6.783-9.756-.372-9.9-1.208,0-3.252.139-4.321.139.046-.6.046-1.58.046-2.88,3.206,0,5.621-.046,7.2-.186a4.57,4.57,0,0,0,3.391-1.719,4.982,4.982,0,0,0,1.115-3.3,4.892,4.892,0,0,0-3.231-4.469A23.082,23.082,0,0,0,14.419,0c-.971-.047.688.78-.327.763-.266,0-.766-.231-1.607-.408A14.336,14.336,0,0,0,10.513.114c-.666,0,.695.646-.012.661C9.431.8,8.338.839,7.208.9c-.72.039-1.468.089-2.221.146A4.86,4.86,0,0,0,.295,5.693Q.064,12.239.015,17.978c0,.349-.006.7-.008,1.065,0,.325,0,.672-.005,1.021,0,.558,0,1.111,0,1.676,0,2.834.04,5.532.109,8.064a4.847,4.847,0,0,0,5.017,4.6A4.761,4.761,0,0,0,10.1,29.712c.046-1.3,0-3.345-.046-6.086C11.444,23.626,13.024,23.579,14.836,23.486Z" transform="translate(0 0)" fill="#373842"/>
          </g>
          <g id="Group_14303-2" data-name="Group 14303" transform="matrix(0.995, 0.105, -0.105, 0.995, 25.046, 10.789)">
            <path id="Path_9293-6" data-name="Path 9293" d="M8.852,5.086a5.989,5.989,0,0,0-.7-3.436C7.34.167,7.9,2.056,7.364,1.631A9.118,9.118,0,0,0,5.586.116c-.342-.16.2.713-.2.637A4.133,4.133,0,0,0,.27,4.354,27.2,27.2,0,0,0,1.734,17.939a9.226,9.226,0,0,0,8.908,5.817q12.569,0,10.332-19.484C20.659,1.345,17.963.2,15.647.693c-.509.108.5-.958-.355-.629s-1.568,1.531-1.776,1.731c-.458.439-.113-1.292-.671-.262a7.816,7.816,0,0,0-.5,3.432l.122,1.3c.325,3.986.691,8.5-1.668,8.623-1.017.041-1.708-1.3-1.912-3.417A41.732,41.732,0,0,1,8.852,5.086Z" transform="translate(0 0)" fill="#373842"/>
          </g>
          <g id="Group_14304-2" data-name="Group 14304" transform="translate(46.427 11.626)">
            <path id="Path_9293-7" data-name="Path 9293" d="M18.942-356.427A73.217,73.217,0,0,0,19.485-369a34.2,34.2,0,0,0-.668-5.93,14.459,14.459,0,0,0-.955-3.132c-.345-.775-1.523-3.691-2.931-4.483s.214,1.13-.708.933c-.463-.1-2.678-1.329-3.67-1.44-.758-.11.755,1.015,0,1a15.771,15.771,0,0,0-7.48,1.613,11.852,11.852,0,0,0-6.39,8.06c-2.589,8.77,4.594,15.327,13.489,13.155-.042,3.007-1.587,3.759-5.471,3.09-5.847-1-7.684,7.392-2.13,8.728C10.381-345.61,17.981-348.617,18.942-356.427Zm-8.77-11.735c-1.963.459-3.425.334-4.385-.418a1.636,1.636,0,0,1-.376-2.339c.668-1.169,2.046-1.8,4.176-1.838C9.879-371.127,10.047-369.582,10.172-368.162Z" transform="translate(3.852 383.056)" fill="#373842"/>
          </g>
          <g id="Group_14305-2" data-name="Group 14305" transform="matrix(0.996, 0.087, -0.087, 0.996, 73.056, 9.018)">
            <path id="Path_9293-8" data-name="Path 9293" d="M13.472,16.7,19.459,8.08a4.116,4.116,0,0,0,.317-4.626A4.226,4.226,0,0,0,15.83.96C13.548.865,11.066.814,8.355.792,7.6.786,9.105.011,8.286.009a19.534,19.534,0,0,0-3.521.77C4.124.771,6.077-.155,4.7.023S1.875,1.687,1.443,2.154A5.3,5.3,0,0,0,.32,6.992a4.324,4.324,0,0,0,4.263,3.4l2.54.045L.864,19.373a4.269,4.269,0,0,0-.317,4.671,4.478,4.478,0,0,0,4.127,2.449c3.537.045,7.8-.045,12.789-.181a4.022,4.022,0,0,0,3.22-1.542,5.257,5.257,0,0,0,1.224-3.311,4.8,4.8,0,0,0-1.179-3.311,4,4,0,0,0-3.356-1.5Z" transform="translate(0 0)" fill="#373842"/>
          </g>
        </g>
      </g>
      <path id="Path_24321" data-name="Path 24321" d="M.12,0,5.9,9.224S2.42,8.709.974,6.4.12,0,.12,0Z" transform="matrix(0.996, 0.087, -0.087, 0.996, 94.119, 10.831)" fill="#e0dfdf"/>
      <path id="Path_24322" data-name="Path 24322" d="M0,0,8.962,8.17A7.57,7.57,0,0,0,6.105,2.452,9.711,9.711,0,0,0,0,0Z" transform="translate(3.71 36.269) rotate(-9)" fill="#e0dfdf"/>
    </g>
  </g>
</svg>
