<svg id="Group_14204" data-name="Group 14204" xmlns="http://www.w3.org/2000/svg" width="9.787" height="12.003" viewBox="0 0 9.787 12.003">
  <path id="Path_7559" data-name="Path 7559" d="M0,1.271s.615.521.912.291c.256-.2.276-.956.276-1.163A4.824,4.824,0,0,0,.912,0" transform="matrix(0.996, -0.087, 0.087, 0.996, 6.939, 9.389)" fill="#fff"/>
  <path id="Path_7555" data-name="Path 7555" d="M-19156.768,4777.22s.988.7.957,1.091-.918.337-.918.337" transform="translate(19165.598 -4771.284)" fill="#fff"/>
  <path id="Path_7558" data-name="Path 7558" d="M-19819.082,5177.823a2.268,2.268,0,0,0-.115.863,1.19,1.19,0,0,0,.414.836c.291.2.795.021,1.1-.187a.858.858,0,0,0,.3-.342" transform="translate(19820.982 -5167.604)" fill="#fff"/>
  <path id="Subtraction_4" data-name="Subtraction 4" d="M3.949,11.511h0a4.349,4.349,0,0,1-.576-.038,4.033,4.033,0,0,1-.539-.109,3.853,3.853,0,0,1-.5-.175A3.749,3.749,0,0,1,1.1,10.326a3.935,3.935,0,0,1-.586-.8,2.464,2.464,0,0,1-.206-.519,2.814,2.814,0,0,1-.066-.345c-.011-.09-.015-.148-.015-.149h0a.163.163,0,0,1-.08.033.046.046,0,0,1-.037-.017A.108.108,0,0,1,.09,8.467.743.743,0,0,1,.1,8.32c.009-.052.022-.113.038-.18.025-.106.052-.2.057-.216h0a.465.465,0,0,1-.046.048.161.161,0,0,1-.09.048A.045.045,0,0,1,.029,8C0,7.966-.009,7.862.015,7.7c.018-.128.055-.312.111-.547.044-.187.1-.409.168-.661.078-.292.153-.56.192-.694a1.269,1.269,0,0,0,.068.176,1.043,1.043,0,0,0,.119.194,1.017,1.017,0,0,0,.152.153,1.5,1.5,0,0,0,.17.121.743.743,0,0,0,.235.108h.007a0,0,0,0,0,0,0c0-.015-.054-.065-.13-.133h0a3.454,3.454,0,0,1-.319-.317,2.105,2.105,0,0,1-.223-.332c-.058-.1-.1-.19-.109-.214l-.018-.05h0l0-.01c-.043-.12-.109-.31-.174-.53a6.691,6.691,0,0,1-.166-.68,2.934,2.934,0,0,1-.057-.664c.005-.1.015-.209.03-.316s.035-.227.06-.34a3.9,3.9,0,0,1,.229-.711,3.2,3.2,0,0,1,.4-.682,2.768,2.768,0,0,1,.273-.3A2.592,2.592,0,0,1,1.351.99c.083-.057.176-.114.275-.169S1.835.709,1.95.655a6.574,6.574,0,0,1,.761-.3h0a.811.811,0,0,1-.078-.04A.323.323,0,0,1,2.578.281C2.562.267,2.555.254,2.555.244s.013-.022.037-.028A.991.991,0,0,1,2.813.2c.179,0,.387.014.41.016h0A.7.7,0,0,1,3.138.172.283.283,0,0,1,3.082.13.055.055,0,0,1,3.061.085c0-.021.031-.039.08-.052A1.289,1.289,0,0,1,3.409,0c.091,0,.184,0,.278,0,.181,0,.365,0,.546.014.2.01.4.027.583.048a5.329,5.329,0,0,1,.552.092A2.3,2.3,0,0,1,5.819.3a2.255,2.255,0,0,1,.446.278,2.672,2.672,0,0,1,.378.368,2.959,2.959,0,0,1,.3.426c.044.076.085.155.122.235a1.363,1.363,0,0,0-.25-.023,1.261,1.261,0,0,0-.3.035,1.041,1.041,0,0,0-.262.1A.707.707,0,0,0,5.93,2.2a1.314,1.314,0,0,0-.034.3,1.684,1.684,0,0,0,.032.324,1.785,1.785,0,0,0,.095.32,1.577,1.577,0,0,0,.153.292,1.738,1.738,0,0,0,.251.294,1.824,1.824,0,0,0,.3.231,1.541,1.541,0,0,0,.325.151,1.045,1.045,0,0,0,.319.054.709.709,0,0,0,.18-.022.562.562,0,0,0,.159-.069.8.8,0,0,0,.132-.107c.018.047.036.095.054.142a5.629,5.629,0,0,1,.189.645c.029.126.054.256.075.384s.04.281.054.426c.033.355.052.718.056,1.077,0,.307,0,.618-.021.926-.03.53-.085.955-.135,1.3a.75.75,0,0,1-.075.263.116.116,0,0,1-.1.069.12.12,0,0,1-.06-.018.258.258,0,0,1-.051-.04.423.423,0,0,1-.049-.058h0c0,.055,0,.114,0,.168s0,.1-.008.14a.458.458,0,0,1-.023.113.075.075,0,0,1-.069.057.113.113,0,0,1-.054-.016.175.175,0,0,1-.024-.016h0c0,.015-.029.091-.062.173a1.345,1.345,0,0,1-.063.137.359.359,0,0,1-.071.1.09.09,0,0,1-.059.024A.1.1,0,0,1,7.3,9.945a.2.2,0,0,1-.041-.034.313.313,0,0,1-.038-.049h0a2.909,2.909,0,0,1-.185.229c-.071.081-.148.161-.228.239-.1.1-.207.192-.315.279a4.235,4.235,0,0,1-.883.551,3.807,3.807,0,0,1-.563.208c-.1.029-.208.054-.311.073s-.219.036-.33.047c-.152.015-.305.022-.457.022ZM1.743,6.8h0a.706.706,0,0,0-.041.085v0h0v0c-.044.1-.118.262-.224.453a3.108,3.108,0,0,1-.188.3h0a.586.586,0,0,0-.116.216A.243.243,0,0,0,1.2,7.98a.76.76,0,0,0,.112.174.889.889,0,0,0,.112.112.848.848,0,0,0,.144.1.8.8,0,0,0,.38.094h0l.07,0A.77.77,0,0,0,2.409,8.3a1.519,1.519,0,0,0,.3-.308,2.162,2.162,0,0,0,.2-.311.674.674,0,0,0,.07-.168.005.005,0,0,0,0,0h0a.482.482,0,0,0-.09.1h0a3.835,3.835,0,0,1-.339.371,1.68,1.68,0,0,1-.226.18.826.826,0,0,1-.244.112.574.574,0,0,1-.14.018.561.561,0,0,1-.2-.038.674.674,0,0,1-.165-.093.782.782,0,0,1-.123-.116.625.625,0,0,1-.075-.108c-.019-.036-.027-.064-.02-.074s.048-.085.1-.194c.048-.092.119-.233.186-.379a1.223,1.223,0,0,0,.1-.323A.426.426,0,0,0,1.745,6.8Zm1.43-4.759a1.306,1.306,0,0,0-.272.029,1.421,1.421,0,0,0-.259.082,1.527,1.527,0,0,0-.239.128,1.608,1.608,0,0,0-.393.366,1.539,1.539,0,0,0-.142.224,1.385,1.385,0,0,0-.1.241,1.232,1.232,0,0,0-.047.252,1.583,1.583,0,0,0,.043.527,1.317,1.317,0,0,0,.223.464,1.377,1.377,0,0,0,.413.361,1.72,1.72,0,0,0,.281.13,2.171,2.171,0,0,0,.332.09,1.607,1.607,0,0,0,.3.029,1.17,1.17,0,0,0,.5-.107,1.092,1.092,0,0,0,.368-.285,1.371,1.371,0,0,0,.235-.406,1.68,1.68,0,0,0,.068-.231A1.808,1.808,0,0,0,4.521,3.7a1.7,1.7,0,0,0-.272-1.057,1.475,1.475,0,0,0-.173-.214,1.334,1.334,0,0,0-.212-.176,1.236,1.236,0,0,0-.532-.2,1.272,1.272,0,0,0-.159-.01ZM5.515,3.127a.5.5,0,0,0-.128.016.3.3,0,0,0-.115.06.241.241,0,0,0-.066.089.126.126,0,0,0,0,.112.147.147,0,0,0,.083.059.418.418,0,0,0,.134.02.528.528,0,0,0,.162-.025.394.394,0,0,0,.124-.065.208.208,0,0,0,.068-.087.1.1,0,0,0-.007-.085.19.19,0,0,0-.1-.069A.476.476,0,0,0,5.515,3.127Z" transform="translate(0.628 0)" fill="#fff"/>
  <path id="Path_7547" data-name="Path 7547" d="M-19965.574,4501.866c-.154-.148-1.311-.208-1.23.81s1.154.809,1.367.8" transform="translate(19966.809 -4498.868)" fill="#fff"/>
  <g id="Group_6948" data-name="Group 6948" transform="translate(6.434 1.497)">
    <path id="Path_7556" data-name="Path 7556" d="M-19378.914,4372.287a1.491,1.491,0,0,1,1.262.713,1.474,1.474,0,0,1-.314,1.94.708.708,0,0,1-.387.1,1.719,1.719,0,0,1-1.273-.768,1.773,1.773,0,0,1-.258-1.31.788.788,0,0,1,.365-.532A1.241,1.241,0,0,1-19378.914,4372.287Zm.561,2.583a.53.53,0,0,0,.291-.077,1.308,1.308,0,0,0,.262-1.7,1.32,1.32,0,0,0-1.113-.631,1.074,1.074,0,0,0-.518.125.637.637,0,0,0-.283.42,1.58,1.58,0,0,0,.234,1.17A1.527,1.527,0,0,0-19378.354,4374.87Z" transform="translate(19379.92 -4372.287)" fill="#fff"/>
  </g>
</svg>
