<svg xmlns="http://www.w3.org/2000/svg" width="32.54" height="25.5" viewBox="0 0 32.54 25.5">
  <g id="discord-svgrepo-com_1_" data-name="discord-svgrepo-com (1)" transform="translate(0.75 0.75)">
    <path id="Path_24329" data-name="Path 24329" d="M31.31,59.661,29.64,63a38.626,38.626,0,0,1-6.67-3.3,2.943,2.943,0,0,1-1.331-2.41,29.5,29.5,0,0,1,4.042-15.345,3.289,3.289,0,0,1,1.788-1.473A26.184,26.184,0,0,1,32.562,39l1.252,2.3a11.551,11.551,0,0,1,3.339-.417,11.551,11.551,0,0,1,3.339.417L41.744,39a26.185,26.185,0,0,1,5.093,1.475,3.289,3.289,0,0,1,1.788,1.473,29.5,29.5,0,0,1,4.042,15.345,2.944,2.944,0,0,1-1.331,2.41,38.618,38.618,0,0,1-6.67,3.3L43,59.661m-14.191-1.67a21.586,21.586,0,0,0,8.348,2.087A21.586,21.586,0,0,0,45.5,57.991" transform="translate(-21.633 -39)" fill="none" stroke="#fff" stroke-linecap="round" stroke-linejoin="round" stroke-width="1.5"/>
    <ellipse id="Ellipse_631" data-name="Ellipse 631" cx="2.713" cy="3.13" rx="2.713" ry="3.13" transform="translate(7.59 9.809)" fill="#fff"/>
    <ellipse id="Ellipse_632" data-name="Ellipse 632" cx="2.713" cy="3.13" rx="2.713" ry="3.13" transform="translate(18.024 9.809)" fill="#fff"/>
  </g>
</svg>
