<svg xmlns="http://www.w3.org/2000/svg" width="23.999" height="24" viewBox="0 0 23.999 24">
  <path id="Path_24332" data-name="Path 24332" d="M8,12a4,4,0,1,1,4,4,4,4,0,0,1-4-4M5.838,12A6.162,6.162,0,1,0,12,5.838,6.162,6.162,0,0,0,5.838,12M16.966,5.594a1.44,1.44,0,1,0,1.441-1.439h0a1.441,1.441,0,0,0-1.44,1.439M7.152,21.768a6.632,6.632,0,0,1-2.228-.413,3.73,3.73,0,0,1-1.38-.9,3.7,3.7,0,0,1-.9-1.379,6.626,6.626,0,0,1-.413-2.228c-.058-1.265-.07-1.645-.07-4.849s.013-3.583.07-4.849a6.676,6.676,0,0,1,.413-2.228,3.73,3.73,0,0,1,.9-1.38,3.7,3.7,0,0,1,1.38-.9,6.626,6.626,0,0,1,2.228-.413C8.417,2.173,8.8,2.162,12,2.162s3.583.013,4.849.07a6.676,6.676,0,0,1,2.228.413,3.718,3.718,0,0,1,1.38.9,3.718,3.718,0,0,1,.9,1.38,6.626,6.626,0,0,1,.413,2.228c.058,1.266.07,1.645.07,4.849s-.012,3.583-.07,4.849a6.657,6.657,0,0,1-.413,2.228,3.973,3.973,0,0,1-2.278,2.277,6.626,6.626,0,0,1-2.228.413c-1.265.058-1.645.07-4.849.07s-3.583-.012-4.848-.07m-.1-21.7A8.8,8.8,0,0,0,4.14.63,5.886,5.886,0,0,0,2.014,2.014,5.863,5.863,0,0,0,.63,4.14,8.8,8.8,0,0,0,.073,7.053C.014,8.332,0,8.741,0,12s.014,3.668.073,4.947A8.8,8.8,0,0,0,.63,19.86a5.866,5.866,0,0,0,1.384,2.126A5.9,5.9,0,0,0,4.14,23.37a8.807,8.807,0,0,0,2.913.557C8.333,23.985,8.741,24,12,24s3.668-.014,4.947-.073a8.8,8.8,0,0,0,2.913-.557,6.135,6.135,0,0,0,3.51-3.51,8.777,8.777,0,0,0,.557-2.913C23.985,15.667,24,15.259,24,12s-.014-3.668-.072-4.947A8.8,8.8,0,0,0,23.37,4.14a5.9,5.9,0,0,0-1.384-2.126A5.872,5.872,0,0,0,19.861.63,8.787,8.787,0,0,0,16.948.073C15.669.014,15.26,0,12,0S8.333.014,7.053.073" fill="#fbfbfb"/>
</svg>
