<svg id="Group_14256" data-name="Group 14256" xmlns="http://www.w3.org/2000/svg" width="84.428" height="80.475" viewBox="0 0 84.428 80.475">
  <path id="Path_24171" data-name="Path 24171" d="M57.468,48.2l-1.3-2.158a2.537,2.537,0,0,0,.571,4.575ZM34.1,48.2l.729,2.417A2.536,2.536,0,0,0,35.4,46.04ZM6.091,81.824,3.61,81.512Zm79.387,0,2.481-.312ZM65.785,28.763A20.241,20.241,0,0,1,56.168,46.04l2.6,4.316A25.306,25.306,0,0,0,70.786,28.763Zm-20-20.21a20.106,20.106,0,0,1,20,20.21h5a25.133,25.133,0,0,0-25-25.263Zm-20,20.21a20.106,20.106,0,0,1,20-20.21V3.5a25.133,25.133,0,0,0-25,25.263ZM35.4,46.04a20.241,20.241,0,0,1-9.618-17.277h-5A25.305,25.305,0,0,0,32.8,50.356Zm-2.029-.259A42.87,42.87,0,0,0,3.61,81.512l4.962.624A37.831,37.831,0,0,1,34.83,50.614ZM3.61,81.512c-.553,4.487,4.832,1.676,4.962.624Zm84.349,0L83,82.136C83.126,83.188,88.511,86,87.959,81.512Zm0,0A42.87,42.87,0,0,0,58.2,45.781l-1.458,4.833A37.83,37.83,0,0,1,83,82.136Z" transform="translate(-3.57 -3.5)" fill="#fff"/>
</svg>
