<svg id="Color-" xmlns="http://www.w3.org/2000/svg" width="33.882" height="24" viewBox="0 0 33.882 24">
  <path id="Youtube" d="M213.443,384.426v-9.587l9.155,4.81Zm20.1-11.249a7.418,7.418,0,0,0-1.347-3.387,4.822,4.822,0,0,0-3.395-1.445C224.061,368,216.949,368,216.949,368h-.015s-7.112,0-11.853.346a4.824,4.824,0,0,0-3.4,1.445,7.412,7.412,0,0,0-1.346,3.387A51.982,51.982,0,0,0,200,378.7v2.589a51.958,51.958,0,0,0,.339,5.523,7.412,7.412,0,0,0,1.346,3.387,5.719,5.719,0,0,0,3.737,1.459c2.711.262,11.52.343,11.52.343s7.12-.011,11.861-.356A4.829,4.829,0,0,0,232.2,390.2a7.418,7.418,0,0,0,1.347-3.387,51.953,51.953,0,0,0,.339-5.523V378.7a51.977,51.977,0,0,0-.339-5.523Z" transform="translate(-200 -368)" fill="#fff" fill-rule="evenodd"/>
</svg>
