<svg xmlns="http://www.w3.org/2000/svg" xmlns:xlink="http://www.w3.org/1999/xlink" width="196.021" height="112.383" viewBox="0 0 196.021 112.383">
  <defs>
    <filter id="Union_1" x="0" y="0" width="196.021" height="112.383" filterUnits="userSpaceOnUse">
      <feOffset dy="4" input="SourceAlpha"/>
      <feGaussianBlur stdDeviation="2" result="blur"/>
      <feFlood flood-opacity="0.161"/>
      <feComposite operator="in" in2="blur"/>
      <feComposite in="SourceGraphic"/>
    </filter>
  </defs>
  <g id="Group_14410" data-name="Group 14410" transform="translate(-211.111 -546.132)">
    <g id="Group_7846" data-name="Group 7846" transform="translate(233.524 633.406)">
      <path id="Path_8811" data-name="Path 8811" d="M9.318-98.831a5.779,5.779,0,0,1-2.631.417,3.493,3.493,0,0,1-1.8-.721,3.675,3.675,0,0,1-1.088-1.5,6.668,6.668,0,0,1-.465-1.9,10.8,10.8,0,0,1-.037-2q.074-.991.279-2.156v-.035q.112-.33.232-.669a3.718,3.718,0,0,1,.307-.652,3.192,3.192,0,0,1,.456-.591,2.647,2.647,0,0,1,.66-.487,4.921,4.921,0,0,1,1.618-.53,4.561,4.561,0,0,1,1.748.078,4.385,4.385,0,0,1,1.023.565,3.872,3.872,0,0,1,.855.878v.017a7.168,7.168,0,0,1,.595,1.5,9.7,9.7,0,0,1,.325,1.791,11.974,11.974,0,0,1,.019,1.886,7.82,7.82,0,0,1-.316,1.765,5.135,5.135,0,0,1-.688,1.443A2.525,2.525,0,0,1,9.318-98.831Zm-1.394-2.921a3.178,3.178,0,0,0,.177-.669q.084-.461.13-1.008a11.123,11.123,0,0,0,.037-1.121,4.858,4.858,0,0,0-.121-1.043,1.956,1.956,0,0,0-.335-.756.672.672,0,0,0-.595-.269.734.734,0,0,0-.567.382,2.762,2.762,0,0,0-.325.834,5.329,5.329,0,0,0-.13,1,6.194,6.194,0,0,0,.019.861q.056.4.1.913a2.366,2.366,0,0,0,.288.947.869.869,0,0,0,.651.33A.875.875,0,0,0,7.923-101.751ZM18.167-99a.652.652,0,0,1-.167.313,1.406,1.406,0,0,1-.325.252,2.128,2.128,0,0,1-.409.183,3.205,3.205,0,0,1-.4.1,1.094,1.094,0,0,1-.493-.009,1.826,1.826,0,0,1-.511-.2,1.448,1.448,0,0,1-.4-.33.62.62,0,0,1-.158-.4q-.019-1.06-.037-2.1t-.056-2.1a1.113,1.113,0,0,1-.93-.356.98.98,0,0,1-.186-.73,1.242,1.242,0,0,1,.363-.7.861.861,0,0,1,.716-.278q0-.382.028-.869t.1-1a5.582,5.582,0,0,1,.232-.982,2.636,2.636,0,0,1,.437-.817,2.418,2.418,0,0,1,.865-.626,3.43,3.43,0,0,1,1.171-.33,1.7,1.7,0,0,1,1.032.209.979.979,0,0,1,.428.956,1.308,1.308,0,0,1-.167.417,1.939,1.939,0,0,1-.27.33q-.158.156-.325.313t-.335.33a1.781,1.781,0,0,0-.288.817,8.572,8.572,0,0,0-.009.9,1.636,1.636,0,0,1,.883.026,1.007,1.007,0,0,1,.511.391,1.032,1.032,0,0,1,.158.6,1.337,1.337,0,0,1-.186.643,1.53,1.53,0,0,1-.521.522,1.665,1.665,0,0,1-.846.235q0,1.043.093,2.147A12.417,12.417,0,0,1,18.167-99Zm8.143,0a.652.652,0,0,1-.167.313,1.406,1.406,0,0,1-.325.252,2.128,2.128,0,0,1-.409.183,3.205,3.205,0,0,1-.4.1,1.094,1.094,0,0,1-.493-.009,1.826,1.826,0,0,1-.511-.2,1.448,1.448,0,0,1-.4-.33.62.62,0,0,1-.158-.4q-.019-1.06-.037-2.1t-.056-2.1a1.113,1.113,0,0,1-.93-.356.98.98,0,0,1-.186-.73,1.242,1.242,0,0,1,.363-.7.861.861,0,0,1,.716-.278q0-.382.028-.869t.1-1a5.583,5.583,0,0,1,.232-.982,2.636,2.636,0,0,1,.437-.817,2.418,2.418,0,0,1,.865-.626,3.43,3.43,0,0,1,1.171-.33,1.7,1.7,0,0,1,1.032.209.979.979,0,0,1,.428.956,1.308,1.308,0,0,1-.167.417,1.939,1.939,0,0,1-.27.33q-.158.156-.325.313t-.335.33a1.781,1.781,0,0,0-.288.817,8.571,8.571,0,0,0-.009.9,1.636,1.636,0,0,1,.883.026,1.007,1.007,0,0,1,.511.391,1.032,1.032,0,0,1,.158.6,1.337,1.337,0,0,1-.186.643,1.53,1.53,0,0,1-.521.522,1.665,1.665,0,0,1-.846.235q0,1.043.093,2.147A12.417,12.417,0,0,1,26.311-99Zm6.321-8.4a1.921,1.921,0,0,1-1.274-.278,1.162,1.162,0,0,1-.521-.756.95.95,0,0,1,.288-.808,1.721,1.721,0,0,1,1.153-.452,1.261,1.261,0,0,1,.985.252,1.081,1.081,0,0,1,.372.721,1.233,1.233,0,0,1-.223.808A1.23,1.23,0,0,1,32.632-107.4Zm-.5.921a1.055,1.055,0,0,1,.892.191,1.574,1.574,0,0,1,.456.8,5.076,5.076,0,0,1,.149,1.234q.009.713-.028,1.5t-.065,1.6a10.706,10.706,0,0,0,.046,1.5,1.1,1.1,0,0,1-.279.817,1.39,1.39,0,0,1-.911.469,1.285,1.285,0,0,1-.632-.052,1.478,1.478,0,0,1-.5-.287,1.44,1.44,0,0,1-.325-.417.693.693,0,0,1-.084-.443,12.71,12.71,0,0,1-.084-1.33q-.009-.7,0-1.426t.028-1.426q.019-.7,0-1.347a1.926,1.926,0,0,1,.1-.452,1.612,1.612,0,0,1,.242-.452,1.286,1.286,0,0,1,.409-.348A1.189,1.189,0,0,1,32.13-106.48Zm11.694,6.467a1.112,1.112,0,0,1-.232.921,1.9,1.9,0,0,1-.762.522,3.764,3.764,0,0,1-.957.226,3.992,3.992,0,0,1-.818.017,8.224,8.224,0,0,1-1.961-.356,3.609,3.609,0,0,1-1.32-.739,2.716,2.716,0,0,1-.744-1.173,5.311,5.311,0,0,1-.232-1.66,3.663,3.663,0,0,1,.353-1.617,3.909,3.909,0,0,1,.948-1.252,4.391,4.391,0,0,1,1.4-.817,4.971,4.971,0,0,1,1.72-.3,3.675,3.675,0,0,1,.8.1,3.114,3.114,0,0,1,.8.3,2,2,0,0,1,.623.513,1.158,1.158,0,0,1,.251.748,1.238,1.238,0,0,1-.381.9,1.332,1.332,0,0,1-.865.417,2.873,2.873,0,0,1-.623-.035q-.325-.052-.651-.087a5.869,5.869,0,0,0-.623-.035,1.07,1.07,0,0,0-.521.122.8.8,0,0,0-.344.4,1.847,1.847,0,0,0-.1.782,1.052,1.052,0,0,0,.335.861,1.437,1.437,0,0,0,.762.269,4.714,4.714,0,0,0,.976-.035,5.277,5.277,0,0,1,.985-.043,1.591,1.591,0,0,1,.79.243A1.013,1.013,0,0,1,43.825-100.013ZM48.7-107.4a1.921,1.921,0,0,1-1.274-.278,1.162,1.162,0,0,1-.521-.756.95.95,0,0,1,.288-.808,1.721,1.721,0,0,1,1.153-.452,1.261,1.261,0,0,1,.985.252,1.081,1.081,0,0,1,.372.721,1.233,1.233,0,0,1-.223.808A1.23,1.23,0,0,1,48.7-107.4Zm-.5.921a1.055,1.055,0,0,1,.892.191,1.574,1.574,0,0,1,.456.8,5.075,5.075,0,0,1,.149,1.234q.009.713-.028,1.5t-.065,1.6a10.707,10.707,0,0,0,.046,1.5,1.1,1.1,0,0,1-.279.817,1.39,1.39,0,0,1-.911.469,1.285,1.285,0,0,1-.632-.052,1.478,1.478,0,0,1-.5-.287,1.44,1.44,0,0,1-.325-.417.693.693,0,0,1-.084-.443,12.706,12.706,0,0,1-.084-1.33q-.009-.7,0-1.426t.028-1.426q.019-.7,0-1.347a1.926,1.926,0,0,1,.1-.452,1.613,1.613,0,0,1,.242-.452,1.286,1.286,0,0,1,.409-.348A1.189,1.189,0,0,1,48.194-106.48Zm16.882,8.032a1.016,1.016,0,0,1-.9-.339,2.251,2.251,0,0,1-.437-.939,5.784,5.784,0,0,1-.139-1.217q-.009-.652-.009-1.191v-4.85q0-.33.009-.713a3.886,3.886,0,0,1,.093-.756,3.111,3.111,0,0,1,.242-.7,1.608,1.608,0,0,1,.474-.565,1.48,1.48,0,0,1,.827-.07,1.347,1.347,0,0,1,.651.348,1.743,1.743,0,0,1,.418.669,2.6,2.6,0,0,1,.149.9v2.686q0,.791.009,1.73t.009,2.069q0,.348-.046.834a4.856,4.856,0,0,1-.186.947,2.284,2.284,0,0,1-.418.8A.964.964,0,0,1,65.075-98.448Z" transform="translate(-3.264 110)" fill="#fff"/>
      <g id="Group_7845" data-name="Group 7845" transform="translate(49.396 2.048)">
        <path id="Path_7559" data-name="Path 7559" d="M0,1.039s.5.426.746.238C.956,1.115.971.5.972.326A3.944,3.944,0,0,0,.746,0" transform="matrix(0.996, -0.087, 0.087, 0.996, 5.68, 7.686)" fill="#fff"/>
        <path id="Path_7555" data-name="Path 7555" d="M-19156.771,4777.22s.809.57.783.892-.75.275-.75.275" transform="translate(19163.998 -4772.361)" fill="#fff"/>
        <path id="Path_7558" data-name="Path 7558" d="M-19819.1,5177.822a1.857,1.857,0,0,0-.092.705.972.972,0,0,0,.338.684c.238.161.65.017.9-.152a.7.7,0,0,0,.25-.28" transform="translate(19820.654 -5169.458)" fill="#fff"/>
        <path id="Subtraction_4" data-name="Subtraction 4" d="M3.232,9.42h0a3.56,3.56,0,0,1-.471-.031A3.3,3.3,0,0,1,2.32,9.3a3.153,3.153,0,0,1-.408-.143A3.069,3.069,0,0,1,.9,8.451,3.22,3.22,0,0,1,.42,7.8a2.017,2.017,0,0,1-.169-.424A2.3,2.3,0,0,1,.2,7.091C.188,7.017.185,6.969.185,6.969h0A.134.134,0,0,1,.119,7a.037.037,0,0,1-.03-.014A.089.089,0,0,1,.074,6.93a.608.608,0,0,1,.012-.121c.007-.043.018-.092.031-.147.021-.087.042-.162.047-.177h0a.38.38,0,0,1-.037.039.132.132,0,0,1-.073.04A.036.036,0,0,1,.024,6.55C0,6.519-.007,6.435.012,6.3c.015-.1.045-.256.091-.448C.139,5.7.185,5.515.24,5.309.3,5.07.365,4.851.4,4.741a1.038,1.038,0,0,0,.056.144.854.854,0,0,0,.1.159.832.832,0,0,0,.124.125,1.231,1.231,0,0,0,.139.1.609.609,0,0,0,.192.089h.006a0,0,0,0,0,0,0c0-.012-.044-.053-.106-.109h0a2.827,2.827,0,0,1-.261-.259,1.723,1.723,0,0,1-.183-.272c-.047-.085-.08-.155-.089-.175L.357,4.5h0l0-.008c-.036-.1-.089-.254-.142-.434A5.475,5.475,0,0,1,.075,3.5a2.4,2.4,0,0,1-.047-.544c0-.084.012-.171.024-.259S.082,2.508.1,2.416a3.194,3.194,0,0,1,.187-.582,2.617,2.617,0,0,1,.326-.558,2.265,2.265,0,0,1,.223-.249A2.121,2.121,0,0,1,1.106.81c.068-.046.144-.093.225-.139S1.5.58,1.6.536A5.381,5.381,0,0,1,2.219.294h0A.664.664,0,0,1,2.154.261.264.264,0,0,1,2.11.23C2.1.218,2.091.208,2.092.2S2.1.181,2.122.176A.811.811,0,0,1,2.3.163c.146,0,.317.012.336.013h0A.572.572,0,0,1,2.569.141.231.231,0,0,1,2.523.107.045.045,0,0,1,2.506.069c0-.018.025-.032.066-.043A1.055,1.055,0,0,1,2.791,0c.074,0,.151,0,.227,0,.149,0,.3,0,.447.011.167.009.328.022.478.039a4.363,4.363,0,0,1,.452.075,1.88,1.88,0,0,1,.369.119,1.846,1.846,0,0,1,.365.228,2.187,2.187,0,0,1,.309.3,2.422,2.422,0,0,1,.245.349c.036.062.07.127.1.192a1.116,1.116,0,0,0-.2-.019,1.032,1.032,0,0,0-.245.029.852.852,0,0,0-.214.083.579.579,0,0,0-.265.389,1.075,1.075,0,0,0-.027.248,1.378,1.378,0,0,0,.026.265,1.461,1.461,0,0,0,.077.262,1.291,1.291,0,0,0,.126.239,1.423,1.423,0,0,0,.205.24,1.493,1.493,0,0,0,.248.189,1.261,1.261,0,0,0,.266.123.856.856,0,0,0,.261.044.58.58,0,0,0,.147-.018.46.46,0,0,0,.13-.056.651.651,0,0,0,.108-.087c.015.038.03.077.044.117a4.606,4.606,0,0,1,.155.528c.024.1.044.209.061.314s.033.23.044.349c.027.291.042.587.046.882,0,.251,0,.506-.017.758-.025.434-.07.781-.111,1.064a.614.614,0,0,1-.062.215.1.1,0,0,1-.079.056.1.1,0,0,1-.049-.015.211.211,0,0,1-.042-.033.346.346,0,0,1-.04-.048h0c0,.045,0,.094,0,.137s0,.083-.007.115a.375.375,0,0,1-.019.093.061.061,0,0,1-.057.047.093.093,0,0,1-.044-.013.143.143,0,0,1-.02-.013h0c0,.012-.024.075-.05.141a1.1,1.1,0,0,1-.052.112.294.294,0,0,1-.058.081.074.074,0,0,1-.048.02.081.081,0,0,1-.042-.013.16.16,0,0,1-.034-.028.257.257,0,0,1-.031-.04h0a2.382,2.382,0,0,1-.151.188c-.058.066-.121.132-.187.2-.082.08-.169.157-.258.228a3.467,3.467,0,0,1-.723.451,3.116,3.116,0,0,1-.461.17c-.084.024-.17.044-.254.06s-.179.03-.27.038c-.124.012-.25.018-.374.018ZM1.427,5.568h0a.578.578,0,0,0-.034.07v0h0v0c-.036.08-.1.214-.183.371a2.544,2.544,0,0,1-.154.242h0a.479.479,0,0,0-.1.177.2.2,0,0,0,.023.1.622.622,0,0,0,.092.143.728.728,0,0,0,.092.092.694.694,0,0,0,.118.08.653.653,0,0,0,.311.077h0l.057,0a.63.63,0,0,0,.321-.129,1.243,1.243,0,0,0,.25-.252,1.769,1.769,0,0,0,.162-.255.552.552,0,0,0,.058-.138,0,0,0,0,0,0,0h0a.394.394,0,0,0-.074.08h0a3.139,3.139,0,0,1-.277.3,1.375,1.375,0,0,1-.185.148.676.676,0,0,1-.2.092.47.47,0,0,1-.115.015.46.46,0,0,1-.165-.031.551.551,0,0,1-.135-.076.64.64,0,0,1-.1-.1.512.512,0,0,1-.062-.089c-.016-.03-.022-.052-.017-.061s.04-.07.086-.159.1-.19.152-.31A1,1,0,0,0,1.424,5.7a.349.349,0,0,0,0-.13ZM2.6,1.672a1.069,1.069,0,0,0-.223.024,1.163,1.163,0,0,0-.212.067,1.25,1.25,0,0,0-.2.105,1.316,1.316,0,0,0-.322.3,1.259,1.259,0,0,0-.117.183,1.133,1.133,0,0,0-.08.2,1.008,1.008,0,0,0-.039.206,1.3,1.3,0,0,0,.035.431,1.078,1.078,0,0,0,.182.379,1.127,1.127,0,0,0,.338.3,1.408,1.408,0,0,0,.23.106,1.778,1.778,0,0,0,.272.073,1.315,1.315,0,0,0,.243.024.958.958,0,0,0,.412-.088.894.894,0,0,0,.3-.233,1.122,1.122,0,0,0,.192-.332,1.375,1.375,0,0,0,.056-.189,1.479,1.479,0,0,0,.029-.2,1.391,1.391,0,0,0-.223-.865,1.207,1.207,0,0,0-.142-.175,1.092,1.092,0,0,0-.173-.144,1.012,1.012,0,0,0-.436-.162,1.042,1.042,0,0,0-.13-.008Zm1.917.887a.405.405,0,0,0-.1.013.244.244,0,0,0-.094.049.2.2,0,0,0-.054.073.1.1,0,0,0,0,.092.12.12,0,0,0,.068.048.343.343,0,0,0,.11.016.433.433,0,0,0,.132-.02.322.322,0,0,0,.1-.053.17.17,0,0,0,.056-.072.078.078,0,0,0-.006-.07.156.156,0,0,0-.081-.056A.389.389,0,0,0,4.514,2.559Z" transform="translate(0.514 0)" fill="#fff"/>
        <path id="Path_7547" data-name="Path 7547" d="M-19965.8,4501.852c-.129-.121-1.074-.17-1.008.662s.945.661,1.117.652" transform="translate(19966.813 -4499.398)" fill="#fff"/>
        <g id="Group_6948" data-name="Group 6948" transform="translate(5.268 1.224)">
          <path id="Path_7556" data-name="Path 7556" d="M-19379.1,4372.287a1.215,1.215,0,0,1,1.031.583,1.2,1.2,0,0,1-.256,1.586.577.577,0,0,1-.316.086,1.4,1.4,0,0,1-1.041-.628,1.445,1.445,0,0,1-.211-1.07.652.652,0,0,1,.3-.435A1.007,1.007,0,0,1-19379.1,4372.287Zm.459,2.111a.445.445,0,0,0,.24-.063,1.073,1.073,0,0,0,.211-1.389,1.074,1.074,0,0,0-.91-.516.865.865,0,0,0-.422.1.51.51,0,0,0-.23.343,1.3,1.3,0,0,0,.189.957A1.252,1.252,0,0,0-19378.643,4374.4Z" transform="translate(19379.924 -4372.287)" fill="#fff"/>
        </g>
      </g>
    </g>
    <g id="Group_14409" data-name="Group 14409" transform="translate(217.111 548.132)">
      <g id="Group_14310" data-name="Group 14310" transform="translate(0 0)">
        <g id="Group_14309" data-name="Group 14309" transform="translate(0 0)">
          <g transform="matrix(1, 0, 0, 1, -6, -2)" filter="url(#Union_1)">
            <path id="Union_1-2" data-name="Union 1" d="M101.056,99.276A14.739,14.739,0,0,1,89.487,82.857a15.781,15.781,0,0,1,4.562-9.449A24.894,24.894,0,0,1,88.7,68.2a24.55,24.55,0,0,1-3.239,3.593c-5.18,4.7-11.906,6.657-19.994,5.809-10.431-1.093-18.395-7.6-21.3-17.407q-.623-2.131-1.045-4.383a16.964,16.964,0,0,1-3,.858q-.908.192-1.783.37c.3,1.772.529,3.244.68,4.477A15.831,15.831,0,0,1,25.533,79.321L6.844,67.049c-.024-.116-.051-.26-.077-.406-.861-4.6-1.72-9.583-2.544-14.736l-.484-3.079L3.45,46.951l-.3-1.958C2.092,37.887,1.061,30.284.093,22.4A16.148,16.148,0,0,1,12.754,4.822c1.371-.326,2.769-.642,4.121-.932q1.017-.218,2.017-.422a7.635,7.635,0,0,1,4.161-2.03,30.62,30.62,0,0,1,3.987-.232A7.906,7.906,0,0,1,30,.127c.114-.018.365-.051.48-.063,3.063-.311,8.174.6,10.231,1.007a16.221,16.221,0,0,1,12.8,12.911,15.411,15.411,0,0,1-.187,6.779,15.306,15.306,0,0,1,4.752-.818,7.3,7.3,0,0,1,4.037-.756,7.389,7.389,0,0,1,3.05,1.028c.106.064.21.13.313.2a13.951,13.951,0,0,1,1.469,1.146,7.071,7.071,0,0,1,3.88,2.451,7.14,7.14,0,0,1,3.455-1.342,10.983,10.983,0,0,1,3.194-1.461,8.335,8.335,0,0,1,3.058-.269,7.366,7.366,0,0,1,3.856,1.583,14.6,14.6,0,0,1,9.685,6.868,29.5,29.5,0,0,1,6.349-4.2A35.853,35.853,0,0,1,112,21.752a7.387,7.387,0,0,1,5.207-2.11,8.161,8.161,0,0,1,1.066.07,15.26,15.26,0,0,1,3.663,1,7.4,7.4,0,0,1,2.622-.481,8.887,8.887,0,0,1,4.386,1.265,14.678,14.678,0,0,1,4.742,4.574,15.988,15.988,0,0,1,3.852-5.409c2.519-2.284,6.44-5.045,10.818-5.226a11.121,11.121,0,0,1,1.451.026,7.963,7.963,0,0,1,2.48.622,17.4,17.4,0,0,1,3.531-.081,7.759,7.759,0,0,1,4.557,1.9c3.506.362,6.641.723,9.5,1.092a16.3,16.3,0,0,1,4.245,1.051l9.144,17.833a15.757,15.757,0,0,1-3.319,6.345l-4.409,5.281a13.818,13.818,0,0,1,5.6,4.908,15.778,15.778,0,0,1,2.78,10.931,16.707,16.707,0,0,1-4.66,9.97A14.433,14.433,0,0,1,167.5,79.871c-6.872-.412-14.04-.865-20.192-1.4q-1.9-.166-3.67-.343a18.057,18.057,0,0,1-3.811-.834c-2.059,14.061-13.448,23.09-29.212,23.09A42.821,42.821,0,0,1,101.056,99.276Zm1.594-6.919a35.714,35.714,0,0,0,7.963.927c11.261,0,20.8-5.843,22.241-17.53q.176-1.462.328-2.9a16.216,16.216,0,0,1-2.552-4.108c-.032-.073-.063-.146-.092-.221a14.918,14.918,0,0,1,2.492-15.675l.8-.946a60.974,60.974,0,0,0-1.2-10.2,26.557,26.557,0,0,0-1.762-5.764c-.636-1.427-2.81-6.794-5.407-8.251-2.469-1.386.114,1.743-1.088,1.744a1.053,1.053,0,0,1-.219-.027c-.854-.18-4.941-2.446-6.771-2.649-1.388-.2,1.346,1.833.034,1.834h-.034a29.161,29.161,0,0,0-13.8,2.969,21.611,21.611,0,0,0-7.526,5.993c.045,9.535-1.1,17.31-3.46,23.436,3.808,7.9,13.259,12.255,24.084,9.618-.077,5.534-2.928,6.917-10.094,5.687a10.347,10.347,0,0,0-1.744-.152C95.455,76.138,92.977,90.035,102.65,92.357Zm41.7-21.294q1.726.173,3.578.334c5.738.5,12.394.931,19.957,1.385a7.427,7.427,0,0,0,6.165-2.311,9.665,9.665,0,0,0,2.783-5.873,8.82,8.82,0,0,0-1.635-6.26,7.392,7.392,0,0,0-5.928-3.282l-7.175-.542,12.388-14.839a7.562,7.562,0,0,0,1.327-8.431,7.792,7.792,0,0,0-6.851-5.206c-4.179-.541-8.733-1.032-13.713-1.507-1.386-.133,1.505-1.313,0-1.448a14.831,14.831,0,0,0-4.2.409,14.907,14.907,0,0,1-2.4.439c-1.176-.118,2.563-1.5,0-1.4s-5.457,2.6-6.325,3.385a9.74,9.74,0,0,0-2.842,8.69,7.967,7.967,0,0,0,7.288,6.92l4.66.491L141.046,54.361a133.345,133.345,0,0,1-.439,15.552A9.579,9.579,0,0,0,144.349,71.063ZM24.167,8.449c-1.214.192,1.452.974.168,1.2-1.944.349-3.924.74-5.964,1.177-1.3.279-2.649.584-4.006.907a8.949,8.949,0,0,0-7.21,9.8Q8.626,33.5,10.193,43.945c.1.636.191,1.268.293,1.94.09.591.187,1.222.285,1.858.158,1.016.316,2.02.48,3.047.823,5.151,1.669,10.045,2.525,14.629.9,5.138,5.984,7.625,10.471,6.916l.173-.026a8.754,8.754,0,0,0,7.531-9.935c-.291-2.378-.965-6.081-1.842-11.051,2.54-.4,5.405-.941,8.68-1.63a9.2,9.2,0,0,0,3.488-1.411,60.929,60.929,0,0,1,1.139-14.251c-1.817-1.734-4.54-2.72-8.16-2.22-2.2.348-5.886,1.19-7.833,1.5-.089-1.111-.371-2.885-.747-5.25,5.842-.922,10.23-1.7,13.069-2.411a8.433,8.433,0,0,0,5.684-4.1,9.15,9.15,0,0,0,1.079-6.317,9.014,9.014,0,0,0-7.177-7.195c-.922-.182-6.035-1.121-8.079-.914-1.767.191,1.414,1.2-.322,1.473l-.054.009c-.486.069-1.462-.2-3.045-.279-.26-.013-.544-.019-.837-.019A26.183,26.183,0,0,0,24.167,8.449ZM50.989,58.178c2,6.759,7.386,11.539,15.223,12.361q13.105,1.374,18.663-9.7A27.733,27.733,0,0,1,84.927,44.5a31.5,31.5,0,0,1,3.89-9.008c-.736-4.485-5.013-6.62-8.972-6.2-.827.086.608-1.218-.052-1.288a1.411,1.411,0,0,0-.477.067c-1.638.437-3.172,2.5-3.593,2.826-.707.546-.309-1.133-.626-1.167-.1-.01-.265.137-.554.557-1.223,1.778-1.517,5.182-1.571,6.187l-.027,2.406c-.171,7.359-.371,15.694-4.722,15.463-1.875-.121-2.884-2.711-2.849-6.622a76.708,76.708,0,0,1,1.157-11.7,11,11,0,0,0-.622-6.423c-.351-.837-.543-1.127-.663-1.14s-.166.267-.224.548c-.08.382-.187.764-.557.4a16.764,16.764,0,0,0-2.969-3.114c-.31-.187-.238.181-.2.548.035.312.047.624-.218.6A.524.524,0,0,1,61,27.422c-3.849-1.15-8.573.263-9.928,5.023A16.216,16.216,0,0,1,53.02,37.9a16.4,16.4,0,0,1-3.4,13.219A40.592,40.592,0,0,0,50.989,58.178Zm57.595-4.791a3.007,3.007,0,0,1-.694-4.3c1.233-2.152,3.776-3.305,7.706-3.382.539,3,.847,5.842,1.078,8.455a16.876,16.876,0,0,1-3.792.493A6.785,6.785,0,0,1,108.584,53.386Z" transform="translate(6 2)" fill="#fff"/>
          </g>
          <g id="Group_14302" data-name="Group 14302" transform="translate(4.978 11.301) rotate(-9)">
            <path id="Path_9293" data-name="Path 9293" d="M27.384,43.352c11.148-.343,12.52-18.008-.686-18.265-2.23,0-6,.257-7.975.257.086-1.115.086-2.916.086-5.317,5.917,0,10.376-.086,13.292-.343a8.436,8.436,0,0,0,6.26-3.173,9.2,9.2,0,0,0,2.058-6.088,9.03,9.03,0,0,0-5.963-8.249C33.573,1.849,28.667.119,26.616,0c-1.793-.087,1.271,1.439-.6,1.409C25.52,1.4,24.6.986,23.046.66A26.461,26.461,0,0,0,19.406.211c-1.23,0,1.283,1.192-.023,1.219-1.976.042-3.993.118-6.078.233-1.33.073-2.709.163-4.1.27A8.971,8.971,0,0,0,.544,10.508Q.119,22.59.029,33.184c-.006.645-.011,1.286-.015,1.967,0,.6-.007,1.24-.009,1.885C0,38.066,0,39.086,0,40.129c0,5.231.073,10.211.2,14.885.086,5.231,4.716,8.49,9.261,8.49a8.787,8.787,0,0,0,9.176-8.661c.086-2.4,0-6.174-.086-11.234C21.124,43.609,24.04,43.523,27.384,43.352Z" transform="translate(0 0)" fill="#373842"/>
          </g>
          <g id="Group_14303" data-name="Group 14303" transform="matrix(0.995, 0.105, -0.105, 0.995, 51.262, 24.942)">
            <path id="Path_9293-2" data-name="Path 9293" d="M16.34,9.387a11.055,11.055,0,0,0-1.293-6.342c-1.5-2.737-.462.749-1.455-.036a16.83,16.83,0,0,0-3.281-2.8c-.632-.3.367,1.316-.378,1.176C5.827.617,1.068,2.706.5,8.036c-1.276,9.535,0,18.47,2.7,25.077,2.7,6.532,8.559,10.737,16.443,10.737q23.2,0,19.071-35.964c-.582-5.4-5.557-7.516-9.832-6.607-.939.2.93-1.769-.654-1.162s-2.894,2.827-3.279,3.195c-.845.81-.208-2.385-1.239-.484s-.967,5.327-.914,6.335l.225,2.4c.6,7.358,1.276,15.692-3.078,15.917-1.877.075-3.153-2.4-3.529-6.307A77.029,77.029,0,0,1,16.34,9.387Z" transform="translate(0 0)" fill="#373842"/>
          </g>
          <g id="Group_14304" data-name="Group 14304" transform="translate(90.787 26.529)">
            <path id="Path_9293-3" data-name="Path 9293" d="M38.222-333.9a135.145,135.145,0,0,0,1-23.2,63.128,63.128,0,0,0-1.233-10.946,26.688,26.688,0,0,0-1.763-5.781c-.637-1.431-2.811-6.813-5.41-8.275s.4,2.087-1.307,1.722c-.854-.181-4.943-2.454-6.775-2.657-1.4-.2,1.394,1.873,0,1.838a29.11,29.11,0,0,0-13.807,2.977A21.877,21.877,0,0,0-2.865-363.349c-4.779,16.188,8.479,28.291,24.9,24.282-.077,5.55-2.929,6.938-10.1,5.7C1.144-335.213-2.248-319.719,8-317.252,22.419-313.937,36.449-319.487,38.222-333.9ZM22.034-355.563c-3.623.848-6.321.617-8.094-.771a3.02,3.02,0,0,1-.694-4.317c1.233-2.158,3.777-3.315,7.709-3.392C21.494-361.037,21.8-358.184,22.034-355.563Z" transform="translate(3.852 383.056)" fill="#373842"/>
          </g>
          <g id="Group_14305" data-name="Group 14305" transform="matrix(0.996, 0.087, -0.087, 0.996, 139.998, 21.67)">
            <path id="Path_9293-4" data-name="Path 9293" d="M24.867,30.82l11.05-15.905A7.6,7.6,0,0,0,36.5,6.376a7.8,7.8,0,0,0-7.283-4.6c-4.213-.176-8.794-.269-13.8-.31C14.028,1.451,16.807.02,15.294.016,12.747,0,9.579,1.437,8.795,1.437c-1.182-.015,2.422-1.724-.122-1.4S3.461,3.113,2.664,3.976a9.78,9.78,0,0,0-2.073,8.93A7.981,7.981,0,0,0,8.46,19.184l4.688.084L1.6,35.759a7.88,7.88,0,0,0-.586,8.622A8.266,8.266,0,0,0,8.627,48.9c6.529.084,14.4-.084,23.607-.335a7.423,7.423,0,0,0,5.943-2.846,9.7,9.7,0,0,0,2.26-6.111A8.865,8.865,0,0,0,38.261,33.5a7.391,7.391,0,0,0-6.195-2.762Z" transform="translate(0 0)" fill="#373842"/>
          </g>
        </g>
        <g id="Group_14308" data-name="Group 14308" transform="translate(4.978 4.977)">
          <g id="Group_14302-2" data-name="Group 14302" transform="translate(0 6.324) rotate(-9)">
            <path id="Path_9293-5" data-name="Path 9293" d="M27.384,43.352c11.148-.343,12.52-18.008-.686-18.265-2.23,0-6,.257-7.975.257.086-1.115.086-2.916.086-5.317,5.917,0,10.376-.086,13.292-.343a8.436,8.436,0,0,0,6.26-3.173,9.2,9.2,0,0,0,2.058-6.088,9.03,9.03,0,0,0-5.963-8.249C33.573,1.849,28.667.119,26.616,0c-1.793-.087,1.271,1.439-.6,1.409C25.52,1.4,24.6.986,23.046.66A26.461,26.461,0,0,0,19.406.211c-1.23,0,1.283,1.192-.023,1.219-1.976.042-3.993.118-6.078.233-1.33.073-2.709.163-4.1.27A8.971,8.971,0,0,0,.544,10.508Q.119,22.59.029,33.184c-.006.645-.011,1.286-.015,1.967,0,.6-.007,1.24-.009,1.885C0,38.066,0,39.086,0,40.129c0,5.231.073,10.211.2,14.885.086,5.231,4.716,8.49,9.261,8.49a8.787,8.787,0,0,0,9.176-8.661c.086-2.4,0-6.174-.086-11.234C21.124,43.609,24.04,43.523,27.384,43.352Z" transform="translate(0 0)" fill="#373842"/>
          </g>
          <g id="Group_14303-2" data-name="Group 14303" transform="matrix(0.995, 0.105, -0.105, 0.995, 46.285, 19.96)">
            <path id="Path_9293-6" data-name="Path 9293" d="M16.34,9.387a11.055,11.055,0,0,0-1.293-6.342c-1.5-2.737-.462.749-1.455-.036a16.83,16.83,0,0,0-3.281-2.8c-.632-.3.367,1.316-.378,1.176C5.827.617,1.068,2.706.5,8.036c-1.276,9.535,0,18.47,2.7,25.077,2.7,6.532,8.559,10.737,16.443,10.737q23.2,0,19.071-35.964c-.582-5.4-5.557-7.516-9.832-6.607-.939.2.93-1.769-.654-1.162s-2.894,2.827-3.279,3.195c-.845.81-.208-2.385-1.239-.484s-.967,5.327-.914,6.335l.225,2.4c.6,7.358,1.276,15.692-3.078,15.917-1.877.075-3.153-2.4-3.529-6.307A77.029,77.029,0,0,1,16.34,9.387Z" transform="translate(0 0)" fill="#373842"/>
          </g>
          <g id="Group_14304-2" data-name="Group 14304" transform="translate(85.808 21.552)">
            <path id="Path_9293-7" data-name="Path 9293" d="M38.222-333.9a135.145,135.145,0,0,0,1-23.2,63.128,63.128,0,0,0-1.233-10.946,26.688,26.688,0,0,0-1.763-5.781c-.637-1.431-2.811-6.813-5.41-8.275s.4,2.087-1.307,1.722c-.854-.181-4.943-2.454-6.775-2.657-1.4-.2,1.394,1.873,0,1.838a29.11,29.11,0,0,0-13.807,2.977A21.877,21.877,0,0,0-2.865-363.349c-4.779,16.188,8.479,28.291,24.9,24.282-.077,5.55-2.929,6.938-10.1,5.7C1.144-335.213-2.248-319.719,8-317.252,22.419-313.937,36.449-319.487,38.222-333.9ZM22.034-355.563c-3.623.848-6.321.617-8.094-.771a3.02,3.02,0,0,1-.694-4.317c1.233-2.158,3.777-3.315,7.709-3.392C21.494-361.037,21.8-358.184,22.034-355.563Z" transform="translate(3.852 383.056)" fill="#373842"/>
          </g>
          <g id="Group_14305-2" data-name="Group 14305" transform="matrix(0.996, 0.087, -0.087, 0.996, 135.02, 16.689)">
            <path id="Path_9293-8" data-name="Path 9293" d="M24.867,30.82l11.05-15.905A7.6,7.6,0,0,0,36.5,6.376a7.8,7.8,0,0,0-7.283-4.6c-4.213-.176-8.794-.269-13.8-.31C14.028,1.451,16.807.02,15.294.016,12.747,0,9.579,1.437,8.795,1.437c-1.182-.015,2.422-1.724-.122-1.4S3.461,3.113,2.664,3.976a9.78,9.78,0,0,0-2.073,8.93A7.981,7.981,0,0,0,8.46,19.184l4.688.084L1.6,35.759a7.88,7.88,0,0,0-.586,8.622A8.266,8.266,0,0,0,8.627,48.9c6.529.084,14.4-.084,23.607-.335a7.423,7.423,0,0,0,5.943-2.846,9.7,9.7,0,0,0,2.26-6.111A8.865,8.865,0,0,0,38.261,33.5a7.391,7.391,0,0,0-6.195-2.762Z" transform="translate(0 0)" fill="#373842"/>
          </g>
        </g>
      </g>
      <path id="Path_24321" data-name="Path 24321" d="M.221,0,10.9,17.026s-6.429-.951-9.1-5.208S.221,0,.221,0Z" transform="matrix(0.996, 0.087, -0.087, 0.996, 173.899, 20.015)" fill="#e0dfdf"/>
      <path id="Path_24322" data-name="Path 24322" d="M0,0,16.542,15.08A13.972,13.972,0,0,0,11.27,4.525,17.925,17.925,0,0,0,0,0Z" transform="translate(6.848 67.019) rotate(-9)" fill="#e0dfdf"/>
    </g>
  </g>
</svg>
