<svg xmlns="http://www.w3.org/2000/svg" width="55.733" height="44" viewBox="0 0 55.733 44">
  <g id="discord-svgrepo-com_1_" data-name="discord-svgrepo-com (1)" transform="translate(-19.633 -37)">
    <path id="Path_24329" data-name="Path 24329" d="M37.761,73.435,34.978,79a64.375,64.375,0,0,1-11.117-5.5,4.906,4.906,0,0,1-2.218-4.017A49.168,49.168,0,0,1,28.38,43.913a5.482,5.482,0,0,1,2.98-2.454A43.641,43.641,0,0,1,39.848,39l2.087,3.826a19.251,19.251,0,0,1,5.565-.7,19.251,19.251,0,0,1,5.565.7L55.152,39a43.641,43.641,0,0,1,8.488,2.458,5.482,5.482,0,0,1,2.98,2.454,49.172,49.172,0,0,1,6.737,25.575A4.907,4.907,0,0,1,71.138,73.5,64.363,64.363,0,0,1,60.021,79l-2.783-5.565M33.587,70.652S40.543,74.13,47.5,74.13s13.913-3.478,13.913-3.478" transform="translate(0)" fill="none" stroke="#fff" stroke-linecap="round" stroke-linejoin="round" stroke-width="4"/>
    <ellipse id="Ellipse_631" data-name="Ellipse 631" cx="4.522" cy="5.217" rx="4.522" ry="5.217" transform="translate(34.282 55.348)" fill="#fff"/>
    <ellipse id="Ellipse_632" data-name="Ellipse 632" cx="4.522" cy="5.217" rx="4.522" ry="5.217" transform="translate(51.674 55.348)" fill="#fff"/>
  </g>
</svg>
