<svg id="Color-" xmlns="http://www.w3.org/2000/svg" width="56.471" height="40" viewBox="0 0 56.471 40">
  <path id="Youtube" d="M222.4,395.376l0-15.979,15.258,8.017Zm33.5-18.748s-.552-3.919-2.245-5.644A8.036,8.036,0,0,0,248,368.576C240.1,368,228.248,368,228.248,368h-.025s-11.854,0-19.756.576a8.04,8.04,0,0,0-5.659,2.408c-1.692,1.726-2.243,5.644-2.243,5.644a86.638,86.638,0,0,0-.565,9.2v4.315a86.6,86.6,0,0,0,.565,9.2s.551,3.919,2.243,5.644c2.149,2.266,4.971,2.195,6.228,2.431,4.518.437,19.2.572,19.2.572s11.866-.018,19.768-.594a8.048,8.048,0,0,0,5.658-2.41c1.692-1.726,2.245-5.644,2.245-5.644a86.6,86.6,0,0,0,.565-9.2v-4.315a86.634,86.634,0,0,0-.565-9.2Z" transform="translate(-200 -368)" fill="#fff" fill-rule="evenodd"/>
</svg>
