<svg xmlns="http://www.w3.org/2000/svg" width="34.553" height="40" viewBox="0 0 34.553 40">
  <g id="Group_14383" data-name="Group 14383" transform="translate(-730 -4089.028)">
    <g id="Group_7858" data-name="Group 7858" transform="translate(733.589 4091.62)">
      <g id="Group_7857" data-name="Group 7857" transform="translate(0 0)">
        <path id="Path_8830" data-name="Path 8830" d="M42.364,19.3v6.179c-.332,0-.731.066-1.13.066a12.319,12.319,0,0,1-7.907-2.924V35.778A11.864,11.864,0,0,1,11.4,42.157a11.866,11.866,0,0,0,8.106,3.256,11.641,11.641,0,0,0,9.435-4.784,12.086,12.086,0,0,0,2.392-7.176V20.23a11.841,11.841,0,0,0,7.907,2.924,6.446,6.446,0,0,0,1.13-.066V19.1a7.661,7.661,0,0,0,1.728.2Z" transform="translate(-11.4 -10.329)" fill="rgba(255,255,255,0.4)"/>
        <path id="Path_8831" data-name="Path 8831" d="M24.6,26.266V33.11a5.534,5.534,0,0,0-1.462-.2,5.4,5.4,0,0,0-5.316,5.449,5.765,5.765,0,0,0,.332,1.86A5.534,5.534,0,0,1,15.9,35.835a5.4,5.4,0,0,1,5.316-5.449,5.182,5.182,0,0,1,1.462.2V26.2h.4A11.264,11.264,0,0,1,24.6,26.266Z" transform="translate(-12.91 -12.712)" fill="rgba(255,255,255,0.4)"/>
        <path id="Path_8832" data-name="Path 8832" d="M44.625,9.953A8.937,8.937,0,0,1,42.1,5.9h1.595v.93A10.554,10.554,0,0,0,44.625,9.953Z" transform="translate(-21.701 -5.9)" fill="rgba(255,255,255,0.4)"/>
      </g>
    </g>
    <path id="Path_8833" data-name="Path 8833" d="M39.564,14.737v3.987a6.08,6.08,0,0,1-1.13.066,12.319,12.319,0,0,1-7.907-2.924V29.023a11.8,11.8,0,0,1-19.934,8.7A12.052,12.052,0,0,1,8.8,31.415,11.89,11.89,0,0,1,20.3,19.521v4.385a5.534,5.534,0,0,0-1.462-.2,5.4,5.4,0,0,0-5.316,5.449,5.263,5.263,0,0,0,2.259,4.385,5.292,5.292,0,0,0,10.3-1.86V5.9h4.851a8.6,8.6,0,0,0,2.525,4.053A9.115,9.115,0,0,0,39.564,14.737Z" transform="translate(723.061 4085.719)" fill="#fff"/>
    <g id="Group_7861" data-name="Group 7861" transform="translate(730 4089.028)">
      <g id="Group_7860" data-name="Group 7860">
        <g id="Group_7859" data-name="Group 7859">
          <path id="Path_8834" data-name="Path 8834" d="M19.356,22.733v2.259A11.89,11.89,0,0,0,7.86,36.886,12.052,12.052,0,0,0,9.655,43.2,12.028,12.028,0,0,1,6,34.494,11.868,11.868,0,0,1,17.827,22.6,10.907,10.907,0,0,1,19.356,22.733Z" transform="translate(-6 -8.912)" fill="rgba(255,255,255,0.4)"/>
          <path id="Path_8835" data-name="Path 8835" d="M34.45,4.591H29.6V30.239a5.4,5.4,0,0,1-5.316,5.449A5.228,5.228,0,0,1,19.3,32.1a5.413,5.413,0,0,0,3.057,1,5.346,5.346,0,0,0,5.316-5.382V2h6.445v.133a3.235,3.235,0,0,0,.066.8A7.214,7.214,0,0,0,34.45,4.591Z" transform="translate(-10.463 -2)" fill="rgba(255,255,255,0.4)"/>
        </g>
      </g>
      <path id="Path_8836" data-name="Path 8836" d="M51.979,14.326h0v2.392A9.1,9.1,0,0,1,45.8,12,8.631,8.631,0,0,0,51.979,14.326Z" transform="translate(-19.355 -5.355)" fill="rgba(255,255,255,0.4)"/>
    </g>
  </g>
</svg>
