<svg xmlns="http://www.w3.org/2000/svg" width="39.998" height="40" viewBox="0 0 39.998 40">
  <path id="Path_24325" data-name="Path 24325" d="M13.334,20A6.666,6.666,0,1,1,20,26.667,6.666,6.666,0,0,1,13.334,20m-3.6,0A10.27,10.27,0,1,0,20,9.73,10.27,10.27,0,0,0,9.73,20M28.276,9.323a2.4,2.4,0,1,0,2.4-2.4h0a2.4,2.4,0,0,0-2.4,2.4M11.92,36.28a11.054,11.054,0,0,1-3.714-.688,6.216,6.216,0,0,1-2.3-1.5,6.171,6.171,0,0,1-1.5-2.3,11.044,11.044,0,0,1-.688-3.714c-.1-2.108-.116-2.741-.116-8.082s.021-5.972.116-8.082A11.127,11.127,0,0,1,4.409,8.2a6.216,6.216,0,0,1,1.5-2.3,6.164,6.164,0,0,1,2.3-1.5,11.044,11.044,0,0,1,3.714-.688c2.108-.1,2.741-.116,8.08-.116s5.972.021,8.082.116a11.127,11.127,0,0,1,3.714.688,6.2,6.2,0,0,1,2.3,1.5,6.2,6.2,0,0,1,1.5,2.3,11.044,11.044,0,0,1,.688,3.714c.1,2.11.116,2.741.116,8.082s-.019,5.972-.116,8.082a11.1,11.1,0,0,1-.688,3.714,6.622,6.622,0,0,1-3.8,3.795,11.044,11.044,0,0,1-3.714.688c-2.108.1-2.741.116-8.082.116s-5.972-.019-8.08-.116M11.754.121A14.665,14.665,0,0,0,6.9,1.05,9.81,9.81,0,0,0,3.357,3.357,9.772,9.772,0,0,0,1.05,6.9a14.67,14.67,0,0,0-.929,4.855C.023,13.887,0,14.569,0,20s.023,6.113.121,8.246A14.669,14.669,0,0,0,1.05,33.1a9.777,9.777,0,0,0,2.307,3.543A9.834,9.834,0,0,0,6.9,38.95a14.678,14.678,0,0,0,4.855.929c2.134.1,2.814.121,8.246.121s6.113-.023,8.246-.121A14.669,14.669,0,0,0,33.1,38.95a10.225,10.225,0,0,0,5.85-5.85,14.628,14.628,0,0,0,.929-4.855c.1-2.134.12-2.814.12-8.246s-.023-6.113-.12-8.246A14.664,14.664,0,0,0,38.95,6.9a9.835,9.835,0,0,0-2.307-3.543A9.786,9.786,0,0,0,33.1,1.05,14.646,14.646,0,0,0,28.247.121C26.115.024,25.433,0,20,0s-6.114.023-8.247.121" fill="#fbfbfb"/>
</svg>
