<svg xmlns="http://www.w3.org/2000/svg" xmlns:xlink="http://www.w3.org/1999/xlink" width="562.528" height="313.039" viewBox="0 0 562.528 313.039">
  <defs>
    <filter id="Union_1" x="0" y="0" width="562.528" height="313.039" filterUnits="userSpaceOnUse">
      <feOffset dy="4" input="SourceAlpha"/>
      <feGaussianBlur stdDeviation="2" result="blur"/>
      <feFlood flood-opacity="0.161"/>
      <feComposite operator="in" in2="blur"/>
      <feComposite in="SourceGraphic"/>
    </filter>
  </defs>
  <g id="OBJECTS" transform="translate(-377.639 129.076)">
    <g id="Group_13980" data-name="Group 13980" transform="translate(405.781 -114.302)">
      <path id="Path_13860" data-name="Path 13860" d="M19.739,6.862a5.316,5.316,0,0,1-.488,2.7,3.486,3.486,0,0,1-1.418,1.427,5.554,5.554,0,0,1-1.976.6q-1.092.128-2.115.213l.186,10.944q0,1.533-.116,3.023T13.7,28.707a3.907,3.907,0,0,1-1.023,3.066,4.711,4.711,0,0,1-3.161.894A3.233,3.233,0,0,1,6.839,31.6a4.066,4.066,0,0,1-.86-2.64q0-2.087.023-3.769t.023-3.279q0-1.6.023-3.279t.023-3.769l.139-2.938a15.855,15.855,0,0,1-1.79-.213,7.18,7.18,0,0,1-1.859-.575,4.233,4.233,0,0,1-1.441-1.086A2.727,2.727,0,0,1,.54,8.225,6.7,6.7,0,0,1,.679,7.1a3.237,3.237,0,0,1,.744-1.469A5.069,5.069,0,0,1,3.236,4.35,7.978,7.978,0,0,1,6.63,3.839q.883.043,2.022.021t2.417-.021q1.278,0,2.557.043a16.066,16.066,0,0,1,2.417.255,8.447,8.447,0,0,1,2.045.639,3.525,3.525,0,0,1,1.418,1.15v.043A2.217,2.217,0,0,1,19.739,6.862ZM28.2,15.8a6.043,6.043,0,0,1,3.487-1.15,9.114,9.114,0,0,1,3.742.7,9.707,9.707,0,0,1,3.184,2.15,6.635,6.635,0,0,1,1.813,3.109,14.89,14.89,0,0,1,.721,4.961,26.357,26.357,0,0,1-.535,5.216,2.8,2.8,0,0,1-.837.916,4.729,4.729,0,0,1-1.232.639,6.6,6.6,0,0,1-1.395.319,5.164,5.164,0,0,1-1.325,0,1.763,1.763,0,0,1-1.255-.681,2.667,2.667,0,0,1-.558-1.32,16.989,16.989,0,0,1-.07-1.959q.023-.937.023-1.874t-.07-1.874a12.227,12.227,0,0,0-.3-1.916,1.767,1.767,0,0,0-.814-.873,3.177,3.177,0,0,0-1.232-.383,2.884,2.884,0,0,0-1.255.149,1.512,1.512,0,0,0-.883.766,5.676,5.676,0,0,0-.628,1.98,14.63,14.63,0,0,0-.093,2.023l.046,2.044a10.694,10.694,0,0,1-.163,2.087,2.532,2.532,0,0,1-1.534,1.576,4.641,4.641,0,0,1-2.278.277,4.221,4.221,0,0,1-2.092-.873,2.478,2.478,0,0,1-.976-1.959q0-3.151-.07-6.047T21.506,18.1q-.046-2.81,0-5.642t.186-5.855a2.391,2.391,0,0,1,.883-1.363A3.8,3.8,0,0,1,24.156,4.5a3.908,3.908,0,0,1,1.767.021,2.6,2.6,0,0,1,1.441.894,13.722,13.722,0,0,1,.558,2.81q.093,1.235.07,2.385t-.046,2.385A14.717,14.717,0,0,0,28.2,15.8ZM58.7,31.56a8.744,8.744,0,0,1-2.51.83,11.174,11.174,0,0,1-2.65.149,34.093,34.093,0,0,1-4.161-.7,8.4,8.4,0,0,1-3.649-1.81,10.053,10.053,0,0,1-2.58-4.705,9.827,9.827,0,0,1,.093-5.11A9.275,9.275,0,0,1,46,15.911a9.56,9.56,0,0,1,5.346-2.278,15.206,15.206,0,0,1,4.021-.064,7.527,7.527,0,0,1,3.649,1.384A7.1,7.1,0,0,1,60.486,16.7a6.392,6.392,0,0,1,.79,2.065,5.4,5.4,0,0,1-.023,2.172,4.613,4.613,0,0,1-1.023,2.023,7.187,7.187,0,0,1-2.417,1.15,15.2,15.2,0,0,1-2.7.447q-1.395.106-2.812.085t-2.766.021a2.05,2.05,0,0,0,.86,1.3,2.94,2.94,0,0,0,1.65.575,9.669,9.669,0,0,0,1.813,0q.93-.085,1.859-.149a13.212,13.212,0,0,1,1.836,0,4.509,4.509,0,0,1,1.743.49A2.567,2.567,0,0,1,60.09,28a2.987,2.987,0,0,1,.163,1.32,2.78,2.78,0,0,1-.465,1.256A3.031,3.031,0,0,1,58.7,31.56Zm-8.228-10.9a8.062,8.062,0,0,0,3.068.021q.93-.277,1.069-.766a.939.939,0,0,0-.349-.958,2.133,2.133,0,0,0-1.185-.575,2.109,2.109,0,0,0-1.464.383A3.069,3.069,0,0,0,50.467,20.659Z" transform="translate(151.084 -4.62)" fill="#373843"/>
      <path id="Path_13861" data-name="Path 13861" d="M6.278-12.191a5.05,5.05,0,0,1-2.627-.539,2.775,2.775,0,0,1-1.185-1.465,6.065,6.065,0,0,1-.3-2.133q.023-1.206.023-2.5,0-2.585-.163-5.192t-.163-4.976q0-.991-.07-2.2t-.116-2.456A21.525,21.525,0,0,1,1.722-36.1a8.387,8.387,0,0,1,.418-2.133,3.67,3.67,0,0,1,.953-1.508,2.557,2.557,0,0,1,1.7-.625,10.1,10.1,0,0,1,1.929-.28q1.371-.108,2.905-.129t2.929-.022H14.6a27.4,27.4,0,0,1,2.789.129,5.181,5.181,0,0,1,2.045.582A2.191,2.191,0,0,1,20.48-38.71a4.812,4.812,0,0,1-.209,2.521,2.593,2.593,0,0,1-1.6,1.659,9.526,9.526,0,0,1-2.766.625,23.705,23.705,0,0,1-3.022.065q-1.488-.065-2.278-.065v3.921q1.162-.129,2.72-.215a11.915,11.915,0,0,1,2.905.172,5.229,5.229,0,0,1,2.3,1.013,2.76,2.76,0,0,1,.953,2.305,2.155,2.155,0,0,1-.535,1.551,3.306,3.306,0,0,1-1.371.84,7.418,7.418,0,0,1-1.906.345q-1.069.065-2.138.086l-2.022.043a6.986,6.986,0,0,0-1.6.194q-.139,3.059-.07,5.235a20.2,20.2,0,0,1-.139,3.555,3.219,3.219,0,0,1-.953,2.025A3.744,3.744,0,0,1,6.278-12.191Zm34.354-2.37a1.8,1.8,0,0,1-.511,1.917,3.455,3.455,0,0,1-2.185.711A5.1,5.1,0,0,1,35.89-12.3a15.466,15.466,0,0,1-1.767-.926q-1.023.086-2.185.3t-2.348.323a14.254,14.254,0,0,1-2.348.022,5.734,5.734,0,0,1-2.185-.6,4.709,4.709,0,0,1-2.069-2.09,7.584,7.584,0,0,1-.883-3.038,6.647,6.647,0,0,1,.488-3.059,4.23,4.23,0,0,1,2-2.2q.7-.345,1.278-.582a6.616,6.616,0,0,1,1.255-.366q.674-.129,1.511-.215t2.045-.129q1.116-1.077-.3-1.53t-5.137.409a2.277,2.277,0,0,1-1.813-1.12,2.782,2.782,0,0,1-.232-1.939A4.348,4.348,0,0,1,24.268-31a3.751,3.751,0,0,1,2.045-1.185,19.393,19.393,0,0,1,7.066,0,9.711,9.711,0,0,1,4.858,2.37,7.192,7.192,0,0,1,2.138,4.395,11.6,11.6,0,0,1-1.092,6.032A1.843,1.843,0,0,0,39-18.051a3.822,3.822,0,0,0,.488,1.163l.7,1.12A3.093,3.093,0,0,1,40.632-14.561Zm-10.646-3.1a1.253,1.253,0,0,0,1.092-.172,2,2,0,0,0,.767-.862,1.218,1.218,0,0,0,.023-1.013q-.209-.5-1.092-.625a2.248,2.248,0,0,0-1.557.172,1.361,1.361,0,0,0-.7.84,1.219,1.219,0,0,0,.256,1.013A1.733,1.733,0,0,0,29.986-17.663Zm32.541-8.1a1.455,1.455,0,0,0-1.464,1.013,8.483,8.483,0,0,0-.488,2.542q-.093,1.53-.046,3.318a20.587,20.587,0,0,1-.163,3.318,6.213,6.213,0,0,1-.86,2.542,2.255,2.255,0,0,1-2.045,1.013,3.094,3.094,0,0,1-1.7-.431,3.057,3.057,0,0,1-1.046-1.1,5.1,5.1,0,0,1-.535-1.443A7.337,7.337,0,0,1,54.02-16.5q0-1.249.046-2.542t.046-2.542a10.976,10.976,0,0,0-.093-1.379,6.469,6.469,0,0,0-.325-1.379,3.38,3.38,0,0,0-.6-1.077,1.178,1.178,0,0,0-.93-.431,1.593,1.593,0,0,0-1.6.9,6.078,6.078,0,0,0-.6,2.262,17.573,17.573,0,0,0-.023,2.714q.093,1.4.093,2.305a13.617,13.617,0,0,1-.139,1.9,5.347,5.347,0,0,1-.581,1.81A3.683,3.683,0,0,1,48.023-12.6a4.076,4.076,0,0,1-2.231.539,2.3,2.3,0,0,1-1.534-.474,3.139,3.139,0,0,1-.86-1.185,5,5,0,0,1-.372-1.551q-.07-.84-.07-1.53,0-1.12-.023-2.348T42.91-21.5q0-.646-.046-1.68t-.046-2.2q0-1.163.116-2.348a9.392,9.392,0,0,1,.442-2.133,3.972,3.972,0,0,1,.93-1.551,2.14,2.14,0,0,1,1.581-.6,5.452,5.452,0,0,1,1.278.151,4.593,4.593,0,0,1,1.139.431,2.725,2.725,0,0,1,.86.732,1.882,1.882,0,0,1,.4,1.013,17.015,17.015,0,0,1,2.3-1.637,5.222,5.222,0,0,1,2.72-.732A7.92,7.92,0,0,1,56-31.9a11.35,11.35,0,0,1,1.627.431,6.431,6.431,0,0,1,1.464.711,2.6,2.6,0,0,1,.93.991,6.782,6.782,0,0,1,2.115-1.616,6.078,6.078,0,0,1,2.627-.539,5.731,5.731,0,0,1,3.812,1.142,6.712,6.712,0,0,1,1.976,2.822,12.361,12.361,0,0,1,.744,3.6q.116,1.917.116,3.468,0,1.12.023,2.65a12.652,12.652,0,0,1-.279,2.908,5.268,5.268,0,0,1-1.162,2.37,3.293,3.293,0,0,1-2.627.991,2.025,2.025,0,0,1-1.534-.582,3.957,3.957,0,0,1-.86-1.422,6.639,6.639,0,0,1-.372-1.745q-.07-.9-.07-1.551,0-1.551-.07-3.124t-.07-3.081a2.555,2.555,0,0,0-.116-.732,2.681,2.681,0,0,0-.349-.732,2.154,2.154,0,0,0-.581-.582A1.412,1.412,0,0,0,62.528-25.763Zm15.666-8.919a4.837,4.837,0,0,1-3.184-.689,2.88,2.88,0,0,1-1.3-1.874,2.341,2.341,0,0,1,.721-2,4.323,4.323,0,0,1,2.882-1.12,3.174,3.174,0,0,1,2.464.625,2.671,2.671,0,0,1,.93,1.788,3.035,3.035,0,0,1-.558,2A3.077,3.077,0,0,1,78.194-34.682ZM76.939-32.4a2.655,2.655,0,0,1,2.231.474,3.892,3.892,0,0,1,1.139,1.982,12.476,12.476,0,0,1,.372,3.059q.023,1.767-.07,3.727t-.163,3.964a26.3,26.3,0,0,0,.116,3.727,2.72,2.72,0,0,1-.7,2.025,3.485,3.485,0,0,1-2.278,1.163,3.239,3.239,0,0,1-1.581-.129,3.7,3.7,0,0,1-1.255-.711,3.572,3.572,0,0,1-.814-1.034,1.7,1.7,0,0,1-.209-1.1,31.216,31.216,0,0,1-.209-3.3q-.023-1.745,0-3.533t.07-3.533q.047-1.745,0-3.339a4.74,4.74,0,0,1,.256-1.12,3.986,3.986,0,0,1,.6-1.12,3.209,3.209,0,0,1,1.023-.862A2.994,2.994,0,0,1,76.939-32.4ZM87.445-12.493a2.552,2.552,0,0,1-2.255-.84A5.558,5.558,0,0,1,84.1-15.66a14.213,14.213,0,0,1-.349-3.016q-.023-1.616-.023-2.951V-33.648q0-.819.023-1.767a9.552,9.552,0,0,1,.232-1.874,7.668,7.668,0,0,1,.6-1.723,3.993,3.993,0,0,1,1.185-1.4,3.731,3.731,0,0,1,2.069-.172,3.378,3.378,0,0,1,1.627.862,4.315,4.315,0,0,1,1.046,1.659,6.391,6.391,0,0,1,.372,2.219v6.657q0,1.96.023,4.287t.023,5.127q0,.862-.116,2.068a11.942,11.942,0,0,1-.465,2.348A5.645,5.645,0,0,1,89.3-13.376,2.419,2.419,0,0,1,87.445-12.493Zm6.6-3.878a9.975,9.975,0,0,1-.674-2.521,23.035,23.035,0,0,1-.232-2.951q-.023-1.508.07-2.973t.232-2.628a8.788,8.788,0,0,1,.186-1.185,6.521,6.521,0,0,1,.4-1.206A4.045,4.045,0,0,1,94.7-30.89a2.4,2.4,0,0,1,1.069-.689,5.1,5.1,0,0,1,1.278.086,6.248,6.248,0,0,1,1.371.409,3.964,3.964,0,0,1,1.139.732,1.766,1.766,0,0,1,.581,1.013,6.232,6.232,0,0,1,.3,1.96q.023,1.185,0,2.456t0,2.456a6.231,6.231,0,0,0,.3,1.96,4.477,4.477,0,0,0,1.511,2q.814.5,1.976-.883a5.3,5.3,0,0,0,.6-2.456q.046-1.465-.023-2.994t-.023-2.973a5.253,5.253,0,0,1,.6-2.434,2.782,2.782,0,0,1,1.162-1.228,4.172,4.172,0,0,1,1.7-.539,4.724,4.724,0,0,1,1.79.172,2.948,2.948,0,0,1,1.441.9,3.064,3.064,0,0,1,.814,1.573q.163.883.3,1.745,0,2.327.163,4.955t.093,5.278a31.574,31.574,0,0,1-.581,5.256,15.525,15.525,0,0,1-1.813,4.847,8.09,8.09,0,0,1-2.6,2.327,10.3,10.3,0,0,1-3.161,1.12,16.184,16.184,0,0,1-3.463.237q-1.79-.065-3.6-.28a4.134,4.134,0,0,1-1.65-.582,3.626,3.626,0,0,1-1.139-1.1,2.528,2.528,0,0,1-.418-1.4,2.575,2.575,0,0,1,.511-1.486A5.119,5.119,0,0,1,96-9.477a3.2,3.2,0,0,1,1.069-.474,4.131,4.131,0,0,1,1.209-.086q.651.043,1.488.086a8.817,8.817,0,0,0,1.7.108,6.278,6.278,0,0,0,1.767-.28A3.578,3.578,0,0,0,104.6-10.9a1.689,1.689,0,0,0,.558-1.293q-1.674.129-3.324.108a11.52,11.52,0,0,1-3.115-.452,8.642,8.642,0,0,1-2.7-1.336A6.354,6.354,0,0,1,94.046-16.37Z" transform="translate(404.097 282.6)" fill="#373843"/>
      <g id="Group_14376" data-name="Group 14376" transform="translate(-22.141 -12.774)">
        <g id="Group_14310" data-name="Group 14310" transform="translate(0)">
          <g id="Group_14309" data-name="Group 14309" transform="translate(0 0)">
            <g transform="matrix(1, 0, 0, 1, -6, -2)" filter="url(#Union_1)">
              <path id="Union_1-2" data-name="Union 1" d="M302.324,297.718c-23.241-5.591-37.387-25.816-34.608-49.237a47.372,47.372,0,0,1,13.648-28.336,74.558,74.558,0,0,1-16-15.631,73.563,73.563,0,0,1-9.69,10.775c-15.5,14.1-35.62,19.964-59.815,17.421-31.206-3.278-55.031-22.794-63.732-52.2q-1.862-6.39-3.125-13.144a50.659,50.659,0,0,1-8.98,2.572q-2.716.576-5.335,1.109c.9,5.314,1.583,9.73,2.035,13.427,3.648,25.594-14.043,49.237-40.334,53.4l-55.913-36.8c-.071-.349-.154-.78-.23-1.216-2.575-13.795-5.146-28.739-7.611-44.193l-1.447-9.234-.863-5.629-.884-5.871C6.257,113.619,3.173,90.82.277,67.165c-2.6-25,13.346-47,37.878-52.7,4.1-.978,8.285-1.927,12.329-2.794q3.044-.654,6.034-1.265A22.819,22.819,0,0,1,68.968,4.312,91.386,91.386,0,0,1,80.9,3.617,23.616,23.616,0,0,1,89.755.38C90.1.325,90.847.225,91.191.19c9.164-.931,24.454,1.8,30.606,3.019a48.589,48.589,0,0,1,38.3,38.718,46.324,46.324,0,0,1-.56,20.329A45.692,45.692,0,0,1,173.752,59.8a21.781,21.781,0,0,1,12.078-2.268,22.068,22.068,0,0,1,9.124,3.084c.316.192.629.391.935.6a41.751,41.751,0,0,1,4.4,3.437A21.147,21.147,0,0,1,211.892,72a21.331,21.331,0,0,1,10.337-4.024,32.818,32.818,0,0,1,9.556-4.381,24.878,24.878,0,0,1,9.149-.805,22.009,22.009,0,0,1,11.535,4.747c12.745,2.774,22.971,10.257,28.973,20.6a88.25,88.25,0,0,1,18.994-12.588,107.065,107.065,0,0,1,34.625-10.315A22.072,22.072,0,0,1,350.64,58.9a24.355,24.355,0,0,1,3.188.211,45.566,45.566,0,0,1,10.958,3.01,22.075,22.075,0,0,1,7.846-1.443,26.539,26.539,0,0,1,13.121,3.794c5.657,3.183,10.284,8.071,14.187,13.717a47.943,47.943,0,0,1,11.525-16.22C419,55.125,430.73,46.845,443.829,46.3a33.187,33.187,0,0,1,4.34.079,23.776,23.776,0,0,1,7.419,1.865A51.928,51.928,0,0,1,466.153,48a23.185,23.185,0,0,1,13.633,5.693c10.488,1.086,19.867,2.167,28.419,3.276a48.674,48.674,0,0,1,12.7,3.152L548.26,113.6a47.293,47.293,0,0,1-9.93,19.028l-13.19,15.838a41.37,41.37,0,0,1,16.739,14.719c6.874,10.184,9.671,21.21,8.318,32.782-1.058,11.068-5.747,21.125-13.94,29.9-8.912,9.659-21.1,14.413-35.156,13.655-20.559-1.235-42-2.593-60.409-4.2q-5.684-.5-10.979-1.029a53.91,53.91,0,0,1-11.4-2.5c-6.159,42.167-40.232,69.246-87.392,69.246A127.808,127.808,0,0,1,302.324,297.718Zm4.77-20.748a106.6,106.6,0,0,0,23.823,2.78c33.688,0,62.228-17.523,66.538-52.571q.525-4.385.982-8.712a48.652,48.652,0,0,1-7.635-12.32c-.1-.218-.188-.439-.275-.662-6.59-16.672-3.942-33.366,7.454-47.009l2.382-2.838a183.275,183.275,0,0,0-3.6-30.575,79.782,79.782,0,0,0-5.27-17.286c-1.9-4.28-8.406-20.374-16.176-24.745-7.387-4.155.34,5.226-3.255,5.229a3.143,3.143,0,0,1-.654-.08c-2.554-.541-14.783-7.336-20.258-7.945-4.154-.6,4.027,5.5.1,5.5l-.1,0a87.063,87.063,0,0,0-41.29,8.9,64.68,64.68,0,0,0-22.515,17.974c.136,28.594-3.277,51.911-10.351,70.282,11.393,23.7,39.666,36.751,72.052,28.845-.229,16.6-8.759,20.744-30.2,17.056a30.882,30.882,0,0,0-5.217-.457C285.567,228.33,278.156,270.007,307.094,276.97Zm124.748-63.859q5.162.52,10.706,1c17.167,1.5,37.078,2.792,59.7,4.153,7.5.4,13.728-1.814,18.445-6.931,4.992-5.343,7.757-11.131,8.326-17.613.839-6.713-.881-12.894-4.89-18.772-3.761-5.857-9.753-9.144-17.734-9.843l-21.466-1.626,37.06-44.5c6.455-7.727,7.946-16.142,3.971-25.283-3.7-9.369-10.54-14.491-20.5-15.613-12.5-1.621-26.125-3.1-41.023-4.52-4.146-.4,4.5-3.937,0-4.342-4.044-.384-8.719.419-12.556,1.225-3.365.7-6.089,1.411-7.179,1.316-3.518-.353,7.666-4.506,0-4.189s-16.326,7.791-18.924,10.152c-7.049,6.411-10.137,16.949-8.5,26.06,1.1,10.4,9.607,19.436,21.8,20.754l13.942,1.472-31.067,37.01a400.858,400.858,0,0,1-1.313,46.638A28.608,28.608,0,0,0,431.842,213.111ZM72.3,25.338c-3.631.576,4.344,2.92.5,3.612C66.987,30,61.063,31.168,54.96,32.479c-3.894.837-7.926,1.752-11.983,2.719-14.023,3.26-23.056,15.075-21.57,29.377q4.4,35.884,9.086,67.212c.284,1.908.571,3.8.877,5.816.271,1.773.559,3.664.853,5.572.472,3.046.946,6.058,1.436,9.138,2.461,15.447,4.992,30.125,7.555,43.871,2.7,15.409,17.9,22.868,31.325,20.741.173-.024.345-.05.519-.079,13.249-2.1,24.813-13.754,22.53-29.793-.871-7.132-2.888-18.236-5.51-33.141,7.6-1.2,16.171-2.821,25.969-4.89a27.492,27.492,0,0,0,10.434-4.231,183.153,183.153,0,0,1,3.408-42.737c-5.436-5.2-13.582-8.158-24.412-6.659C98.89,96.44,87.866,98.964,82.04,99.886c-.267-3.333-1.109-8.652-2.234-15.743,17.477-2.766,30.605-5.105,39.1-7.229,7.984-2.043,13.581-6.047,17-12.3a27.5,27.5,0,0,0,3.229-18.945,27,27,0,0,0-21.472-21.577c-2.758-.545-18.055-3.361-24.168-2.74-5.286.574,4.231,3.6-.965,4.418-.053.01-.107.016-.162.026-1.455.206-4.374-.6-9.111-.836-.777-.039-1.628-.056-2.5-.056A78.141,78.141,0,0,0,72.3,25.338Zm80.243,149.131c6,20.27,22.1,34.605,45.542,37.068q39.207,4.12,55.833-29.077c-4.824-15.091-4.84-31.869.156-49.015a94.579,94.579,0,0,1,11.636-27.015c-2.2-13.45-15-19.854-26.84-18.607-2.473.258,1.819-3.652-.157-3.861a4.212,4.212,0,0,0-1.427.2c-4.9,1.311-9.489,7.5-10.749,8.476-2.114,1.638-.924-3.4-1.874-3.5-.294-.031-.792.411-1.658,1.671-3.659,5.331-4.539,15.54-4.7,18.554l-.082,7.215c-.511,22.069-1.109,47.065-14.128,46.373-5.609-.363-8.629-8.13-8.524-19.858a230.579,230.579,0,0,1,3.461-35.079,33.053,33.053,0,0,0-1.86-19.262c-1.051-2.51-1.626-3.38-1.982-3.418s-.5.8-.67,1.643c-.24,1.145-.56,2.292-1.667,1.214-1.282-1.252-4.52-6.393-8.883-9.339-.927-.56-.711.543-.59,1.642.105.937.14,1.87-.652,1.79a1.565,1.565,0,0,1-.249-.052c-11.514-3.449-25.648.79-29.7,15.062a48.708,48.708,0,0,1,5.842,16.371c2.467,15.028-1.558,29.173-10.157,39.641A122,122,0,0,0,152.542,174.469Zm172.3-14.368c-4.382-3.688-5.073-8.068-2.077-12.908,3.688-6.454,11.3-9.912,23.053-10.142,1.612,8.99,2.534,17.519,3.225,25.357a50.371,50.371,0,0,1-11.345,1.479C332.377,163.886,328.092,162.642,324.846,160.1Z" transform="translate(6 2)" fill="#fff"/>
            </g>
            <g id="Group_14302" data-name="Group 14302" transform="translate(14.886 33.793) rotate(-9)">
              <path id="Path_9293" data-name="Path 9293" d="M81.888,129.635c33.336-1.026,37.438-53.85-2.051-54.619-6.667,0-17.95.769-23.848.769.256-3.334.256-8.719.256-15.9,17.694,0,31.028-.256,39.746-1.026,8.206-.769,14.36-3.846,18.719-9.488a27.5,27.5,0,0,0,6.154-18.206A27,27,0,0,0,103.032,6.5C100.392,5.528,85.724.355,79.589.011c-5.362-.262,3.8,4.3-1.806,4.213-1.471-.024-4.229-1.276-8.867-2.251A79.127,79.127,0,0,0,58.029.631c-3.678,0,3.836,3.563-.068,3.646-5.909.126-11.941.354-18.176.7-3.976.218-8.1.489-12.26.808C13.165,6.806,2.4,17.064,1.626,31.423Q.355,67.552.085,99.229c-.017,1.929-.032,3.845-.045,5.881C.03,106.9.02,108.817.013,110.747,0,113.829,0,116.88,0,120c.015,15.641.219,30.535.6,44.511C.857,180.151,14.7,189.9,28.294,189.9c13.591.256,27.181-9.488,27.438-25.9.256-7.18,0-18.463-.256-33.592C63.168,130.4,71.887,130.148,81.888,129.635Z" transform="translate(0 0)" fill="#373842"/>
            </g>
            <g id="Group_14303" data-name="Group 14303" transform="matrix(0.995, 0.105, -0.105, 0.995, 153.372, 74.994)">
              <path id="Path_9293-2" data-name="Path 9293" d="M48.861,28.071A33.059,33.059,0,0,0,45,9.107C40.513.924,43.613,11.346,40.644,9,39.238,7.89,35.48,3.117,30.833.641c-1.889-.883,1.1,3.937-1.13,3.517C17.423,1.845,3.192,8.091,1.489,24.03c-3.817,28.513,0,55.231,8.083,74.988,8.083,19.533,25.595,32.106,49.169,32.106q69.375,0,57.027-107.542c-1.74-16.156-16.619-22.475-29.4-19.757-2.807.6,2.781-5.29-1.957-3.474S75.756,8.8,74.607,9.9c-2.528,2.422-.623-7.132-3.7-1.448S68.012,24.383,68.17,27.4l.674,7.184c1.8,22,3.817,46.924-9.205,47.6-5.613.225-9.43-7.184-10.552-18.859A230.341,230.341,0,0,1,48.861,28.071Z" transform="translate(0 0)" fill="#373842"/>
            </g>
            <g id="Group_14304" data-name="Group 14304" transform="translate(271.64 80.194)">
              <path id="Path_9293-3" data-name="Path 9293" d="M121.962-236.071c2.766-23.051,4.149-44.719,3-69.384a188.769,188.769,0,0,0-3.688-32.732A79.8,79.8,0,0,0,116-355.473c-1.9-4.279-8.406-20.373-16.177-24.744s1.184,6.239-3.908,5.148c-2.553-.541-14.782-7.337-20.259-7.946-4.186-.609,4.169,5.6,0,5.5a87.048,87.048,0,0,0-41.288,8.9C16.158-359.624,4.4-344.641-.9-324.126c-14.292,48.407,25.356,84.6,74.455,72.611-.231,16.6-8.759,20.746-30.2,17.058C11.087-239.989.945-193.657,31.6-186.281,74.708-176.369,116.661-192.965,121.962-236.071ZM73.555-300.844c-10.834,2.536-18.9,1.844-24.2-2.305-4.38-3.688-5.071-8.068-2.075-12.909,3.688-6.454,11.3-9.912,23.051-10.142C71.942-317.21,72.864-308.682,73.555-300.844Z" transform="translate(3.852 383.056)" fill="#373842"/>
            </g>
            <g id="Group_14305" data-name="Group 14305" transform="matrix(0.996, 0.087, -0.087, 0.996, 418.885, 65.189)">
              <path id="Path_9293-4" data-name="Path 9293" d="M74.361,92.161,107.4,44.6c5.757-8.261,6.508-16.772,1.752-25.533C104.65,10.056,97.39,5.55,87.377,5.3c-12.6-.525-26.3-.805-41.264-.927C41.949,4.339,50.258.059,45.735.048,38.116-.007,28.644,4.3,26.3,4.3c-3.536-.044,7.242-5.156-.365-4.173S10.349,9.31,7.967,11.89c-6.465,7-8.623,17.767-6.2,26.7,2,10.263,11.264,18.524,23.53,18.774l14.018.25L4.771,106.93c-5.757,8.261-6.258,16.772-1.752,25.783,4.756,8.761,12.266,13.267,22.779,13.517,19.525.25,43.055-.25,70.591-1,7.51-.25,13.517-3,17.773-8.511,4.506-5.757,6.759-11.765,6.759-18.273.25-6.759-2-12.766-6.508-18.273-4.255-5.507-10.513-8.261-18.524-8.261Z" transform="translate(0 0)" fill="#373842"/>
            </g>
          </g>
          <g id="Group_14308" data-name="Group 14308" transform="translate(14.886 14.883)">
            <g id="Group_14302-2" data-name="Group 14302" transform="translate(0 18.911) rotate(-9)">
              <path id="Path_9293-5" data-name="Path 9293" d="M81.888,129.635c33.336-1.026,37.438-53.85-2.051-54.619-6.667,0-17.95.769-23.848.769.256-3.334.256-8.719.256-15.9,17.694,0,31.028-.256,39.746-1.026,8.206-.769,14.36-3.846,18.719-9.488a27.5,27.5,0,0,0,6.154-18.206A27,27,0,0,0,103.032,6.5C100.392,5.528,85.724.355,79.589.011c-5.362-.262,3.8,4.3-1.806,4.213-1.471-.024-4.229-1.276-8.867-2.251A79.127,79.127,0,0,0,58.029.631c-3.678,0,3.836,3.563-.068,3.646-5.909.126-11.941.354-18.176.7-3.976.218-8.1.489-12.26.808C13.165,6.806,2.4,17.064,1.626,31.423Q.355,67.552.085,99.229c-.017,1.929-.032,3.845-.045,5.881C.03,106.9.02,108.817.013,110.747,0,113.829,0,116.88,0,120c.015,15.641.219,30.535.6,44.511C.857,180.151,14.7,189.9,28.294,189.9c13.591.256,27.181-9.488,27.438-25.9.256-7.18,0-18.463-.256-33.592C63.168,130.4,71.887,130.148,81.888,129.635Z" transform="translate(0 0)" fill="#373842"/>
            </g>
            <g id="Group_14303-2" data-name="Group 14303" transform="matrix(0.995, 0.105, -0.105, 0.995, 138.486, 60.111)">
              <path id="Path_9293-6" data-name="Path 9293" d="M48.861,28.071A33.059,33.059,0,0,0,45,9.107C40.513.924,43.613,11.346,40.644,9,39.238,7.89,35.48,3.117,30.833.641c-1.889-.883,1.1,3.937-1.13,3.517C17.423,1.845,3.192,8.091,1.489,24.03c-3.817,28.513,0,55.231,8.083,74.988,8.083,19.533,25.595,32.106,49.169,32.106q69.375,0,57.027-107.542c-1.74-16.156-16.619-22.475-29.4-19.757-2.807.6,2.781-5.29-1.957-3.474S75.756,8.8,74.607,9.9c-2.528,2.422-.623-7.132-3.7-1.448S68.012,24.383,68.17,27.4l.674,7.184c1.8,22,3.817,46.924-9.205,47.6-5.613.225-9.43-7.184-10.552-18.859A230.341,230.341,0,0,1,48.861,28.071Z" transform="translate(0 0)" fill="#373842"/>
            </g>
            <g id="Group_14304-2" data-name="Group 14304" transform="translate(256.754 65.312)">
              <path id="Path_9293-7" data-name="Path 9293" d="M121.962-236.071c2.766-23.051,4.149-44.719,3-69.384a188.769,188.769,0,0,0-3.688-32.732A79.8,79.8,0,0,0,116-355.473c-1.9-4.279-8.406-20.373-16.177-24.744s1.184,6.239-3.908,5.148c-2.553-.541-14.782-7.337-20.259-7.946-4.186-.609,4.169,5.6,0,5.5a87.048,87.048,0,0,0-41.288,8.9C16.158-359.624,4.4-344.641-.9-324.126c-14.292,48.407,25.356,84.6,74.455,72.611-.231,16.6-8.759,20.746-30.2,17.058C11.087-239.989.945-193.657,31.6-186.281,74.708-176.369,116.661-192.965,121.962-236.071ZM73.555-300.844c-10.834,2.536-18.9,1.844-24.2-2.305-4.38-3.688-5.071-8.068-2.075-12.909,3.688-6.454,11.3-9.912,23.051-10.142C71.942-317.21,72.864-308.682,73.555-300.844Z" transform="translate(3.852 383.056)" fill="#373842"/>
            </g>
            <g id="Group_14305-2" data-name="Group 14305" transform="matrix(0.996, 0.087, -0.087, 0.996, 404, 50.306)">
              <path id="Path_9293-8" data-name="Path 9293" d="M74.361,92.161,107.4,44.6c5.757-8.261,6.508-16.772,1.752-25.533C104.65,10.056,97.39,5.55,87.377,5.3c-12.6-.525-26.3-.805-41.264-.927C41.949,4.339,50.258.059,45.735.048,38.116-.007,28.644,4.3,26.3,4.3c-3.536-.044,7.242-5.156-.365-4.173S10.349,9.31,7.967,11.89c-6.465,7-8.623,17.767-6.2,26.7,2,10.263,11.264,18.524,23.53,18.774l14.018.25L4.771,106.93c-5.757,8.261-6.258,16.772-1.752,25.783,4.756,8.761,12.266,13.267,22.779,13.517,19.525.25,43.055-.25,70.591-1,7.51-.25,13.517-3,17.773-8.511,4.506-5.757,6.759-11.765,6.759-18.273.25-6.759-2-12.766-6.508-18.273-4.255-5.507-10.513-8.261-18.524-8.261Z" transform="translate(0 0)" fill="#373842"/>
            </g>
          </g>
        </g>
        <path id="Path_24321" data-name="Path 24321" d="M.66,0,32.583,50.912S13.359,48.068,5.378,35.34.66,0,.66,0Z" transform="matrix(0.996, 0.087, -0.087, 0.996, 520.26, 60.059)" fill="#e0dfdf"/>
        <path id="Path_24322" data-name="Path 24322" d="M0,0,49.465,45.094S50.372,27.7,33.7,13.532,0,0,0,0Z" transform="translate(20.477 201.077) rotate(-9)" fill="#e0dfdf"/>
      </g>
    </g>
  </g>
</svg>
