<svg xmlns="http://www.w3.org/2000/svg" width="107.517" height="61.432" viewBox="0 0 107.517 61.432">
  <g id="Group_7853" data-name="Group 7853" transform="translate(-78.343 -500.549)">
    <path id="Path_8536_-_Outline" data-name="Path 8536 - Outline" d="M7455.6-22322.779h0a26.535,26.535,0,0,1,6.1.705,16.755,16.755,0,0,1,10.983,8.838,20.7,20.7,0,0,1,.952,16.949c-3.657,9.254-12.2,15.715-20.765,15.715a17.775,17.775,0,0,1-3.633-.375,21.673,21.673,0,0,1-13.906-9.611,20.074,20.074,0,0,1-1.981-16.166C7436.588-22318.562,7446.964-22322.779,7455.6-22322.779Zm-2.726,40.664c7.952,0,15.9-6.061,19.33-14.74a19.132,19.132,0,0,0-.885-15.668,15.218,15.218,0,0,0-9.972-8.047,24.845,24.845,0,0,0-5.745-.666h0c-8.062,0-17.749,3.918-20.757,14.916a18.584,18.584,0,0,0,1.808,14.957,20.114,20.114,0,0,0,12.9,8.9A16.529,16.529,0,0,0,7452.869-22282.115Z" transform="translate(-7349.122 22828.328)" fill="#060606" stroke="#fff" stroke-linecap="round" stroke-linejoin="round" stroke-width="10"/>
    <path id="Path_8538_-_Outline" data-name="Path 8538 - Outline" d="M7451.9-22322.779c8.632,0,19.01,4.217,22.248,16.055a20.072,20.072,0,0,1-1.981,16.166,21.676,21.676,0,0,1-13.906,9.611,17.769,17.769,0,0,1-3.633.375c-8.569,0-17.108-6.461-20.765-15.715a20.7,20.7,0,0,1,.952-16.949,16.758,16.758,0,0,1,10.984-8.838A26.536,26.536,0,0,1,7451.9-22322.779Zm2.728,40.664a16.51,16.51,0,0,0,3.32-.344,20.111,20.111,0,0,0,12.9-8.9,18.58,18.58,0,0,0,1.809-14.957c-3.009-11-12.7-14.916-20.759-14.916a24.859,24.859,0,0,0-5.744.666,15.217,15.217,0,0,0-9.973,8.047,19.132,19.132,0,0,0-.885,15.668C7438.732-22288.176,7446.681-22282.115,7454.632-22282.115Z" transform="translate(-7294.178 22828.328)" fill="#060606" stroke="#fff" stroke-linecap="round" stroke-linejoin="round" stroke-width="10"/>
    <path id="Path_8540_-_Outline" data-name="Path 8540 - Outline" d="M9.989,0c4.148.008,7.877,1.775,9.072,4.317,1.3,2.763-.448,6.245-4.152,8.279a12.457,12.457,0,0,1-2.248.966,13.25,13.25,0,0,1-1.9.45,15.064,15.064,0,0,1-2.349.184c-3.906,0-7.056-1.47-8.023-3.744A6.306,6.306,0,0,1,.8,5.255,9.332,9.332,0,0,1,6.756.4,12.982,12.982,0,0,1,9.989,0ZM8.409,12.466a13.33,13.33,0,0,0,2.079-.163,11.464,11.464,0,0,0,1.65-.39,10.745,10.745,0,0,0,1.938-.834c2.832-1.556,4.3-4.146,3.419-6.027S13.378,1.73,9.989,1.73a11.226,11.226,0,0,0-2.8.342A7.58,7.58,0,0,0,2.35,6.021a4.607,4.607,0,0,0-.372,3.753C2.663,11.384,5.247,12.466,8.409,12.466Z" transform="matrix(0.985, 0.174, -0.174, 0.985, 123.737, 533.515)" fill="#060606" stroke="#fff" stroke-linecap="round" stroke-linejoin="round" stroke-width="10"/>
    <path id="Path_8544_-_Outline" data-name="Path 8544 - Outline" d="M8.139,0a.866.866,0,0,1,.782.5c.06.127,1.453,3.134.453,5.491A4.03,4.03,0,0,1,6.819,8.251a4.984,4.984,0,0,1-1.6.278C1.542,8.529.1,4.071.04,3.881A.865.865,0,0,1,.747,2.765a22.479,22.479,0,0,0,3.881-.912A12.962,12.962,0,0,0,7.608.182.866.866,0,0,1,8.139,0ZM5.217,6.8a3.262,3.262,0,0,0,1.045-.186,2.341,2.341,0,0,0,1.519-1.3,4.947,4.947,0,0,0-.067-3.1A13.469,13.469,0,0,1,5.228,3.476a20.519,20.519,0,0,1-3.139.819C2.6,5.313,3.629,6.8,5.217,6.8Z" transform="translate(128.273 544.205) rotate(20)" fill="#060606" stroke="#fff" stroke-linecap="round" stroke-linejoin="round" stroke-width="10"/>
    <path id="Path_8536" data-name="Path 8536" d="M7464.75-22318.086c-10.453-2.49-23.825,1.635-27.426,14.8s5.312,22.746,15.3,24.822,19.677-5.139,23.523-14.871S7475.205-22315.6,7464.75-22318.086Z" transform="translate(-7352.354 22825.094)" fill="#fff"/>
    <path id="Path_2756" data-name="Path 2756" d="M11.055,0c4.741,0,10.5,2.233,12.408,8.5s-2.079,14.324-9.156,15.622S.877,21.479.064,14.438,6.314,0,11.055,0Z" transform="matrix(0.788, 0.616, -0.616, 0.788, 99.92, 510.617)" fill="#6a9dca"/>
    <path id="Path_7567" data-name="Path 7567" d="M9.972,0C14.419,0,19.764,1.965,22,7.416c.134.326-1.369,9.6-9.551,11.436S-.8,10.2.1,8.207C2.184,3.634,6.648,0,9.972,0Z" transform="matrix(0.788, 0.616, -0.616, 0.788, 100.774, 511.283)" fill="#060606"/>
    <path id="Path_2758" data-name="Path 2758" d="M4.451,0c2.278,0,4.66,2.616,4.66,4.911a4.875,4.875,0,0,1-4.66,4.436A4.678,4.678,0,0,1,0,4.911C0,2.616,2.173,0,4.451,0Z" transform="translate(102.415 515.65) rotate(24)" fill="#fff"/>
    <path id="Path_2759" data-name="Path 2759" d="M.9,0A1.25,1.25,0,0,1,2.017,1.092c0,.485-.26,1.143-.811,1.143A1.461,1.461,0,0,1,0,1.029.986.986,0,0,1,.9,0Z" transform="matrix(0.788, 0.616, -0.616, 0.788, 98.225, 519.573)" fill="#fff"/>
    <path id="Path_8536_-_Outline-2" data-name="Path 8536 - Outline" d="M7455.6-22322.779h0a26.535,26.535,0,0,1,6.1.705,16.755,16.755,0,0,1,10.983,8.838,20.7,20.7,0,0,1,.952,16.949c-3.657,9.254-12.2,15.715-20.765,15.715a17.775,17.775,0,0,1-3.633-.375,21.673,21.673,0,0,1-13.906-9.611,20.074,20.074,0,0,1-1.981-16.166C7436.588-22318.562,7446.964-22322.779,7455.6-22322.779Zm-2.726,40.664c7.952,0,15.9-6.061,19.33-14.74a19.132,19.132,0,0,0-.885-15.668,15.218,15.218,0,0,0-9.972-8.047,24.845,24.845,0,0,0-5.745-.666h0c-8.062,0-17.749,3.918-20.757,14.916a18.584,18.584,0,0,0,1.808,14.957,20.114,20.114,0,0,0,12.9,8.9A16.529,16.529,0,0,0,7452.869-22282.115Z" transform="translate(-7349.122 22828.328)" fill="#060606"/>
    <path id="Path_8537" data-name="Path 8537" d="M7453.643-22316.582c-7.229,1.467-13.927,6.221-16.318,14.959-3.6,13.162,5.312,22.746,15.3,24.822,8.43,1.754,16.646-3.115,21.354-10.584a40.14,40.14,0,0,1-10.2,4.014c-6.248,1.514-15.557.322-19.746-4.848-5.09-6.125-4.425-13.9-.852-19.4C7446.888-22313.312,7453.643-22316.582,7453.643-22316.582Z" transform="translate(-7352.354 22823.428)" fill="#060606" opacity="0.08"/>
    <path id="Path_8538" data-name="Path 8538" d="M7449.228-22318.086c10.453-2.49,23.825,1.635,27.426,14.8s-5.312,22.746-15.3,24.822-19.679-5.139-23.524-14.871S7438.773-22315.6,7449.228-22318.086Z" transform="translate(-7297.424 22825.094)" fill="#fff"/>
    <path id="Path_2756-2" data-name="Path 2756" d="M11.055,24.372c4.741,0,10.5-2.233,12.408-8.5S21.384,1.544,14.308.245.877,2.893.064,9.934,6.314,24.372,11.055,24.372Z" transform="matrix(-0.788, 0.616, -0.616, -0.788, 179.2, 529.822)" fill="#6a9dca"/>
    <path id="Path_7567-2" data-name="Path 7567" d="M9.972,19.067c4.447,0,9.792-1.965,12.024-7.416.134-.326-1.369-9.6-9.551-11.436S-.8,8.872.1,10.86C2.184,15.432,6.648,19.067,9.972,19.067Z" transform="matrix(-0.788, 0.616, -0.616, -0.788, 175.08, 526.308)" fill="#060606"/>
    <path id="Path_2758-2" data-name="Path 2758" d="M4.451,9.347c2.278,0,4.66-2.616,4.66-4.911A4.875,4.875,0,0,0,4.451,0,4.678,4.678,0,0,0,0,4.436C0,6.731,2.173,9.347,4.451,9.347Z" transform="translate(165.502 524.188) rotate(156)" fill="#fff"/>
    <path id="Path_2759-2" data-name="Path 2759" d="M.9,2.235A1.25,1.25,0,0,0,2.017,1.143C2.017.658,1.756,0,1.205,0A1.461,1.461,0,0,0,0,1.206.986.986,0,0,0,.9,2.235Z" transform="matrix(-0.788, 0.616, -0.616, -0.788, 167.266, 521.334)" fill="#fff"/>
    <path id="Path_8538_-_Outline-2" data-name="Path 8538 - Outline" d="M7451.9-22322.779c8.632,0,19.01,4.217,22.248,16.055a20.072,20.072,0,0,1-1.981,16.166,21.676,21.676,0,0,1-13.906,9.611,17.769,17.769,0,0,1-3.633.375c-8.569,0-17.108-6.461-20.765-15.715a20.7,20.7,0,0,1,.952-16.949,16.758,16.758,0,0,1,10.984-8.838A26.536,26.536,0,0,1,7451.9-22322.779Zm2.728,40.664a16.51,16.51,0,0,0,3.32-.344,20.111,20.111,0,0,0,12.9-8.9,18.58,18.58,0,0,0,1.809-14.957c-3.009-11-12.7-14.916-20.759-14.916a24.859,24.859,0,0,0-5.744.666,15.217,15.217,0,0,0-9.973,8.047,19.132,19.132,0,0,0-.885,15.668C7438.732-22288.176,7446.681-22282.115,7454.632-22282.115Z" transform="translate(-7294.178 22828.328)" fill="#060606"/>
    <path id="Path_8539" data-name="Path 8539" d="M7456.845-22316.582c7.229,1.467,13.927,6.221,16.319,14.959,3.6,13.162-5.312,22.746-15.3,24.822-8.429,1.754-16.646-3.115-21.354-10.584a40.14,40.14,0,0,0,10.2,4.014c6.249,1.514,15.558.322,19.746-4.848,5.09-6.125,4.425-13.9.852-19.4C7463.6-22313.312,7456.845-22316.582,7456.845-22316.582Z" transform="translate(-7293.933 22823.428)" fill="#060606" opacity="0.08"/>
    <path id="Path_8540_-_Outline-2" data-name="Path 8540 - Outline" d="M9.989,0c4.148.008,7.877,1.775,9.072,4.317,1.3,2.763-.448,6.245-4.152,8.279a12.457,12.457,0,0,1-2.248.966,13.25,13.25,0,0,1-1.9.45,15.064,15.064,0,0,1-2.349.184c-3.906,0-7.056-1.47-8.023-3.744A6.306,6.306,0,0,1,.8,5.255,9.332,9.332,0,0,1,6.756.4,12.982,12.982,0,0,1,9.989,0ZM8.409,12.466a13.33,13.33,0,0,0,2.079-.163,11.464,11.464,0,0,0,1.65-.39,10.745,10.745,0,0,0,1.938-.834c2.832-1.556,4.3-4.146,3.419-6.027S13.378,1.73,9.989,1.73a11.226,11.226,0,0,0-2.8.342A7.58,7.58,0,0,0,2.35,6.021a4.607,4.607,0,0,0-.372,3.753C2.663,11.384,5.247,12.466,8.409,12.466Z" transform="matrix(0.985, 0.174, -0.174, 0.985, 123.737, 533.515)" fill="#060606"/>
    <path id="Path_8543" data-name="Path 8543" d="M-20217.381,2387.952s-4.3,2.936-2.543,5.762c.523.839-.771,3.469,1.354,4.985s7.162,1.077,7.162,1.077l-5.164,1.468-4.707-1.468-2.75-2.136-.414-3.139,1.229-3.229,3.844-2.8Z" transform="translate(20348.254 -1852.443)" fill="#060606" opacity="0.08"/>
    <path id="Path_8541" data-name="Path 8541" d="M10.384,1.925C9.556.438,6.311-.395,3.641.186S-.558,3.173.19,4.659s4.1,2.015,6.688,1.323S11.21,3.412,10.384,1.925Z" transform="matrix(0.993, 0.122, -0.122, 0.993, 127.23, 536.678)" fill="#060606"/>
    <path id="Path_8541_-_Outline" data-name="Path 8541 - Outline" d="M6.307,0c2.183.006,4.788.732,5.7,2.369A2.555,2.555,0,0,1,12.1,4.651,6.105,6.105,0,0,1,7.969,7.683a10.223,10.223,0,0,1-2.608.331c-1.943,0-4.3-.552-5.077-2.1A3.087,3.087,0,0,1,.37,3.16,5.737,5.737,0,0,1,4.324.206,9.354,9.354,0,0,1,6.307,0ZM5.361,6.283a8.47,8.47,0,0,0,2.16-.272A4.477,4.477,0,0,0,10.5,3.976a.806.806,0,0,0-.008-.766c-.4-.727-2.076-1.485-4.187-1.48A7.623,7.623,0,0,0,4.692,1.9a3.956,3.956,0,0,0-2.76,2.009,1.437,1.437,0,0,0-.1,1.231C2.109,5.692,3.442,6.283,5.361,6.283Z" transform="matrix(0.993, 0.122, -0.122, 0.993, 126.475, 535.714)" fill="#060606"/>
    <path id="Path_8542" data-name="Path 8542" d="M-20185.3,2392.069a6.441,6.441,0,0,1,4.781-.6c3.107.6,2.959,2.519,2.959,2.519a6.406,6.406,0,0,0-3.166-1.832A13.32,13.32,0,0,0-20185.3,2392.069Z" transform="translate(20314.955 -1853.997)" fill="#fff"/>
    <path id="Path_8544" data-name="Path 8544" d="M0,2.757s1.629,5.185,5.676,3.81S7.274,0,7.274,0A13.744,13.744,0,0,1,4.063,1.8,23.219,23.219,0,0,1,0,2.757Z" transform="translate(128.79 545.314) rotate(20)" fill="#fff"/>
    <path id="Path_8544_-_Outline-2" data-name="Path 8544 - Outline" d="M8.139,0a.866.866,0,0,1,.782.5c.06.127,1.453,3.134.453,5.491A4.03,4.03,0,0,1,6.819,8.251a4.984,4.984,0,0,1-1.6.278C1.542,8.529.1,4.071.04,3.881A.865.865,0,0,1,.747,2.765a22.479,22.479,0,0,0,3.881-.912A12.962,12.962,0,0,0,7.608.182.866.866,0,0,1,8.139,0ZM5.217,6.8a3.262,3.262,0,0,0,1.045-.186,2.341,2.341,0,0,0,1.519-1.3,4.947,4.947,0,0,0-.067-3.1A13.469,13.469,0,0,1,5.228,3.476a20.519,20.519,0,0,1-3.139.819C2.6,5.313,3.629,6.8,5.217,6.8Z" transform="translate(128.273 544.205) rotate(20)" fill="#060606"/>
  </g>
</svg>
